<?xml version="1.0" encoding="UTF-8"?>
<svg width="99px" height="65px" viewBox="0 0 99 65" version="1.1" xmlns="http://www.w3.org/2000/svg" xmlns:xlink="http://www.w3.org/1999/xlink">
    <!-- Generator: Sketch 64 (93537) - https://sketch.com -->
    <title>logo</title>
    <desc>Created with Sketch.</desc>
    <defs>
        <linearGradient x1="100%" y1="100%" x2="50%" y2="100%" id="linearGradient-1">
            <stop stop-color="#9416EE" offset="0%"></stop>
            <stop stop-color="#B73372" offset="100%"></stop>
        </linearGradient>
        <linearGradient x1="50%" y1="50%" x2="84.792689%" y2="88.1191453%" id="linearGradient-2">
            <stop stop-color="#BA3665" offset="0%"></stop>
            <stop stop-color="#9013FE" offset="100%"></stop>
        </linearGradient>
    </defs>
    <g id="Page-ver.-3" stroke="none" stroke-width="1" fill="none" fill-rule="evenodd">
        <g id="Mappr-Password" transform="translate(-671.000000, -140.000000)">
            <g id="Content" transform="translate(480.000000, 120.000000)">
                <g id="logo" transform="translate(191.000000, 20.000000)">
                    <text id="OpenMappr" font-family="Helvetica" font-size="20" font-weight="normal" letter-spacing="-1" fill="#BA3665">
                        <tspan x="0.692382812" y="62">OpenMappr</tspan>
                    </text>
                    <g transform="translate(31.000000, 0.000000)" id="vibrantdata-logo-dark">
                        <g>
                            <path d="M3.353902,17.5622505 L10.4733212,10.4733212 M10.4733212,10.4733212 L17.6079855,17.6232305 M17.6079855,17.6232305 L24.6969147,10.5038113 M24.6969147,10.5038113 L31.7858439,17.6232305" id="Combined-Shape" stroke="url(#linearGradient-1)"></path>
                            <path d="M17.5622505,28.4319419 C19.4145594,28.4319419 20.9161525,29.933535 20.9161525,31.7858439 C20.9161525,33.6381528 19.4145594,35.1397459 17.5622505,35.1397459 C15.7099415,35.1397459 14.2083485,33.6381528 14.2083485,31.7858439 C14.2083485,29.933535 15.7099415,28.4319419 17.5622505,28.4319419 Z M24.6816697,21.3430127 C26.5339786,21.3430127 28.0355717,22.8446058 28.0355717,24.6969147 C28.0355717,26.5492236 26.5339786,28.0508167 24.6816697,28.0508167 C22.8293608,28.0508167 21.3277677,26.5492236 21.3277677,24.6969147 C21.3277677,22.8446058 22.8293608,21.3430127 24.6816697,21.3430127 Z M10.4580762,21.3125227 C12.3103851,21.3125227 13.8119782,22.8141158 13.8119782,24.6664247 C13.8119782,26.5187336 12.3103851,28.0203267 10.4580762,28.0203267 C8.6057673,28.0203267 7.10417423,26.5187336 7.10417423,24.6664247 C7.10417423,22.8141158 8.6057673,21.3125227 10.4580762,21.3125227 Z M29.4228675,15.2450091 C30.7339383,13.9491833 32.8529946,13.9491833 34.1640653,15.2602541 C35.4751361,16.5713249 35.4598911,18.6903811 34.1488203,20.0014519 C32.8377495,21.2972777 30.7186933,21.2972777 29.4076225,19.9862069 C28.1117967,18.6751361 28.1117967,16.5560799 29.4228675,15.2450091 Z M15.199274,15.2145191 C16.5103448,13.9186933 18.6294011,13.9186933 19.9404719,15.2297641 C21.2515426,16.5408348 21.2515426,18.6598911 19.9252269,19.9709619 C18.6141561,21.2667877 16.4950998,21.2667877 15.184029,19.9557169 C13.8882033,18.6446461 13.8882033,16.5255898 15.199274,15.2145191 Z M0.99092559,15.184029 C2.30199637,13.8882033 4.42105263,13.8882033 5.73212341,15.199274 C7.02794918,16.5103448 7.02794918,18.6294011 5.7168784,19.9404719 C4.40580762,21.2362976 2.28675136,21.2362976 0.975680581,19.9252269 C-0.320145191,18.6141561 -0.320145191,16.4950998 0.99092559,15.184029 Z M22.3186933,8.11034483 C23.6297641,6.81451906 25.7488203,6.81451906 27.0598911,8.12558984 C28.3709619,9.43666062 28.3709619,11.5709619 27.0446461,12.8667877 C25.7335753,14.1626134 23.6145191,14.1626134 22.3034483,12.8515426 C21.0076225,11.5404719 21.0076225,9.42141561 22.3186933,8.11034483 Z M8.11034483,8.09509982 C9.42141561,6.79927405 11.5404719,6.79927405 12.8515426,8.11034483 C14.1473684,9.42141561 14.1473684,11.5404719 12.8362976,12.8515426 C11.5252269,14.1473684 9.4061706,14.1473684 8.09509982,12.8362976 C6.79927405,11.5252269 6.79927405,9.4061706 8.11034483,8.09509982 Z M17.6079855,-1.94955163e-12 C19.4602944,-1.94955163e-12 20.9618875,1.50159307 20.9618875,3.353902 C20.9618875,5.20621092 19.4602944,6.70780399 17.6079855,6.70780399 C15.7556766,6.70780399 14.2540835,5.20621092 14.2540835,3.353902 C14.2540835,1.50159307 15.7556766,-1.94955163e-12 17.6079855,-1.94955163e-12 Z" id="Combined-Shape" fill="url(#linearGradient-2)" fill-rule="nonzero"></path>
                        </g>
                    </g>
                </g>
            </g>
        </g>
    </g>
</svg>