<?xml version="1.0" encoding="iso-8859-1"?><!-- Generator: Adobe Illustrator 22.1.0, SVG Export Plug-In . SVG Version: 6.00 Build 0)  --><svg xmlns="http://www.w3.org/2000/svg" xmlns:xlink="http://www.w3.org/1999/xlink" viewBox="0 0 24 24" width="20px" height="20px"><path d="M19,22H5c-1.654,0-3-1.346-3-3V8h2v11c0,0.552,0.449,1,1,1h14c0.552,0,1-0.448,1-1v-2h2v2C22,20.654,20.654,22,19,22z"/><polygon points="16.707,11.707 15.293,10.293 18.586,7 15.293,3.707 16.707,2.293 21.414,7 "/><path d="M8,18H6v-1c0-6.065,4.935-11,11-11h3v2h-3c-4.963,0-9,4.037-9,9V18z"/></svg>