<svg width="24" height="24" viewBox="0 0 24 24" fill="none" xmlns="http://www.w3.org/2000/svg">
<path d="M19.95 9.35001C19.95 8.93579 19.6142 8.60001 19.2 8.60001C18.7858 8.60001 18.45 8.93579 18.45 9.35001H19.95ZM3.60565 16.1076C3.36134 15.7732 2.89213 15.7 2.55764 15.9444C2.22314 16.1887 2.15004 16.6579 2.39435 16.9924L3.60565 16.1076ZM2.87257 15.8109C2.46438 15.8813 2.19053 16.2692 2.2609 16.6774C2.33128 17.0856 2.71924 17.3595 3.12743 17.2891L2.87257 15.8109ZM5.7 15.65L5.93829 16.3611C6.18386 16.2789 6.36961 16.0757 6.4296 15.8237C6.4896 15.5718 6.41535 15.3067 6.23322 15.1226L5.7 15.65ZM4.8 4.85001L5.46058 4.49485C5.33797 4.26679 5.10639 4.11811 4.84798 4.10154C4.58958 4.08498 4.34091 4.20287 4.19018 4.41341L4.8 4.85001ZM10.2 9.35001L10.0229 10.0788C10.2422 10.1321 10.4739 10.0838 10.6537 9.94722C10.8334 9.81067 10.9421 9.60042 10.9496 9.3748L10.2 9.35001ZM18.3 6.65001L17.6738 7.06278C17.8126 7.2733 18.0479 7.40001 18.3 7.40001V6.65001ZM21 6.65001L21.624 7.06603C21.7775 6.83589 21.7918 6.53998 21.6613 6.29611C21.5307 6.05224 21.2766 5.90001 21 5.90001V6.65001ZM18.576 8.93398C18.3462 9.27863 18.4393 9.74428 18.784 9.97404C19.1286 10.2038 19.5943 10.1107 19.824 9.76603L18.576 8.93398ZM18.45 9.35001C18.45 12.362 17.5901 14.871 16.0501 16.6163C14.5204 18.3499 12.2593 19.4 9.3 19.4V20.9C12.6407 20.9 15.3296 19.7001 17.1749 17.6087C19.0099 15.529 19.95 12.638 19.95 9.35001H18.45ZM9.3 19.4C7.64458 19.4 6.5374 18.9725 5.70459 18.3832C4.84887 17.7776 4.23772 16.973 3.60565 16.1076L2.39435 16.9924C3.01928 17.848 3.75813 18.8434 4.83816 19.6076C5.9411 20.3881 7.35542 20.9 9.3 20.9V19.4ZM3.12743 17.2891C3.15119 17.285 3.16958 17.2806 3.17593 17.2791C3.18458 17.277 3.19158 17.2752 3.19578 17.274C3.20418 17.2718 3.21102 17.2698 3.21457 17.2687C3.22212 17.2665 3.229 17.2644 3.23345 17.263C3.24301 17.26 3.25419 17.2565 3.26552 17.2528C3.28875 17.2453 3.32054 17.2349 3.35881 17.2223C3.43573 17.197 3.54331 17.1613 3.67073 17.119C3.92579 17.0342 4.26283 16.9217 4.5986 16.8095C4.93446 16.6972 5.26937 16.5851 5.5203 16.5011C5.64577 16.4591 5.75026 16.4241 5.82338 16.3996C5.85994 16.3874 5.88866 16.3778 5.90825 16.3712C5.91804 16.3679 5.92555 16.3654 5.93061 16.3637C5.93314 16.3629 5.93506 16.3622 5.93634 16.3618C5.93699 16.3616 5.93747 16.3614 5.9378 16.3613C5.93796 16.3613 5.93808 16.3612 5.93816 16.3612C5.93821 16.3612 5.93824 16.3612 5.93826 16.3612C5.93828 16.3611 5.93829 16.3611 5.7 15.65C5.46171 14.9389 5.4617 14.9389 5.46168 14.9389C5.46166 14.9389 5.46163 14.9389 5.46159 14.9389C5.46151 14.9389 5.46139 14.939 5.46123 14.939C5.46091 14.9391 5.46042 14.9393 5.45978 14.9395C5.4585 14.9399 5.45659 14.9406 5.45407 14.9414C5.44902 14.9431 5.44152 14.9456 5.43175 14.9489C5.41219 14.9555 5.3835 14.9651 5.34697 14.9773C5.2739 15.0018 5.16949 15.0367 5.0441 15.0787C4.79331 15.1627 4.45867 15.2747 4.12315 15.3868C3.78755 15.499 3.4514 15.6112 3.19749 15.6956C3.07042 15.7378 2.96458 15.7729 2.88987 15.7975C2.85233 15.8098 2.82377 15.8192 2.80469 15.8253C2.79486 15.8285 2.78939 15.8303 2.78715 15.831C2.78569 15.8314 2.78787 15.8307 2.79198 15.8295C2.79381 15.829 2.79923 15.8274 2.80654 15.8254C2.8102 15.8244 2.81673 15.8227 2.82499 15.8207C2.83095 15.8193 2.84904 15.815 2.87257 15.8109L3.12743 17.2891ZM6.23322 15.1226C3.48941 12.3486 3.28417 8.2556 5.40982 5.28661L4.19018 4.41341C1.64783 7.96441 1.89859 12.8734 5.16678 16.1774L6.23322 15.1226ZM4.13942 5.20516C5.31949 7.40008 7.53919 9.47516 10.0229 10.0788L10.3771 8.62122C8.40881 8.14285 6.49451 6.41793 5.46058 4.49485L4.13942 5.20516ZM10.9496 9.3748C10.9872 8.23881 11.388 7.29968 12.0242 6.64957C12.6563 6.00355 13.5621 5.60001 14.7 5.60001V4.10001C13.1869 4.10001 11.8857 4.64646 10.9521 5.60044C10.0225 6.55033 9.49883 7.8612 9.45041 9.32521L10.9496 9.3748ZM14.7 5.60001C15.5057 5.60001 16.0959 5.75291 16.5489 5.99468C17.0003 6.23558 17.3617 6.58936 17.6738 7.06278L18.9262 6.23724C18.5053 5.59865 17.9692 5.05244 17.2551 4.67134C16.5426 4.2911 15.6993 4.10001 14.7 4.10001V5.60001ZM18.3 7.40001H21V5.90001H18.3V7.40001ZM20.376 6.23398L18.576 8.93398L19.824 9.76603L21.624 7.06603L20.376 6.23398Z" fill="#616161"/>
</svg>
