<?xml version="1.0" encoding="UTF-8"?>
<svg width="18px" height="18px" viewBox="0 0 18 18" version="1.1" xmlns="http://www.w3.org/2000/svg" xmlns:xlink="http://www.w3.org/1999/xlink">
    <!-- Generator: Sketch 64 (93537) - https://sketch.com -->
    <title>Shape</title>
    <desc>Created with Sketch.</desc>
    <g id="Page-ver.-3" stroke="none" stroke-width="1" fill="none" fill-rule="evenodd">
        <g id="Mappr-Info-Page" transform="translate(-19.000000, -735.000000)" fill="#FFFFFF" fill-rule="nonzero">
            <g id="Buttons" transform="translate(0.000000, 680.000000)">
                <g id="Group-3" transform="translate(0.000000, 44.000000)">
                    <g id="bug-solid" transform="translate(19.000000, 11.000000)">
                        <path d="M17.9995781,10.1566406 C17.9827734,10.7694141 17.4646055,11.25 16.8516211,11.25 L14.90625,11.25 L14.90625,11.8125 C14.90625,12.5811562 14.7346172,13.3095937 14.428125,13.9621289 L16.5455156,16.0795195 C16.9848281,16.5188672 16.9848281,17.231168 16.5455156,17.6705156 C16.1061328,18.1098633 15.393832,18.1098281 14.9544844,17.6705156 L13.0301719,15.7462031 C12.1600547,16.4518945 11.0514023,16.875 9.84375,16.875 L9.84375,8.296875 C9.84375,8.06389453 9.65485547,7.875 9.421875,7.875 L8.578125,7.875 C8.34514453,7.875 8.15625,8.06389453 8.15625,8.296875 L8.15625,16.875 C6.94859766,16.875 5.83994531,16.4518945 4.96982813,15.7462031 L3.04551563,17.6705156 C2.60613281,18.1098633 1.89383203,18.1098281 1.45448438,17.6705156 C1.01517188,17.231168 1.01517188,16.5188672 1.45448438,16.0795195 L3.571875,13.9621289 C3.26538281,13.3095937 3.09375,12.5811562 3.09375,11.8125 L3.09375,11.25 L1.14841406,11.25 C0.535429687,11.25 0.0172617187,10.7694141 0.00045703125,10.1566406 C-0.017015625,9.520875 0.493171875,9 1.125,9 L3.09375,9 L3.09375,6.93474609 L1.45448437,5.29548047 C1.01517187,4.85613281 1.01517187,4.14383203 1.45448437,3.70448438 C1.89386719,3.26513672 2.60613281,3.26513672 3.04551562,3.70448438 L4.96599609,5.625 L13.0339687,5.625 L14.9544492,3.70451953 C15.393832,3.26517188 16.1060977,3.26517188 16.5454805,3.70451953 C16.984793,4.14386719 16.984793,4.85616797 16.5454805,5.29551563 L14.90625,6.93474609 L14.90625,9 L16.875,9 C17.5068281,9 18.0170156,9.520875 17.9995781,10.1566406 Z M9.03515625,0 C6.86053125,0 5.09765625,1.762875 5.09765625,3.9375 L12.9726562,3.9375 C12.9726562,1.762875 11.2097812,0 9.03515625,0 Z" id="Shape"></path>
                    </g>
                </g>
            </g>
        </g>
    </g>
</svg>
