<?xml version="1.0" encoding="utf-8"?>
<!-- Generator: Adobe Illustrator 19.0.0, SVG Export Plug-In . SVG Version: 6.00 Build 0)  -->
<svg version="1.1" id="Layer_1" xmlns="http://www.w3.org/2000/svg" xmlns:xlink="http://www.w3.org/1999/xlink" x="0px" y="0px"
	 viewBox="0 0 512 512" style="enable-background:new 0 0 512 512;" xml:space="preserve">
<g id="XMLID_6_">
	<path fill="#ffffff" id="XMLID_11_" d="M454.5,0.5H56.6C25.4,0.5,0,25.8,0,57.1v397.9c0,31.2,25.4,56.6,56.6,56.6h398.9
		c31.2,0,56.6-25.4,56.6-56.6V57.1C512,25.8,485.7,0.5,454.5,0.5z M454.5,341.8H341.3c0,46.8-38,85.8-85.8,85.8s-85.8-38-85.8-85.8
		H56.6V57.1h398.9v284.8H454.5z M369.6,199.4h-56.6v-85.8H198.9v85.8h-56.6l113.1,113.1L369.6,199.4z"/>
</g>
</svg>
