<?xml version="1.0" encoding="UTF-8"?>
<svg width="18px" height="12px" viewBox="0 0 18 12" version="1.1" xmlns="http://www.w3.org/2000/svg" xmlns:xlink="http://www.w3.org/1999/xlink">
    <!-- Generator: Sketch 64 (93537) - https://sketch.com -->
    <title>Shape</title>
    <desc>Created with Sketch.</desc>
    <g id="Page-ver.-3" stroke="none" stroke-width="1" fill="none" fill-rule="evenodd">
        <g id="Mappr-Info-Page" transform="translate(-19.000000, -182.000000)" fill="#C2CFE1" fill-rule="nonzero">
            <g id="Slide-bar" transform="translate(-1.000000, 0.000000)">
                <g id="Menu" transform="translate(0.000000, 80.000000)">
                    <g id="toggle-on-solid" transform="translate(20.000000, 102.000000)">
                        <path d="M12,0 L6,0 C2.6875,0 0,2.6875 0,6 C0,9.3125 2.6875,12 6,12 L12,12 C15.3125,12 18,9.3125 18,6 C18,2.6875 15.3125,0 12,0 Z M12,10 C9.7875,10 8,8.209375 8,6 C8,3.7875 9.790625,2 12,2 C14.2125,2 16,3.790625 16,6 C16,8.2125 14.209375,10 12,10 Z" id="Shape"></path>
                    </g>
                </g>
            </g>
        </g>
    </g>
</svg>