<?xml version="1.0" encoding="UTF-8"?>
<svg width="18px" height="18px" viewBox="0 0 18 18" version="1.1" xmlns="http://www.w3.org/2000/svg" xmlns:xlink="http://www.w3.org/1999/xlink">
    <!-- Generator: Sketch 64 (93537) - https://sketch.com -->
    <title>Shape</title>
    <desc>Created with Sketch.</desc>
    <g id="Page-ver.-3" stroke="none" stroke-width="1" fill="none" fill-rule="evenodd">
        <g id="Mappr-Info-Page" transform="translate(-19.000000, -779.000000)" fill="#C2CFE1" fill-rule="nonzero">
            <g id="Buttons" transform="translate(0.000000, 680.000000)">
                <g id="Group-3" transform="translate(0.000000, 88.000000)">
                    <g id="headset-solid" transform="translate(19.000000, 11.000000)">
                        <path d="M6.75,7.3125 C6.75,6.69128906 6.24621094,6.1875 5.625,6.1875 L5.0625,6.1875 C3.81972656,6.1875 2.8125,7.19472656 2.8125,8.4375 L2.8125,10.125 C2.8125,11.3677734 3.81972656,12.375 5.0625,12.375 L5.625,12.375 C6.24621094,12.375 6.75,11.8712109 6.75,11.25 L6.75,7.3125 Z M12.9375,12.375 C14.1802734,12.375 15.1875,11.3677734 15.1875,10.125 L15.1875,8.4375 C15.1875,7.19472656 14.1802734,6.1875 12.9375,6.1875 L12.375,6.1875 C11.7537891,6.1875 11.25,6.69128906 11.25,7.3125 L11.25,11.25 C11.25,11.8712109 11.7537891,12.375 12.375,12.375 L12.9375,12.375 Z M9,0 C3.97898438,0 0.161015625,4.17761719 0,9 L0,9.5625 C0,9.87328125 0.25171875,10.125 0.5625,10.125 L1.125,10.125 C1.43578125,10.125 1.6875,9.87328125 1.6875,9.5625 L1.6875,9 C1.6875,4.96792969 4.96792969,1.6875 9,1.6875 C13.0320703,1.6875 16.3125,4.96792969 16.3125,9 L16.3082813,9 C16.3110937,9.08542969 16.3125,14.8260938 16.3125,14.8260938 C16.3125,15.6469922 15.6469922,16.3125 14.8260938,16.3125 L11.25,16.3125 C11.25,15.3805078 10.4944922,14.625 9.5625,14.625 L8.4375,14.625 C7.50550781,14.625 6.75,15.3805078 6.75,16.3125 C6.75,17.2444922 7.50550781,18 8.4375,18 L14.8260938,18 C16.5789844,18 18,16.5789844 18,14.8260938 L18,9 C17.8389844,4.17761719 14.0210156,0 9,0 Z" id="Shape"></path>
                    </g>
                </g>
            </g>
        </g>
    </g>
</svg>