<?xml version="1.0" encoding="utf-8"?>
<!-- Generator: Adobe Illustrator 19.1.0, SVG Export Plug-In . SVG Version: 6.00 Build 0)  -->
<svg version="1.1" id="Layer_1" xmlns="http://www.w3.org/2000/svg" xmlns:xlink="http://www.w3.org/1999/xlink" x="0px" y="0px"
	 viewBox="0 0 457.3 512" enable-background="new 0 0 457.3 512" xml:space="preserve">
<path d="M381.9,148.5c43.4,43.8,26.4,130.6-108.3,98.5c-33.7,5.1-105.9,15.4-115-35.1c-12.8,8.1-77.6-37.4-25-106.3
	C195.9,24.4,350.2,45,381.9,148.5z M84.1,430.8C60.4,403.7,65.8,341.5,69,319.3H26.3c-11,0-20.2-5.7-24.2-14.9
	C-3.3,292,1.9,276.7,16,263.2c23.7-22.5,34.3-45.8,34.3-59l0-1.4c-0.1-8.4-0.2-34.1,6.7-64.6c8.8-39.2,25.6-70.8,49.8-93.9
	C137.6,14.9,179.7,0,232,0c59,0,139.7,13.9,188.6,79.9c19.9,26.9,32.3,60,35.8,95.8c3.1,32.1-1.2,65.9-12.2,95
	c-13.1,34.6-38.7,53.1-50.6,69.5c-20.4,27.8-36.6,75.4-37.4,171.9h-32c0.8-106.1,19.6-157.2,43.2-189.3
	c11.4-15.5,35.1-31.5,46.8-62.3c9.4-25,13.2-54.1,10.5-81.9c-2.9-30.4-13.3-58.5-30.1-81C379.3,77,359.2,61,334.5,49.8
	C306.1,36.9,271.6,30.4,232,30.4c-23.4,0-44.3,3.4-62.2,10.2c-15.4,5.8-28.9,14.3-40.3,25.2c-19.8,19-33.7,45.5-41.2,78.9
	c-6.2,27.3-6,50.4-6,58c0,0.6,0,1.2,0,1.6c0,24-16.7,54.9-43.7,80.5c-1.6,1.5-2.8,2.9-3.8,4.1h72.2l-5.2,26.9
	c0,0.2-3.5,18.5-3.8,39.7c-0.5,34.4,7.2,52,10.6,55.9c2.6,3,5.4,4.1,10.1,4.1c36.2,0,48.5,0.5,62.1,13.5c16.1,15.4,16.2,61.3,16,83
	h-32c0.1-17.1,0.1-55-6.7-61.6c-6.8-6.5-13.2-4.5-39.4-4.5C104.5,445.9,92.9,440.8,84.1,430.8z"/>
</svg>
