<?xml version="1.0" encoding="utf-8"?>
<!-- Generator: Adobe Illustrator 19.1.0, SVG Export Plug-In . SVG Version: 6.00 Build 0)  -->
<svg version="1.1" id="Layer_1" xmlns="http://www.w3.org/2000/svg" xmlns:xlink="http://www.w3.org/1999/xlink" x="0px" y="0px"
	 viewBox="-401 123 157 155.5" style="enable-background:new -401 123 157 155.5;" xml:space="preserve">
<style type="text/css">
	.st0{fill:#878787;}
</style>
<path class="st0" d="M-398,140.2c35.1,35.1,70.2,70.2,105.3,105.3c10.1,10.1,20.1,20.1,30.2,30.2c9.1,9.1,23.2-5.1,14.1-14.2
	c-35.1-35.1-70.2-70.2-105.3-105.3c-10.1-10.1-20.1-20.1-30.2-30.2C-393,116.8-407.1,131-398,140.2L-398,140.2z"/>
<path class="st0" d="M-383.8,275.6c35.1-35.1,70.2-70.2,105.3-105.3c10.1-10.1,20.1-20.1,30.2-30.2c9.1-9.1-5.1-23.2-14.2-14.1
	c-35.1,35.1-70.2,70.2-105.3,105.3c-10.1,10.1-20.1,20.1-30.2,30.2C-407.2,270.6-393,284.7-383.8,275.6L-383.8,275.6z"/>
</svg>
