<?xml version="1.0" encoding="utf-8"?>
<!-- Generator: Adobe Illustrator 14.0.0, SVG Export Plug-In  -->
<!DOCTYPE svg PUBLIC "-//W3C//DTD SVG 1.1//EN" "http://www.w3.org/Graphics/SVG/1.1/DTD/svg11.dtd" [
	<!ENTITY ns_flows "http://ns.adobe.com/Flows/1.0/">
]>
<svg version="1.1"
	 xmlns="http://www.w3.org/2000/svg" xmlns:xlink="http://www.w3.org/1999/xlink" xmlns:a="http://ns.adobe.com/AdobeSVGViewerExtensions/3.0/"
	 x="0px" y="0px" width="402px" height="402px" viewBox="-0.5 -0.5 402 402" enable-background="new -0.5 -0.5 402 402"
	 xml:space="preserve">
<defs>
</defs>
<path fill="#4D94C6" d="M30.746,113.715c3.212,1.768,5.301-4.015,7.066-5.461c0.644-0.482,0.644-0.482,1.125-0.804
	c-0.642,0.321,2.249,0,2.088,0c1.125-0.16,2.248-1.124,3.695-0.643c2.73,0.964,3.212,4.337,4.014,6.907
	c0.16,0.482,0.644,0.964,0.644,1.445c0.16,0.643-0.804,1.605-0.161,2.249c0.963,1.284,2.73-0.804,2.249-2.089
	c2.569,0.804,2.249,4.177,4.176,5.623c2.087,1.767,3.374,1.444,3.212,4.979c-4.016-0.162-0.642,3.211,1.285,3.854
	c1.286,0.32,7.71,0.32,5.14-2.088c0.803-0.162,1.767,0,2.088,0.803c1.124,2.088-0.802,1.605-1.767,2.408
	c-2.087,1.768-1.606,2.893-1.285,5.461c0.322,3.214,0.483,6.426-0.321,9.479c-0.481,1.605-1.285,3.533-1.124,5.139
	c0.32,0.963,1.285,2.088,1.606,3.053c0.322,1.285,0.161,2.729,0.482,3.854c0.803,2.571,3.051,4.016,4.979,5.944
	c1.766,1.767,2.731,4.175,4.336,6.103c2.411,3.053,5.14,1.928,8.674,3.213c4.176,1.283,6.586,3.373,9.156,6.744
	c2.892,3.535,5.3,3.535,9.476,4.498c2.887,0.666,1.835,1.855,0.23,3.26c-0.422,0.369-1.554,0.992-1.482,1.682
	c0.121,1.152,3.276,1.672,4.144,1.641c1.046-0.037,1.918-0.217,2.887-0.162c2.07,0.123,4.471,0.375,4.822,2.736
	c0.17,1.135-0.404,2.295,0.764,2.93c1.101,0.6,2.464-0.488,3.573-0.529c2.405-0.086,4.323,2.473,6.588,2.512
	c2.458-2.537-4.028-6.383-4.372-3.17c-1.794-0.1-0.859-2.258-1.69-3.232c-0.613-0.717-2.539-1.309-3.389-1.75
	c0.079-1.863-2.349-4.604-2.309-1.764c-0.946-0.197-1.043-1.1-1.703-1.75c-0.657-0.645-1.444-0.604-2.128-1.117
	c-1.447-1.084-1.309-2.898-3.199-3.699c-1.48-0.625-3.409-0.533-4.828-1.561c-1.521-1.102-0.127-3.855-2.229-4.213
	c0.425-0.762,0.912-0.395,1.553-0.609c-0.054,0.02,1.402-0.537,1.279-0.525c1.213-0.109,2.317,0.699,3.212,1.652
	c0.856,0.916,1.518,2.049,2.252,3.053c0.346,0.473,0.779,0.543,1.008,1.08c0.287,0.678-0.207,1.225,0.352,1.867
	c1.237-0.93,0.941-2.092,2.856-1.828c0.823,0.115,2.593,0.811,3.213,1.363c0.92,0.82,0.467,2.867,1.638,3.387
	c0.783,0.35,2.653-0.549,3.697-0.322c1.39,0.299,1.576,0.766,2.374,1.801c0.884,1.148,1.33,1.236,2.883,1.299
	c2.712,0.109,5.283,1.506,8.031,2.271c2.003,0.559,2.578,1.447,3.984,2.738c1.024,0.941,2.267,1.391,3.244,2.521
	c1.613,1.871,0.534,4.438,2.882,5.795c2.583,1.492,5.725,1.777,8.685,1.92c3.174,0.152,6.499,1.041,9.643,0.807
	c2.528-0.189,5.155-0.564,7.71-0.932c1.341-0.193,2.324-0.855,3.69-1.002c1.947-0.213,3.846-0.295,5.787-0.605
	c3.674-0.584,6.081-0.934,8.509-3.883c1.345-1.631,1.677-2.053,3.817-2.246c1.685-0.152,3.28-0.168,4.851,0.312
	c1.358,0.414,2.413,1.545,3.708,1.928c1.173,0.344,2.762,0.266,3.975,0.32c1.519,0.066,2.126-0.336,3.605-0.768
	c1.524-0.443,3.048-0.014,4.622-0.188c2.076-0.229,4.156-1.09,5.945-1.775c2.164-0.832,2.838,0.162,4.688,0.803
	c1.726,0.596,3.014-0.232,4.901,0.688c1.593,0.777,3.3,1.473,5.004,2.072c-0.245,0.432-0.592,0.881-0.963,1.256
	c1.283,1.359,5.716,4,7.264,2.248c-0.34-0.775-1.122-1.264-1.77-1.699c1.854,0.291,3.385,1.195,5.127,1.826
	c0.389,0.141,0.933,0.107,1.291,0.355c0.25,0.174,0.321,0.861,0.512,0.93c0.812,0.287,1.076,0.111,1.531-0.752
	c0.845,1.766,4.25-1.074,5.825-0.822c1.236,0.197,1.537,1.029,2.886,0.93c0.785-0.057,0.903-0.51,1.768-0.328
	c0.456,0.096,1.008,0.611,1.402,0.822c2.048-1.188,0.438-2.391,0.515-3.992c0.028-0.615,0.903-1.365,0.831-1.936
	c-0.105-0.822-1.365-1.143-0.991-1.926c0.758-1.59,2.916,0.396,3.54,0.652c0.857,0.355,3.439,0.879,1.751,2.41
	c1.794,1.203,4.743,0.709,6.449,2.242c0.235,0.213,0.907,0.93,0.927,1.283c0.033,0.6-0.629,0.662-0.654,1.084
	c-0.06,1.037,0.856,2.262,1.161,3.213c0.496,1.547,1.423,3.217,1.454,4.863c0.041,2.225-1.39,4.123-2.697,5.75
	c0.722,1.217-1.049,1.592-1.408,2.602c1.779,1.193-0.122,2.789-1.031,3.738c-0.514,0.537-1.422,1.012-1.461,1.881
	c-0.039,0.881,0.626,1.215,0.461,2.252c-0.205,1.295-1.842,3.92-0.979,5.027c0.482,0.619,1.353,0.068,1.666,0.912
	c0.248,0.668-0.634,1.654-0.307,2.549c1.309-0.289,1.373,0.053,2.503,0.387c1.073,0.316,1.976,0.271,1.188-1.285
	c1.437-0.896,1.224,1.125,0.746,1.891c-0.496,0.799-1.541,1.297-2.012,2.121c-0.564,0.984-2.927,5.584-0.389,5.289
	c-0.436,1.6,0.42,0.83,1.146,1.416c0.713,0.576,1.279,1.408,0.308,2.252c0.78,1,2.461,0.176,3.548,0.678
	c0.972,0.445,2.023,1.824,2.893,2.406c2.369,1.588,4.687,2.455,6.144,4.939c1.311,2.236,3.62,3.574,5.541,5.188
	c0.828,0.695,2.493,1.383,3.051,2.25c0.565,0.881,0.104,2.096,0.524,3.172c1.927,4.973,9.052,3.408,12.848,4.463
	c2.891,0.803,3.793,2.432,4.818,5.014c0.465,1.164,1.476,2.338,1.615,3.527c0.163,1.379-0.353,2.721-0.615,4.021
	c-0.493,2.459-0.579,5.41-0.693,7.871c-0.1,2.113,0.107,4.422-0.301,6.586c-0.497,2.629-1.452,5.172-2.098,7.713
	c-0.863,3.402-2.018,6.721-3.02,10.084c-0.843,2.82-1.109,5.746-1.955,8.545c-0.259,0.857-0.365,1.873-1.004,2.529
	c-0.374,0.381-1.036,0.012-1.378,0.514c-0.288,0.426-0.052,1.262-0.03,1.775c0.082,2.074-0.436,4.143-1.156,6.1
	c-0.451,1.217-3.228,4.279-2.049,5.322c0.883-0.854,1.45-2.211,2.373-2.883c0.666,1.73-2.422,3.691-3.301,4.834
	c-0.65,0.848-0.936,2.004-1.689,2.818c-0.744,0.797-2.061,1.023-1.699,2.414c0.367-0.104,0.881,0.006,1.244-0.109
	c-0.652,1.508-2.155,1.984-2.996,3.184c-0.809,1.158-0.254,2.611-0.879,3.822c-0.47,0.91-2.117,1.891-0.734,2.887
	c0.617,0.447,1.008-0.299,1.578-0.131c0.621,0.184,0.427,0.982,1.287,0.982c1.414,0,1.511-1.941,1.953-2.738
	c0.388-0.695,0.998-1.01,1.256-1.762c0.242-0.707-0.127-1.025,0.273-1.775c1.016-1.908,3.338-3.414,4.863-4.814
	c2.639-2.424,2.702-5.959,4.977-8.389c2.172-2.324,3.651-5.527,6.407-7.068c-1.854-1.443,4.011-3.85,4.638-4.938
	c0.614-1.066,0.049-2.68,1.045-3.508c0.865-0.719,2.215-0.17,3.187-0.639c1.019-0.49,1.874-1.893,2.595-2.725
	c0.979-1.133,2.21-1.803,3.299-2.807c0.862-0.797,2.051-2.021,2.004-3.061c-0.018-0.436-0.775-0.457-0.808-1.045
	c-0.032-0.586,0.748-1.285,0.765-1.963c0.025-1.1-1.678-2.258-0.321-2.738c0.006-0.002,1.415,0.48,1.442,0.486
	c0.356,0.055,1.44,0.16,1.808,0.129c2.911-0.248,4.825-3.143,5.784-5.711c2.229-5.967,6.125-11.078,10.402-15.742
	c2.206-2.404,2.7-5.58,3.971-8.516c1.291-2.984,3.509-5.504,5.061-8.184c1.211-2.094,1.65-3.475,3.977-4.051
	c4.184-1.037,4.604-6.314,6.461-9.473c1.461-2.482,2.977-4.564,3.508-7.398c1.016-5.422,1.203-10.57,3.244-15.865
	c0.646-1.678,0.543-3.145,0.768-5.018c0.212-1.793,1.848-1.885,2.409-3.688c0.914-2.938,2.254-6,2.383-9.113
	c0.063-1.539-0.032-2.424,0.512-3.926c0.567-1.564,1.191-3.111,1.278-4.793c0.128-2.508-0.301-4.994-0.29-7.42
	c0.004-1.207,0.313-2.611-1.31-3.027c-0.595-0.154-1.008,0.475-1.659,0.211c-0.579-0.234-0.771-0.852-1.048-1.365
	c-0.66-1.225-1.201-2.07-2.078-3.221c-1.012-1.324-0.629-1.428-2.09-0.592c-1.283,0.732-0.986,0.74-2.612,0.195
	c-1.062-0.355-2.029-0.619-3.017,0.312c-0.367,0.348,0.271,1.324-0.679,1.428c-0.78,0.088-0.662-1.01-0.79-1.461
	c-0.21-0.742-0.164-2.994-1.004-3.34c-0.743-0.305-0.747,0.475-1.21,0.494c-0.591,0.023-1.006-0.023-1.614-0.24
	c-0.873-0.311-1.695-1.416-2.605-0.615c-1.088,0.959-1.588,5.018-1.955,6.42c-1.389-1.387,1.545-4.348,0.066-6.256
	c-1.186-1.531-4.313,0.695-4.568,2.076c-1.042-1.018,0.725-1.762,1.004-2.393c0.359-0.812,0.27-1.789-0.938-0.98
	c0.049-1.451,1.396-2.846,0.777-4.158c-0.449-0.953-1.342-0.855-2.055-1.428c-0.73-0.588-1.217-1.455-1.563-2.33
	c-0.674-1.701-0.465-3.797-2.618-4.398c-0.518-0.145-0.653,0.279-1.32-0.197c-0.398-0.285-0.437-1.047-0.846-1.406
	c-0.8-0.701-2.44-0.967-3.492-1.002c-2.762-0.096-5.282,1.576-8.032,1.801c-1.886,0.154-4.908-0.934-6.58-1.842
	c-1.261-0.686-2.433-1.547-3.733-2.172c-1.914-0.92-2.295-0.545-4.117,0.107c0.478-0.172-0.119-2.396-0.373-2.668
	c-0.717-0.775-2.213-0.852-3.185-0.85c-0.959,0.002-1.616-0.27-2.489,0.33c-0.422-0.352-0.912-0.701-1.42-0.908
	c0.165,0.068,2.844-2.078,0.984-2.142c-0.946-0.033-1.854,1.254-2.6,1.699c-0.926,0.553-2.972,0.691-3.6,1.521
	c0.01,0.047,0.031,0.09,0.062,0.129c0.479-0.002,1.27-0.145,1.601,0.254c-0.21,0.68-0.834,0.498-1.358,0.738
	c-0.672,0.312-0.705,1.066-1.242,1.496c-0.5,0.398-1.213,0.219-1.807,0.334c-0.705,0.139-1.16,0.303-1.865,0.242
	c-0.593-0.053-1.181-0.32-1.765-0.238c-0.788,0.109-1.274,0.734-1.848,1.201c-1.679,1.361-3.062,1.674-4.88,0.223
	c-0.406-0.322-0.641-0.76-1.145-0.945c-1.292-0.477-2.56,0.955-3.695,0.307c-0.508-0.291-0.638-1.105-1.039-1.348
	c-0.517-0.314-1.424-0.107-1.612,0.398c-0.176,0.469,0.141,1.469,0.583,1.67c0.542,0.248,1.242-0.262,1.814-0.049
	c-0.021,0.611-0.918,0.572-1.334,0.887c-0.459,0.346-0.725,0.947-1.125,1.367c-0.705,0.738-1.929,0.982-2.287,2.131
	c-0.307,0.984,1.143,1.738,1.728,2.49c0.729,0.941,1.856,1.732,1.246,2.947c-0.606,1.207-1.323,1.781-2.293,0.682
	c-0.989-1.123-0.779-2.434-1.361-3.77c-0.271-0.619-0.467-1.346-0.739-1.934c-0.105-0.225-0.198-0.5-0.405-0.637
	c-0.272-0.184-0.536,0.23-0.788-0.18c-0.747-1.23,4.49-4.357,0.65-4.621c-2.088-0.143-2.639,3.297-3.457,4.639
	c-0.758,1.244-1.396,1.9-2.75,2.395c-0.584,0.215-1.021,0.352-1.267,0.998c-0.242,0.627,0.051,1.377-0.567,1.848
	c-0.875,0.672-0.662-0.301-1.381-0.439c-0.855-0.166-1.601,1.367-1.761,2.031c-0.298,1.248-0.183,2.459,0.013,3.77
	c0.108,0.709,0.338,1.355,0.127,2.088c-0.231,0.811-0.857,1.229-1.33,1.848c-0.313,0.41-0.811,1.145-0.744,1.686
	c0.072,0.602,0.594,0.986,0.565,1.688c-0.012,0.303-0.009,0.52-0.159,0.77c-0.546-0.395-0.673-1.148-1.224-1.555
	c-0.574-0.426-1.47-0.387-2.149-0.322c-0.744,0.072-1.4,0.439-2.168,0.223c-0.737-0.205-1.14-0.559-1.947-0.562
	c-0.678-0.004-1.338,0.24-1.989,0.244c-0.709,0.004-1.043-0.172-1.669,0.102c-1.133,0.494-2.6,1.646-3.409,2.543
	c-0.804,0.891-1.483,1.588-2.552,2.174c-0.657,0.357-1.801,0.188-2.27,0.619c-0.373,0.342-0.125,0.742-0.38,1.066
	c-0.567,0.715-0.524,0.043-0.659-0.244c-0.943-1.982-3.296-1.9-5.123-2.16c-1.112-0.158-2.951-0.918-3.779-1.695
	c-1.08-1.016-1.18-2.365-0.957-3.771c0.066-0.412,0.749-1.691,0.617-2.01c-0.354-0.867-1.2-0.055-1.15,0.607
	c-0.374-0.469-0.059-1.785-0.271-2.477c-0.117-0.373-0.373-0.695-0.482-1.041c-0.221-0.699-0.032-0.678,0.002-1.291
	c0.057-0.967-0.373-1.357-0.648-2.244c-0.238-0.771,0.122-2.066-0.396-2.684c-0.724-0.859-2.224-0.426-3.108-0.426
	c-0.914,0-1.871-0.215-2.783-0.213c-1.867,0-3.801,0.684-5.565,1.311c-1.528,0.541-2.136,2.123-3.75,2.654
	c-0.713,0.232-1.461,0.152-2.146,0.396c-0.761,0.273-1.24,0.869-1.926,1.289c-0.576,0.354-1.332,0.5-1.843,0.855
	c-0.39,0.271-0.885,1.125-1.345,0.646c-1.086-1.133,1.154-2.984,1.781-3.541c-0.217-0.42-0.617-0.598-1.035-0.338
	c-0.545-0.656-0.857-2.377-0.036-2.98c-0.289-0.549-0.667-0.26-1.03-0.484c-0.281-0.174-0.421-0.383-0.744-0.771
	c-0.275-0.328-0.65-0.611-0.892-0.961c-0.3-0.43-0.134-0.885-0.705-1.264c1.896-1.248,1.791,0.799,2.745,1.807
	c0.589-0.572,0.062-1.359-0.006-2.043s0.264-1.363,0.147-2.041c-0.081-0.482-0.313-1.23-0.474-1.729
	c-0.158-0.498-0.747-1.203-0.984-0.252c-0.052-0.742,0.436-1.145,0.491-1.736c0.06-0.607-0.384-1.23-0.248-1.932
	c0.209-1.072,1.749-2.586,0.501-3.555c-0.451-0.351-1.293-0.388-1.865-0.298c-0.889,0.14-0.436,0.488-1.203,0.886
	c-0.535,0.276-1.197,0.229-1.768,0.458c-0.566,0.227-1.096,0.604-1.624,0.883c-2.157,1.133-4.332,2.99-5.682,5.002
	c-0.722,1.076-1.251,2.104-0.888,3.453c0.183,0.68,0.541,1.084,0.484,1.848c-0.047,0.623-0.252,1.234-0.578,1.764
	c-0.76,1.238-2.214,2.189-3.441,2.896c-1.288,0.742-2.456,1.566-3.566,2.568c-1.174,1.061-1.919,2.662-3.417,3.273
	c-1.327,0.539-2.394,0.705-3.675,0.32c-1.812-0.545-3.739,0.021-5.561-0.062c-0.785-0.033-1.455-0.268-2.227-0.461
	c-1.494-0.369-3.14-0.572-4.363-1.521c-0.628-0.488-0.981-1.039-1.381-1.709c-0.465-0.785-1.015-1.242-1.729-1.785
	c-1.134-0.863-2.187-2.299-2.974-3.518c-0.874-1.355-1.305-2.83-1.54-4.416c-0.207-1.383-0.186-2.648,0.017-4.016
	c0.408-2.756-1.255-4.766-1.542-7.389c-0.176-1.592,0.377-2.445,1.185-3.774c0.959-1.577,1.62-3.283,2.891-4.657
	c1.235-1.336,2.349-2.662,3.634-3.953c1.192-1.199,2.481-1.953,3.996-2.734c0.856-0.442,1.783-0.771,2.748-0.865
	c0.877-0.087,1.835,0.076,2.555-0.413c0.066-0.432-0.357-0.446-0.7-0.483c0.228-0.263,0.725-0.529,1.116-0.55
	c0.576-0.03,0.653,0.287,1.124,0.408c0.451,0.117,0.989-0.096,1.446-0.004c0.479,0.095,0.758,0.255,1.223,0.26
	c1.377,0.015,2.303-0.938,3.314-1.719c1.285-0.994,1.512-0.222,2.831-0.354c0.539-0.055,1.392-0.983,1.305-1.418
	c-0.25-1.261-1.73-0.091-2.277-0.403c-0.841-0.481,0.989-1.373-0.182-2.023c-1.102,0.749-0.94,1.322-2.476,1.253
	c0.065-0.863,0.982-1.182,1.588-1.617c0.681-0.49,1.281-1.291,2.037-1.662c0.787-0.387,1.771-0.031,2.569-0.344
	c0.376-0.146,0.604-0.572,0.768-0.648c0.428-0.2,0.809-0.137,1.266-0.288c1.927-0.63,3.652-2.326,5.784-2.277
	c1.804,0.042,3.445,0.507,5.243-0.345c1.036-0.491,1.071-1.424,1.848-1.987c0.506-0.366,1.854-0.129,2.545-0.024
	c1.084,0.166,3.108,0.951,3.989,1.58c1.095,0.78,1.106,2.369,2.196,3.373c1.299,1.196,2.987,1.207,4.387,2.248
	c0.461,0.342,0.84,0.803,1.312,1.125c0.678,0.463,1.614,0.549,2.257,1.071c0.457,0.371,0.605,0.97,1.062,1.337
	c0.535,0.434,1.395,0.618,2.022,0.74c0.024,0.434-0.252,0.777-0.394,1.15c0.989-0.315,1.565-1.069,2.148-1.893
	c0.207-0.292,0.689-0.851,0.723-1.201c0.08-0.808-0.235-0.353-0.541-0.938c-0.418-0.805,0.033-1.506-0.451-2.354
	c-0.256-0.453-0.754-0.683-1.041-1.097c-0.299-0.435-0.26-0.86-0.481-1.261c-0.591-1.068-1.86-2.201-2.838-2.918
	c-1.263-0.926-1.839-2.45-3.108-3.299c-1.365-0.91-2.858-1.597-4.091-2.775c-1.295-1.24-1.256-3.071-1.071-4.742
	c0.232-2.096,0.967-3.081,2.084-4.789c0.941-1.435,0.89-3.438,1.715-4.82c0.414-0.691,1.16-0.848,1.791-1.201
	c0.968-0.547,1.219-1.03,1.586-2.038c0.316-0.875,0.635-1.94,1.52-2.459c0.79-0.466,1.428-0.099,2.112-0.67
	c0.63-0.526,2.233-2.528,1.288-3.173c-0.6,0.149-0.723,0.875-1.254,1.242c-0.572,0.398-1.426,0.392-2.019,0.655
	c-0.161-1.437,1.851-0.746,2.128-1.8c0.422-1.615-2.201-0.678-2.884-0.664c0.435-1.155,1.554-0.688,2.452-0.734
	c1.548-0.08,0.626-0.849-0.244-1.58c-0.602-0.504-1.453-1.19-2.22-1.447c-0.793-0.267-1.437,0.104-2.232-0.206
	c0.097-0.14,0.14-0.476,0.294-0.624c-0.589-0.387-1.369-0.1-2.024-0.313c-0.569-0.186-0.931-0.625-1.451-0.856
	c0.459-1.01,1.61,0.039,2.306-0.924c0.387,0.188,1.166,0.682,1.419,0.834c0.195,0.121,0.464,0.129,0.704,0.295
	c0.074,0.052,0.27,0.709,0.365,0.847c1.094,0.101,0.814-1.872,0.654-2.472c-0.369-1.379-1.455-2.869-2.4-3.94
	c0.718-1.009,1.879,0.085,2.457,0.717c-0.089-2.151,1.727-4.8-1.152-5.448c1.067-0.844,2.35-0.858,3.441-1.584
	c0.822-0.545,2.654-1.488,3.175-2.25c-0.88-0.887-5.106,0.815-5.42,1.781c-1.021-1.566,2.627-2.322,3.426-2.722
	c1.158-0.579,2.63-1.538,3.484-2.476c-0.063,0.258,0.006,0.582-0.068,0.83c1.168,0.205,1.283-0.729,1.991-1.302
	c0.587-0.472,1.921-0.842,0.161-1.122c-1.087-0.172-1.38,0.822-2.174,0.817c-0.642-0.004-0.923-0.837-1.804-0.749
	c0.184-0.65,0.539-1.162,0.94-1.678c-1.356-0.198-1.381,0.168-1.163-1.437c0.096-0.707,0.039-1.178,0.428-1.69
	c0.209-0.277,0.676-0.381,0.879-0.72c0.527-0.878-0.334-1.53,0.623-1.741c0.299-0.065,0.562,0.309,0.932,0.187
	c0.607-0.202,0.934-1.209,1.281-1.681c0.502-0.683,1.19-1.202,1.637-1.933c0.33-0.538,0.509-0.812,0.943-1.312
	c0.355-0.41,0.836-0.53,0.569-1.157c0.831-0.332,1.163-0.503,1.83-1.172c0.42-0.421,0.95-1.073,1.454-1.272
	c0.014,0.178,0.127,0.332,0.148,0.508c0.593-0.076,1.307-0.801,1.895-0.525c-0.053,1.273-1.566,1.628-2.446,2.279
	c-0.907,0.675-1.36,1.799-1.161,2.953c0.032,0.193,1.916,0.867,2.178,0.938c0.818,0.222,1.406,0.201,2.08-0.343
	c1.041-0.837,1.496-2.524,0.664-3.655c0.506-0.396,1.137-0.487,1.696-0.908c0.64-0.478,1.104-1.149,1.71-1.661
	c0.501-0.423,1.184-0.766,1.581-1.336c0.328-0.471,0.624-1.509-0.38-1.203c0.29-1.209,3.475-1.732,2.654-3.481
	c-0.563-1.201-1.333,0.112-2.139,0.106c-0.916-0.009-1.119-1.76-2.013-1.262c-1.411,0.789,1.03,3.419-0.127,4.23
	c-0.348,0.244-0.894,0.123-1.287,0.24c-0.464,0.141-0.767,0.424-1.178,0.644c-0.792,0.424-1.668,0.649-2.569,0.649
	c-1.273-0.004-2.498-0.318-3.742-0.559c-0.742-0.143-2.267-0.029-2.774-0.723c-0.351-0.481,0.422-1.733-0.492-1.854
	c-0.574-0.074-1.334,1.034-2.014,1.145c-0.427,0.068-1.561,0.218-1.915,0.066c0.463-1.592,3.16-1.211,3.666-2.955
	c0.283-0.987-1.049-1.101-1.749-1.306c-1.795-0.522-3.608,1.587-4.759,2.647c-0.492,0.457-1.066,0.81-1.584,1.244
	c-0.569,0.479-0.9,1.121-1.429,1.61c-0.461,0.425-1.087,0.522-1.545,0.941c-0.448,0.409-0.706,1.073-0.887,1.604
	c-0.199,0.591-0.747,4.009-1.558,3.357c-0.605-0.487,0.004-2.038,0.132-2.63c0.297-1.383,0.566-2.521,1.444-3.694
	c0.852-1.14,2.445-1.573,2.215-3.132c-0.129-0.864-0.24-0.951,0.438-1.664c0.395-0.417,0.845-0.939,1.346-1.249
	c2.04-1.257,4.308-2.065,6.641-2.626c1.516-0.364,3.052-1.067,4.5-1.686c1.906-0.816,2.537-1.369,3.213-3.319
	c0.56-1.617,2.046-2.556,2.888-4.073c1.231-2.225-1.106-2.816-2.917-3.614c-1.62-0.712-4.753-0.633-6.386,0.067
	c0.196-0.45,0.598-0.749,0.966-1.053c-0.58-1.08-3.175-0.118-4.09-0.004c-3.08,0.386-6.171-0.19-9.202-0.537
	c-1.909-0.217-3.886-0.969-5.683-1.713c-1.74-0.719-3.254-0.818-5.133-0.963c-1.8-0.138-3.436-0.611-5.141-0.862
	c-0.572-0.085-1.658-0.341-1.716,0.544c-0.027,0.421,0.866,1.261,1.043,1.711c1.09,2.762-2.056,3.868-4.146,4.181
	c-0.875,0.132-1.302-0.177-2.008-0.246c-0.761-0.073-1.396,0.694-2.059,0.677c-0.674-0.018-1.456-0.983-1.852-1.504
	c-0.351-0.461-0.665-1.873-1.15-2.037c-0.503-0.17-1.28,0.812-1.927,0.963c-0.427,0.1-0.796,0.058-1.205,0.19
	c-0.427,0.14-0.664,0.411-1.129,0.479c-0.693,0.1-1.754-0.248-2.597-0.24c-4.181,0.045-8.07,0.767-11.774,2.758
	c-1.533,0.824-4.125,1.119-1.715,2.917c0.34,0.255,0.916,0.406,1.183,0.75c0.092,0.118,0.345,0.196,0.407,0.344
	c0.094,0.224-0.392,0.621-0.313,0.73c0.405,0.553,1.187-0.139,1.914,0.238c1.57,0.812,0.196,2.053,0.687,3.162
	c0.48,1.078,3.094,1.026,4.047,1.094c1.955,0.138,4.17,0.058,5.018,2.16c0.923,2.298-1.757,5.26-3.627,6.36
	c-0.062-0.442,0.16-1.145-0.451-1.051c-0.462,0.072-0.74,0.926-0.72,1.315c0.043,0.822,1.438,0.9,2.376,1.257
	c1.958,0.746,2.773,2.696,4.887,3.042c-0.194,0.466-0.469,0.805-0.389,1.372c0.078,0.565,0.648,0.805,0.542,1.352
	c-0.367-0.114-0.731-0.307-1.025-0.587c-0.709,0.278-0.492,0.805-0.826,1.27c-0.512,0.722-0.799,0.635-1.714,0.643
	c-1.245,0.012-3.471,0.605-4.294-0.643c0.476-0.932,0.96-1.395-0.311-1.847c-0.677-0.239-2.214-0.082-2.687,0.562
	c0.336,0.52,1.054,0.457,1.606,0.556c-0.98,1.219-2.357,0.186-2.909-0.878c-0.309-0.59-0.276-0.958-0.806-1.418
	c-0.402-0.351-0.885-0.572-1.28-0.935c-1.062-0.972-1.515-1.107-2.921-0.512c-0.55,0.233-0.923,0.499-1.497,0.616
	c-2.088,0.423-4.085,1.37-6.294,1.844c-1.591,0.341-3.471,0.345-5.138,0.519c-3.708,0.382-7.318,0.877-10.84,1.787
	c-1.358,0.352-3.284,2.146-4.687,1.871c-1.305-0.258-1.709-2.789-3.339-3.028c-1.917-0.282-2.27,1.892-4.069,1.372
	c-0.432-0.126-1.008-0.194-1.267-0.616c-0.281-0.46,0.141-0.849-0.046-1.285c-0.529-1.244-1.407-0.083-2.211-0.124
	c-0.139-1.167,0.741-1.076,1.486-1.266c0.827-0.21,1.083-0.408,1.582-1.182c1.048-1.629,1.846-3.516,3.051-5.008
	c0.421-0.523,2.016-0.853,0.945-1.604c0.669-0.393,1.399-0.506,1.994-1.018c0.821-0.707,0.3-1.102,0.663-1.82
	c0.297-0.588,1.647-1.154,2.15-1.498c0.725-0.497,1.373-1.006,2.033-1.574c0.858-0.744,2.438-1.967,2.685-3.105
	c0.09-0.418-0.125-0.765-0.032-1.186c0.067-0.316,0.345-0.534,0.399-0.855c0.16-0.914-0.252-1.414-1.192-1.064
	c0.69-0.418,2.653-1.274,3.186-0.327c-1.172,0.663-0.426,1.947-0.255,2.916c0.188,1.052-0.427,2.069-0.706,3.171
	c0.884,0.01,1.381-1.004,2.126-1.375c1.077-0.537,0.96,0.051,1.848,0.401c0.933,0.368,1.232,0.071,1.822-0.722
	c0.466-0.629,0.991-1.084,1.445-1.634c0.533-0.643,0.319-1.084,1.098-1.472c0.724-0.362,1.667,0.176,2.25,0.007
	c0.636-0.185,1.172-1.194,1.842-1.485c0.783-0.34,1.825-0.27,2.452-0.774c-0.249-0.286-1.119-1.007-1.512-1.072
	c-0.864-0.14-1.37,0.835-2.032,0.972c-0.722,0.149-1.083-0.361-1.93-0.197c-0.804,0.158-1.537,0.548-2.339,0.687
	c-0.772,0.134-1.592-0.037-2.348,0.175c-0.808,0.226-1.477,0.877-2.369,0.922c0.207-0.57,0.786-1.353-0.184-1.479
	c0.827-0.504,2.151,0.261,3.158-0.346c-0.185-0.447-0.712-0.59-1.177-0.565c1.214-0.854,3.957-3.03,1.832-4.425
	c-0.458-0.303-0.821,0.068-1.075-0.557c-0.156-0.386,0.384-0.855,0.203-1.157c-0.408-0.675-2.122-0.218-2.757-0.257
	c0.444-0.885,2.733-0.34,3.533-1.264c-0.229-0.295-0.577-0.406-0.963-0.343c1.134-1.062,3.462-0.608,4.392-1.69
	c-0.538-0.582-1.573-0.198-2.252-0.129c1.11-0.953,2.96,0.064,4.273-0.218c1.236-0.264,2.362-0.667,3.628-0.813
	c-0.139,0.531-0.75,0.641-1.233,0.838c1.148,0.578,1.929-0.623,2.941-0.946c0.313,1.164-1.221,0.905-1.666,1.509
	c-0.573,0.775,0.201,1.924,0.936,2.114c0.796,0.206,2.797-0.538,3.24-1.258c0.623-1.011-0.487-1.273-0.874-2.039
	c1.019-0.191,1.331,0.761,2.451,0.328c1.404-0.539,0.506-0.695-0.384-1.101c0.815-0.293,2.923-0.195,3.467,0.453
	c0.889,1.061-1.393,2.243-1.009,2.86c0.32,0.516,1.566-0.354,2.002,0.002c0.854,0.701-1.479,1.366-1.936,1.528
	c-0.813,0.285-4.708,1.726-4.512,2.519c-0.796,0.253-1.345,1.106-0.309,1.531c0.572,0.233,1.976-0.322,2.575-0.429
	c0.85-0.149,2.047-0.205,2.789-0.728c0.302-0.213,0.368-0.565,0.633-0.776c0.45-0.358,0.914-0.406,1.396-0.646
	c0.259-0.128,0.796-0.61,1.045-0.671c0.418-0.104,0.751,0.167,1.207,0.219c0.842,0.098,1.66-0.593,2.463-0.518
	c0.326,0.031,0.6,0.424,0.934,0.464c0.5,0.06,0.798-0.138,1.311-0.267c1.144-0.287,2.18,0.092,3.322,0.036
	c1.56-0.075,2.855-0.937,4.382-1.081c1.919-0.181,3.653-0.217,5.471-0.746c0.516-0.151,1.812-0.244,2.17-0.722
	c0.669-0.889-0.449-1.38-1.187-1.423c-1.695-0.102-3.566,0.029-5.237,0.083c1.586-0.944,3.505-0.132,5.208-0.345
	c0.754-0.094,1.35-0.418,2.075-0.584c0.688-0.156,1.619,0.041,2.093-0.633c-0.648-0.632-1.671-0.154-2.431-0.469
	c-0.189-0.449,0.213-0.986-0.092-1.298c-0.423-0.431-1.127-0.165-1.638-0.158c-1.199,0.017-2.299-0.375-3.534-0.155
	c-1.814,0.321-5.126,0.918-6.623-0.323c0.762-1.183,3.321-0.619,4.593-0.616c1.763,0.004,3.307-0.673,4.908-1.307
	c-0.06-0.522-0.593-0.699-1.041-0.861c1.368-1.223-0.077-2.646-1.516-2.412c-0.885,0.143-1.64,0.68-2.461,1.02
	c-1.012,0.42-1.488,0.22-2.466,0.026c-0.609-0.12-1.533-0.364-2.141-0.325c-0.945,0.059-1.275,0.853-2.029,1.211
	c-1.698,0.811-3.775,0.476-5.567,0.357c0.289-0.402,0.831-0.473,1.127-0.789c-0.592-0.788-2.707,0.457-3.385,0.771
	c-0.033-0.545,0.637-0.95,0.956-1.313c-0.608-0.382-1.294,0.433-1.917,0.463c-0.712,0.034-1.04-0.567-1.783-0.421
	c-0.679,0.133-1.137,0.854-1.831,0.925c-0.388,0.04-0.428-0.229-0.804-0.161c-0.373,0.067-0.619,0.543-0.964,0.609
	c-0.179,0.034-0.36-0.268-0.64-0.229c-0.299,0.041-0.314,0.336-0.647,0.34c-0.227,0.003-0.415-0.299-0.636-0.342
	c-0.356-0.068-0.867,0.08-1.207,0.145c-1.419,0.268-2.692,1.343-4.176,1.137c-0.146-0.019-0.614-0.306-0.66-0.302
	c-0.592,0.05-0.968,0.867-1.375,1.243c0.029-0.242,0.115-0.557,0.093-0.842c-1.188-0.224-2.647,0.47-3.758,0.97
	c-0.579,0.26-1.339,0.456-1.846,0.862c-0.542,0.438-0.675,0.74-1.369,1.025c-0.556,0.229-1.19,0.426-1.669,0.76
	c-0.696,0.486-0.545,0.715-1.447,0.222c-0.624-0.341-0.878-0.436-1.641-0.337c-0.784,0.102-1.624,0.306-2.391,0.504
	c-0.668,0.173-4.096,1.253-3.327,2.406c-0.945,0.448-1.23,2.09-0.054,1.235c-0.132,0.224-0.253,0.515-0.303,0.759
	c0.75,0.141,1.489-0.554,2.15-0.294c-0.612,0.987-2.775,0.809-3.688,0.406c-0.795-0.351-1.116-0.815-0.48-1.61
	c0.334-0.416,1.599-0.744,0.808-1.224c-0.803-0.487-2.836,1.053-3.537,1.427c-1.087,0.579-2.514,1.743-2.873,2.993
	c-0.146,0.509-0.333,1.972,0.147,2.384c0.587,0.502,1.798-0.311,2.405-0.476c0.961-0.265,1.941-0.72,2.881-0.849
	c-0.28,0.841-2.263,0.934-2.927,1.429c0.363,0.696,3.376-0.099,4.065-0.241c0.65-0.133,1.403-0.078,2.003-0.415
	c0.642-0.36,0.972-0.599,1.683-0.792c1.335-0.365,2.145-1.58,3.538-2.084c0.522-0.188,1.727-0.482,0.967,0.341
	c-0.403,0.438-1.615,0.711-2.171,0.884c-0.412,0.127-1.355,0.252-1.606,0.703c-0.274,0.493,0.501,1.101,0.661,1.685
	c0.546,2-1.252,1.253-2.096,2.267c0.211,0.794,1.868,1.131-0.011,1.512c-0.434,0.088-0.91,0.075-1.365-0.002
	c-0.917-0.156-0.379-0.087-0.639-0.721c-0.383-0.933-1.807-1.029-2.736-0.725c-0.722,0.238-1.189,1.203-1.99,1.226
	c-0.32,0.011-0.769-0.353-1.148-0.382c-0.532-0.042-1.1,0.133-1.6,0.296c-0.611,0.2-2.178,1.522-2.657,0.868
	c0.141-0.477,0.391-0.809,0.878-0.984c-0.649-0.882-1.992-0.236-2.817-0.598c-0.382-0.167-0.587-0.578-1.023-0.594
	c-0.516-0.016-1.022,0.457-1.515,0.56c-0.138-0.761,0.272-1.137-0.001-1.901c0.414-0.387,1.217-0.478,1.754-0.797
	c0.669-0.397,1.244-0.9,1.83-1.41c0.27-0.233,1.366-0.918,1.448-1.278c0.217-0.968-1.086-0.611-1.511-0.403
	c-1.539,0.753-2.862,1.455-4.48,1.963c-1.217,0.383-2.549,1.034-2.668,2.471c-0.098,1.203,1.324,1.254,0.747,2.349
	c-0.329,0.621-1.997,1.716-1.13,2.455c0.173,0.146,0.604-0.004,0.79,0.155c0.207,0.178,0.112,0.379,0.239,0.582
	c0.296,0.472,0.386,0.771,1.122,0.725c1.112-0.071,1.745-1.135,2.959-1.032c-0.005,0.288-0.184,0.558-0.376,0.771
	c0.423,0.274,1.063,0.174,0.811,0.766c-0.153,0.364-1.018,0.583-1.305,0.859c-0.438,0.418-1.185,1.711-0.735,2.229
	c-0.233,0.214-0.561,0.423-0.876,0.479c-0.587,0.106-0.371,0.252-0.556-0.297c-0.215-0.641,0.174-1.457-0.956-0.975
	c0.182-1.011,1.564-1.054,0.372-1.82c-0.998-0.64-1.633,0.106-2.692,0.482c-0.982,0.348-1.483,0.872-2.247,1.609
	c-1.129,1.087-0.392,0.814,0.775,0.712c-0.304,0.715-1.985,1.694-0.642,2.018c-0.709,0.611-1.926,1.192-2.794,1.476
	c-1.356,0.44-2.692,0.943-4.007,1.496c-0.998,0.42-4.321,2.203-5.249,1.346c0.173-0.139,0.253-0.326,0.484-0.422
	c-0.897-0.783-4.241,0.341-5.192,0.924c-0.83,0.51-1.475,1.372-2.106,2.066c-0.715,0.789-0.928,1.385,0.31,1.379
	c-0.108,0.678-0.811,1.106-1.358,1.398c-0.258-0.506,0.237-1.016-0.26-1.479c-0.544,0.26-0.299,0.867-0.683,1.182
	c-0.377-1.014-1.085-0.416-1.785,0.109c-0.869,0.649-1.663,1.464-2.588,2.05c-0.747,0.473-1.653,0.895-2.473,1.224
	c-0.817,0.329-1.559-0.009-2.331,0.288c-0.023-0.015-0.038-0.036-0.048-0.063c0.482-0.445,1.759-0.416,1.819-1.107
	c0.076-0.875-1.201-0.906-1.769-0.884c-0.966,0.038-1.084,0.427-1.766,0.907c-0.386,0.272-0.91,0.25-1.339,0.408
	c-0.545,0.2-0.708,0.51-1.16,0.799c-0.975,0.625-2.3,0.689-3.39,1.047c-1.171,0.385-2.454,0.526-3.584,1.016
	c-0.898,0.389-1.885,1.066-2.818,1.249c-0.013-0.015-0.028-0.028-0.043-0.041c0.421-0.522,1.664-1.445,0.914-2.16
	c-1.268,0.459-1.759,1.824-2.797,2.568c-0.76-0.237-0.626-1.138-1.286-1.296c-0.758-0.18-0.939,0.681-1.299,1.106
	c-0.838,0.99-1.92,1.902-3.04,2.642c0.047-0.25,0.761-1.03,0.715-1.174c-0.169-0.533-1.03,0.258-1.252,0.418
	c-0.859,0.617-1.739,1.187-2.531,1.89c-0.39,0.346-0.753,0.634-1.167,0.924c-0.22,0.151-0.22,0.412-0.5,0.465
	c-0.177,0.034-0.192-0.421-0.394-0.415c-0.556,0.016-1.02,0.549-1.371,0.915c-0.235,0.242-0.48,0.509-0.671,0.786
	c-0.261,0.375-0.211,0.528-0.328,0.818c-0.255,0.637-0.38,1.039-1.166,1.056c-0.758,0.017-1.829-0.515-0.975-1.222
	c-0.49-0.156-0.818,0.152-1.272,0.324c-0.545,0.205-0.806,0.071-1.309,0.08c-0.503,0.006-0.639,0.002-1.088,0.383
	c-0.328,0.277-0.544,0.832-1,0.414c-1.533,0.506-2.489-0.634-3.561,0.884c-1.179,1.67-2.352,3.354-3.507,5.042
	c-0.709,1.035-1.114,2.242-2.048,3.156c-0.891,0.873-1.564,1.77-2.208,2.854c-0.654,1.102-1.422,2.134-2.087,3.23
	c-0.725,1.195-1.239,2.498-1.97,3.698c-0.763,1.255-1.72,2.361-2.348,3.69c-0.653,1.379-1.437,2.551-2.351,3.759
	c-1.088,1.437-1.589,3.101-2.387,4.678c-0.774,1.529-1.769,3.249-2.41,4.653"/>
<circle fill="none" stroke="#4D94C6" stroke-width="21" stroke-miterlimit="10" cx="200.36" cy="200.36" r="189.86"/>
</svg>
