<?xml version="1.0" encoding="utf-8"?>
<!-- Generator: Adobe Illustrator 19.1.0, SVG Export Plug-In . SVG Version: 6.00 Build 0)  -->
<svg version="1.1" id="Layer_1" xmlns="http://www.w3.org/2000/svg" xmlns:xlink="http://www.w3.org/1999/xlink" x="0px" y="0px"
	 viewBox="-218.1 -52.5 262.1 252.1" style="enable-background:new -218.1 -52.5 262.1 252.1;" xml:space="preserve">
<style type="text/css">
	.st0{fill:#918E8E;}
</style>
<g>
	<g>
		<g>
			<path class="st0" d="M-126,173.5c0,14.4-11.7,26-26,26c-14.4,0-26-11.7-26-26s11.7-26,26-26C-137.6,147.5-126,159.2-126,173.5"/>
			<path class="st0" d="M-61-26.5c0,14.4-11.7,26-26,26c-14.4,0-26-11.7-26-26s11.7-26,26-26S-61-40.8-61-26.5"/>
			<path class="st0" d="M-166,50.5c0,14.4-11.7,26-26,26c-14.4,0-26-11.7-26-26s11.7-26,26-26C-177.6,24.5-166,36.2-166,50.5"/>
			<path class="st0" d="M4,173.5c0,14.4-11.7,26-26,26c-14.4,0-26-11.7-26-26s11.7-26,26-26C-7.6,147.5,4,159.2,4,173.5"/>
			<path class="st0" d="M44,50.5c0,14.4-11.7,26-26,26c-14.4,0-26-11.7-26-26s11.7-26,26-26C32.4,24.5,44,36.2,44,50.5"/>
			<path class="st0" d="M-18.2,177h-138.2l0.4-3.9c0.1-0.6,6.4-64.2-39-120.4l-3.4-4.2l5.2-1.4c65.7-18,102.7-74.9,103.1-75.5
				l3.2-4.9l2.9,5.1c0.3,0.6,31.9,55.9,102.9,75.3l5.9,1.6L20.4,53c-45.2,43.8-39,119.4-38.9,120.2L-18.2,177L-18.2,177z
				 M-148.7,170h123c-0.3-6.9-0.5-22.5,2.6-41.5c3.6-22,12.6-52.6,34.4-76.2C-24.3,41.3-49.5,21.8-64.6,7
				c-11.6-11.3-19-21.5-22.7-27.1c-10.1,13.9-43.9,55.6-99,72.5c22.3,29.4,31.4,59.9,35,80.8C-148.3,150.4-148.4,163.7-148.7,170
				L-148.7,170z"/>
			<path class="st0" d="M-2.8,196.4l-23.1-24.6C-51.6,144.4-69,126-85.8,111.2c-25.3,19.3-46.8,40.9-63.9,64.3l-5.7-4.1
				c17.3-23.7,31.5-50.9,42.3-80.8c-19-12.2-41.9-22.7-80.5-36.8l2.2-6.6c27.3,8.3,56.7,13.1,87.4,14.1c13-48.2,13.2-86,13.1-87.6
				v-0.2l7,0l0,0.2c0,1.4,0.4,33.4,17.9,87.1c27.2-1.7,54.1-6,80.1-12.9c2-0.5,2.5-0.7,3-0.7l0.6,0h2.9l0.5,2.9
				c0.5,2.9-1.8,3.8-4.5,4.8C-7.9,64-32.2,75.9-55.2,90.2c10.4,26.7,23.5,54.2,38.7,81.7L-2.8,196.4L-2.8,196.4z M-80.1,107
				c13.4,11.9,27.6,26.5,45.2,45.1c-10-19.6-18.8-39-26.3-58.1C-67.7,98.2-74,102.5-80.1,107L-80.1,107z M-107,94.6
				c-5.4,14.7-11.6,28.8-18.6,42.1c10.5-10.5,22-20.6,34.3-30.1C-96.5,102.2-101.7,98.3-107,94.6L-107,94.6z M-104.6,87.8
				c6.4,4.4,12.7,9.1,19.1,14.5c7-5.2,14.3-10.2,21.8-15c-2.5-6.5-4.8-12.9-6.9-19.3c-6.7,0.3-13.4,0.5-20.1,0.5c0,0,0,0,0,0
				c-2.6,0-5.2,0-7.8-0.1C-100.4,75-102.4,81.4-104.6,87.8L-104.6,87.8z M-148.4,64.1c15.1,6.6,27.1,12.9,37.8,19.7
				c1.7-5.1,3.4-10.3,4.9-15.6C-120.3,67.7-134.5,66.3-148.4,64.1L-148.4,64.1z M-63.4,67.6c1.8,5.3,3.7,10.6,5.7,15.9
				c12.7-7.8,25.8-14.9,39.1-21.3C-33.4,64.8-48.4,66.6-63.4,67.6L-63.4,67.6z M-96.6,61.5c1.9,0,3.9,0,5.8,0c0,0,0,0,0,0
				c5.9,0,11.8-0.1,17.8-0.4c-6.6-20.6-10.8-38-13.4-51.7C-88.2,23.8-91.3,41.7-96.6,61.5L-96.6,61.5z"/>
		</g>
	</g>
</g>
</svg>
