<?xml version="1.0" encoding="utf-8"?>
<!-- Generator: Adobe Illustrator 19.1.0, SVG Export Plug-In . SVG Version: 6.00 Build 0)  -->
<svg version="1.1" id="Layer_1" xmlns="http://www.w3.org/2000/svg" xmlns:xlink="http://www.w3.org/1999/xlink" x="0px" y="0px"
	 viewBox="-567 -25.7 389.7 389.7" style="enable-background:new -567 -25.7 389.7 389.7;" xml:space="preserve">
<style type="text/css">
	.st0{fill:#918E8E;}
</style>
<path class="st0" d="M-372.1,364C-479.5,364-567,276.6-567,169.1s87.4-194.8,194.9-194.8s194.8,87.4,194.8,194.9
	S-264.7,364-372.1,364L-372.1,364z M-372.1-15.7c-102,0-184.9,82.9-184.9,184.9s82.9,184.9,184.9,184.9s184.8-83,184.8-184.9
	S-270.2-15.7-372.1-15.7L-372.1-15.7z"/>
<rect x="-473.3" y="92.3" class="st0" width="94" height="44"/>
<rect x="-368.3" y="92.3" class="st0" width="94" height="44"/>
<rect x="-473.3" y="146.3" class="st0" width="94" height="44"/>
<rect x="-368.3" y="146.3" class="st0" width="94" height="44"/>
<rect x="-473.3" y="200.3" class="st0" width="94" height="44"/>
<rect x="-368.3" y="200.3" class="st0" width="94" height="44"/>
</svg>
