<?xml version="1.0" encoding="utf-8"?>
<!-- Generator: Adobe Illustrator 19.1.0, SVG Export Plug-In . SVG Version: 6.00 Build 0)  -->
<svg version="1.1" id="Layer_1" xmlns="http://www.w3.org/2000/svg" xmlns:xlink="http://www.w3.org/1999/xlink" x="0px" y="0px"
	 viewBox="-396 -111 387.8 387.7" style="enable-background:new -396 -111 387.8 387.7;" xml:space="preserve">
<g>
	<g>
		<g>
			<path d="M-202.1,276.7c-106.9,0-193.9-87-193.9-193.9C-396-24-309-111-202.1-111S-8.2-24-8.2,82.9
				C-8.3,189.8-95.2,276.7-202.1,276.7L-202.1,276.7z M-202.1-103C-304.6-103-388-19.6-388,82.9s83.4,185.9,185.9,185.9
				S-16.2,185.4-16.2,82.9C-16.3-19.6-99.7-103-202.1-103L-202.1-103z"/>
		</g>
	</g>
</g>
<g>
	<path d="M-256.3-21.7c13.8-14.7,32.8-22.1,56.9-22.1c22.3,0,40.2,6.3,53.6,18.9c13.4,12.6,20.1,28.7,20.1,48.3
		c0,11.9-2.4,21.5-7.3,28.9c-4.9,7.4-14.8,18.2-29.9,32.6c-11,10.4-18.1,19.2-21.4,26.4c-3.3,7.2-5,17.9-5,32h-29.8
		c0-16,1.9-28.9,5.7-38.7s12.3-21,25.4-33.6l13.7-13.3c4.1-3.8,7.4-7.8,10-11.9c4.6-7.3,7-14.8,7-22.7c0-11-3.3-20.5-10-28.5
		c-6.7-8.1-17.7-12.1-33.2-12.1c-19.1,0-32.3,6.9-39.6,20.8c-4.1,7.7-6.5,18.9-7,33.4H-277C-277,12.5-270.1-6.9-256.3-21.7z
		 M-219.8,171.1h33.4V206h-33.4V171.1z"/>
</g>
</svg>
