<?xml version="1.0" encoding="utf-8"?>
<!-- Generator: Adobe Illustrator 19.1.0, SVG Export Plug-In . SVG Version: 6.00 Build 0)  -->
<svg version="1.1" id="Layer_1" xmlns="http://www.w3.org/2000/svg" xmlns:xlink="http://www.w3.org/1999/xlink" x="0px" y="0px"
	 viewBox="-606 320 178 178" style="enable-background:new -606 320 178 178;" xml:space="preserve">
<path d="M-517,320c-49.2,0-89,39.8-89,89s39.8,89,89,89s89-39.8,89-89S-467.8,320-517,320z M-517,486.9c-43,0-77.9-34.9-77.9-77.9
	s34.9-77.9,77.9-77.9s77.9,34.9,77.9,77.9S-474,486.9-517,486.9z"/>
<path d="M-527.8,396.7c1.2-3.2-0.3-4.8-1.8-4.8c-6.5,0-14.9,15.3-18,15.3c-1.2,0-2.3-1.2-2.3-2.3c0-3.2,7.7-10.6,10-12.9
	c7-6.7,16.1-11.8,26.3-11.8c7.5,0,15.6,4.6,9.3,21.7l-12.6,34.4c-1,2.6-3,7.1-3,9.9c0,1.2,0.7,2.5,2.1,2.5c5.3,0,14.9-15,17.4-15
	c0.9,0,2.1,1.1,2.1,2.6c0,5.1-20.5,27-38.2,27c-6.3,0-10.7-3-10.7-9.7c0-8.5,6-22.9,7.2-25.9L-527.8,396.7z M-518.3,361.9
	c0-7.8,6.7-14.1,14.4-14.1c7,0,12.1,4.8,12.1,12c0,8.1-6.7,14.1-14.5,14.1C-513.6,373.9-518.3,369.2-518.3,361.9z"/>
</svg>
