<?xml version="1.0" encoding="utf-8"?>
<!-- Generator: Adobe Illustrator 19.1.0, SVG Export Plug-In . SVG Version: 6.00 Build 0)  -->
<svg version="1.1" id="Layer_1" xmlns="http://www.w3.org/2000/svg" xmlns:xlink="http://www.w3.org/1999/xlink" x="0px" y="0px"
	 viewBox="-467.5 260.5 20 39.9" style="enable-background:new -467.5 260.5 20 39.9;" xml:space="preserve">
<path d="M-459.9,277.4c0.4-1.1-0.1-1.6-0.6-1.6c-2.2,0-5.1,5.3-6.2,5.3c-0.4,0-0.8-0.4-0.8-0.8c0-1.1,2.7-3.7,3.5-4.4
	c2.4-2.3,5.6-4.1,9.1-4.1c2.6,0,5.4,1.6,3.2,7.5l-4.4,11.9c-0.4,0.9-1,2.4-1,3.4c0,0.4,0.2,0.9,0.7,0.9c1.8,0,5.1-5.2,6-5.2
	c0.3,0,0.7,0.4,0.7,0.9c0,1.8-7.1,9.3-13.2,9.3c-2.2,0-3.7-1-3.7-3.3c0-2.9,2.1-7.9,2.5-9L-459.9,277.4z M-456.6,265.4
	c0-2.7,2.3-4.9,5-4.9c2.4,0,4.2,1.6,4.2,4.1c0,2.8-2.3,4.9-5,4.9C-455,269.5-456.6,267.9-456.6,265.4z"/>
</svg>
