<?xml version="1.0" encoding="utf-8"?>
<!-- Generator: Adobe Illustrator 19.1.0, SVG Export Plug-In . SVG Version: 6.00 Build 0)  -->
<svg version="1.1" id="Layer_1" xmlns="http://www.w3.org/2000/svg" xmlns:xlink="http://www.w3.org/1999/xlink" x="0px" y="0px"
	 viewBox="-470 272 18 18" enable-background="new -470 272 18 18" xml:space="preserve">
<path fill="#ED1C24" d="M-459.6,272.6L-459.6,272.6c0.8,0.8,0.8,2,0,2.8c-0.8,0.8-2,0.8-2.8,0c-0.8-0.8-0.8-2,0-2.8
	C-461.6,271.8-460.4,271.8-459.6,272.6z M-456.1,276.1L-456.1,276.1c0.8,0.8,0.8,2,0,2.8c-0.8,0.8-2,0.8-2.8,0c-0.8-0.8-0.8-2,0-2.8
	C-458.1,275.3-456.9,275.3-456.1,276.1z M-452.6,279.6L-452.6,279.6c0.8,0.8,0.8,2,0,2.8c-0.8,0.8-2,0.8-2.8,0c-0.8-0.8-0.8-2,0-2.8
	C-454.6,278.8-453.4,278.8-452.6,279.6z M-463.1,276.1L-463.1,276.1c0.8,0.8,0.8,2,0,2.8c-0.8,0.8-2,0.8-2.8,0c-0.8-0.8-0.8-2,0-2.8
	C-465.1,275.3-463.9,275.3-463.1,276.1z M-459.6,279.6L-459.6,279.6c0.8,0.8,0.8,2,0,2.8c-0.8,0.8-2,0.8-2.8,0c-0.8-0.8-0.8-2,0-2.8
	C-461.6,278.8-460.4,278.8-459.6,279.6z M-456.1,283.1L-456.1,283.1c0.8,0.8,0.8,2,0,2.8c-0.8,0.8-2,0.8-2.8,0c-0.8-0.8-0.8-2,0-2.8
	C-458.1,282.3-456.9,282.3-456.1,283.1z M-466.6,279.6L-466.6,279.6c0.8,0.8,0.8,2,0,2.8c-0.8,0.8-2,0.8-2.8,0c-0.8-0.8-0.8-2,0-2.8
	C-468.6,278.8-467.4,278.8-466.6,279.6z M-463.1,283.1L-463.1,283.1c0.8,0.8,0.8,2,0,2.8c-0.8,0.8-2,0.8-2.8,0c-0.8-0.8-0.8-2,0-2.8
	C-465.1,282.3-463.9,282.3-463.1,283.1z M-459.6,286.6L-459.6,286.6c0.8,0.8,0.8,2,0,2.8c-0.8,0.8-2,0.8-2.8,0c-0.8-0.8-0.8-2,0-2.8
	C-461.6,285.8-460.4,285.8-459.6,286.6z"/>
</svg>
