<?xml version="1.0" encoding="utf-8"?>
<!-- Generator: Adobe Illustrator 19.1.0, SVG Export Plug-In . SVG Version: 6.00 Build 0)  -->
<svg version="1.1" id="Layer_1" xmlns="http://www.w3.org/2000/svg" xmlns:xlink="http://www.w3.org/1999/xlink" x="0px" y="0px"
	 viewBox="-396 -112 387.8 387.7" style="enable-background:new -396 -112 387.8 387.7;" xml:space="preserve">
<path d="M-202.1,275.7c-106.9,0-193.9-87-193.9-193.9C-396-25-309-112-202.1-112S-8.2-25-8.2,81.9
	C-8.3,188.8-95.2,275.7-202.1,275.7L-202.1,275.7z M-202.1-104C-304.6-104-388-20.6-388,81.9s83.4,185.9,185.9,185.9
	S-16.2,184.4-16.2,81.9C-16.3-20.6-99.7-104-202.1-104L-202.1-104z"/>
<rect x="-315.1" y="33.5" width="220.4" height="34.3"/>
<rect x="-315.1" y="89" width="251.4" height="34.3"/>
<rect x="-315.1" y="142.8" width="156.7" height="34.3"/>
<rect x="-315.1" y="-18.8" width="58.8" height="34.3"/>
</svg>
