<?xml version="1.0" encoding="utf-8"?>
<!-- Generator: Adobe Illustrator 14.0.0, SVG Export Plug-In  -->
<!DOCTYPE svg PUBLIC "-//W3C//DTD SVG 1.1//EN" "http://www.w3.org/Graphics/SVG/1.1/DTD/svg11.dtd" [
	<!ENTITY ns_flows "http://ns.adobe.com/Flows/1.0/">
]>
<svg version="1.1"
	 xmlns="http://www.w3.org/2000/svg" xmlns:xlink="http://www.w3.org/1999/xlink" xmlns:a="http://ns.adobe.com/AdobeSVGViewerExtensions/3.0/"
	 x="0px" y="0px" width="94px" height="140px" viewBox="-0.992 -0.498 94 140" enable-background="new -0.992 -0.498 94 140"
	 xml:space="preserve">
<defs>
</defs>
<path fill="#878787" d="M64.549,101.793c-0.05-5.098-2.299-8.519,0-11.124c2.732-3.095,6.162-11.424,7.417-18.542
	c0.499-2.831,7.321-3.791,7.417-11.125c3.363-3.657-0.02-10.261,0-14.833c0.048-11.354,1.264-22.196-3.709-29.667
	c-14.71-22.102-44.126-21.903-59.333,0c-4.66,6.712-3.736,18.268-3.708,29.667c0.011,4.678-3.949,10.948,0,14.833
	c0,7.37,6.488,7.097,7.416,11.125c1.665,7.223,3.703,14.847,7.417,18.542c3.636,3.617,0.05,6.026,0,11.124
	C27.297,119.057,9.537,122.966,0,123.823c12.892,9.458,28.793,15.055,46.008,15.055s33.116-5.597,46.008-15.055
	C82.479,122.966,64.719,119.057,64.549,101.793z"/>
</svg>
