<?xml version="1.0" encoding="utf-8"?>
<!-- Generator: Adobe Illustrator 19.1.0, SVG Export Plug-In . SVG Version: 6.00 Build 0)  -->
<svg version="1.1" id="Layer_1" xmlns="http://www.w3.org/2000/svg" xmlns:xlink="http://www.w3.org/1999/xlink" x="0px" y="0px"
	 viewBox="-818.9 459.2 150.9 51.8" style="enable-background:new -818.9 459.2 150.9 51.8;" xml:space="preserve">
<style type="text/css">
	.st0{fill:#666766;}
</style>
<path class="st0" d="M-782.3,476.2l-17.9,15.9c0.5,0.4,0.9,0.9,1.3,1.5l17.9-15.9C-781.4,477.3-781.9,476.8-782.3,476.2z"/>
<path class="st0" d="M-749.8,492.1l-17.9-15.9c-0.4,0.5-0.8,1-1.3,1.5l17.9,15.9C-750.8,493.1-750.3,492.6-749.8,492.1z"/>
<path class="st0" d="M-687.7,492.1l-17.8-15.9c-0.4,0.5-0.8,1-1.3,1.5l17.8,15.8C-688.7,493-688.2,492.5-687.7,492.1z"/>
<path class="st0" d="M-720.1,476.2l-17.9,15.9c0.5,0.4,0.9,0.9,1.3,1.5l17.9-15.9C-719.3,477.3-719.7,476.8-720.1,476.2z"/>
<text transform="matrix(1 0 0 1 -338.8849 739.2)" style="font-family:'MyriadPro-Regular'; font-size:12px;">            .col-xs-8</text>
<text transform="matrix(1 0 0 1 -338.8849 739.2)" style="font-family:'MyriadPro-Regular'; font-size:12px;">            .col-xs-8</text>
<text transform="matrix(1 0 0 1 -338.8849 739.2)" style="font-family:'MyriadPro-Regular'; font-size:12px;">            .col-xs-8</text>
<g id="XMLID_5_">
	<path class="st0" d="M-806.8,509.4c-5.5,0-9.9-4.4-9.9-9.9s4.4-9.9,9.9-9.9s9.9,4.4,9.9,9.9S-801.3,509.4-806.8,509.4z"/>
</g>
<g id="XMLID_6_">
	<path class="st0" d="M-775.3,481c-5.5,0-9.9-4.4-9.9-9.9s4.4-9.9,9.9-9.9s9.9,4.4,9.9,9.9S-769.8,481-775.3,481z"/>
</g>
<g id="XMLID_1_">
	<path class="st0" d="M-743.9,508.7c-5.5,0-9.9-4.4-9.9-9.9s4.4-9.9,9.9-9.9s9.9,4.4,9.9,9.9S-738.4,508.7-743.9,508.7z"/>
</g>
<g id="XMLID_7_">
	<path class="st0" d="M-712.8,481c-5.5,0-9.9-4.4-9.9-9.9s4.4-9.9,9.9-9.9s9.9,4.4,9.9,9.9S-707.3,481-712.8,481z"/>
</g>
<g id="XMLID_8_">
	<path class="st0" d="M-681.7,508.7c-5.5,0-9.9-4.4-9.9-9.9s4.4-9.9,9.9-9.9s9.9,4.4,9.9,9.9S-676.3,508.7-681.7,508.7z"/>
</g>
</svg>
