<?xml version="1.0" encoding="utf-8"?>
<!-- Generator: Adobe Illustrator 19.1.0, SVG Export Plug-In . SVG Version: 6.00 Build 0)  -->
<svg version="1.1" id="Layer_1" xmlns="http://www.w3.org/2000/svg" xmlns:xlink="http://www.w3.org/1999/xlink" x="0px" y="0px"
	 viewBox="-390 102 178 178" style="enable-background:new -390 102 178 178;" xml:space="preserve">
<style type="text/css">
	.st0{fill:#878787;}
</style>
<path class="st0" d="M-301,102c-49.2,0-89,39.8-89,89c0,49.2,39.8,89,89,89c49.2,0,89-39.8,89-89C-212,141.8-251.8,102-301,102z
	 M-301,268.9c-43,0-77.9-34.9-77.9-77.9c0-43,34.9-77.9,77.9-77.9s77.9,34.9,77.9,77.9C-223.1,234-258,268.9-301,268.9z"/>
<path class="st0" d="M-282.5,232.8c-0.1-5.1-2.3-8.5,0-11.1c2.7-3.1,6.2-11.4,7.4-18.5c0.5-2.8,7.3-3.8,7.4-11.1
	c3.4-3.7,0-10.3,0-14.8c0-11.4,1.3-22.2-3.7-29.7c-14.7-22.1-44.1-21.9-59.3,0c-4.7,6.7-3.7,18.3-3.7,29.7c0,4.7-3.9,10.9,0,14.8
	c0,7.4,6.5,7.1,7.4,11.1c1.7,7.2,3.7,14.8,7.4,18.5c3.6,3.6,0,6,0,11.1c-0.2,17.3-17.9,21.2-27.5,22c12.9,9.5,28.8,15.1,46,15.1
	s33.1-5.6,46-15.1C-264.5,254-282.3,250.1-282.5,232.8z"/>
</svg>
