<?xml version="1.0" encoding="utf-8"?>
<!-- Generator: Adobe Illustrator 19.1.0, SVG Export Plug-In . SVG Version: 6.00 Build 0)  -->
<svg version="1.1" id="Layer_1" xmlns="http://www.w3.org/2000/svg" xmlns:xlink="http://www.w3.org/1999/xlink" x="0px" y="0px"
	 viewBox="-382 276 400.8 400.7" style="enable-background:new -382 276 400.8 400.7;" xml:space="preserve">
<path d="M-181.6,676.7c-110.5,0-200.4-89.9-200.4-200.4S-292.1,276-181.6,276S18.8,365.9,18.8,476.4S-71.2,676.7-181.6,676.7
	L-181.6,676.7z M-181.6,297c-98.9,0-179.4,80.5-179.4,179.4s80.5,179.3,179.4,179.3S-2.2,575.2-2.2,476.3
	C-2.3,377.5-82.7,297-181.6,297L-181.6,297z"/>
<path d="M-102.1,397.4c-20.7,0-39.3,8.9-52.3,23c-14-10-32.3-19.6-56-26.9c0.5-2.6,0.8-5.3,0.8-8c0-22.5-18.3-40.8-40.8-40.8
	s-40.8,18.3-40.8,40.8c0,13.6,6.7,25.6,16.9,33c-3.5,11.5-5.6,25.6-4.8,42.5l-12.9,1.9l22.8,28.6l13.4-34l-12.6,1.9
	c-0.6-14.1,1-25.9,3.9-35.8c4.4,1.6,9.2,2.6,14.1,2.6c15.9,0,29.7-9.1,36.4-22.5c22.3,6.9,39.5,16,52.6,25.4
	c-7.6,11.3-12,24.9-12,39.5c0,10.8,2.5,21,6.8,30.2c-16.5,12-32,19.3-45.4,23.8c-8-14.6-23.6-24.5-41.5-24.5
	c-26.2,0-47.5,21.3-47.5,47.5c0,26.2,21.3,47.5,47.5,47.5s47.5-21.3,47.5-47.5c0-4.4-0.6-8.7-1.8-12.7c13.9-4.7,29.7-12.3,46.6-24.5
	c12.8,18.9,34.5,31.4,59.1,31.4c39.3,0,71.2-31.9,71.2-71.2C-30.9,429.2-62.8,397.4-102.1,397.4z"/>
</svg>
