<?xml version="1.0" encoding="utf-8"?>
<!-- Generator: Adobe Illustrator 19.1.0, SVG Export Plug-In . SVG Version: 6.00 Build 0)  -->
<svg version="1.1" id="Layer_1" xmlns="http://www.w3.org/2000/svg" xmlns:xlink="http://www.w3.org/1999/xlink" x="0px" y="0px"
	 viewBox="0 0 512.5 352" enable-background="new 0 0 512.5 352" xml:space="preserve">
<path d="M112.5,128c61.9,0,112,50.1,112,112c0,61.9-50.1,112-112,112s-112-50.1-112-112L0,224C0,100.3,100.3,0,224,0v64
	c-42.7,0-82.9,16.6-113.1,46.9c-5.8,5.8-11.1,12-15.9,18.5C100.7,128.5,106.5,128,112.5,128z M400.5,128c61.9,0,112,50.1,112,112
	c0,61.9-50.1,112-112,112s-112-50.1-112-112l-0.5-16C288,100.3,388.3,0,512,0v64c-42.7,0-82.9,16.6-113.1,46.9
	c-5.8,5.8-11.1,12-15.9,18.5C388.7,128.5,394.5,128,400.5,128z"/>
</svg>
