<?xml version="1.0" encoding="utf-8"?>
<!-- Generator: Adobe Illustrator 19.1.0, SVG Export Plug-In . SVG Version: 6.00 Build 0)  -->
<svg version="1.1" id="Layer_1" xmlns="http://www.w3.org/2000/svg" xmlns:xlink="http://www.w3.org/1999/xlink" x="0px" y="0px"
	 viewBox="0 0 512.5 352" enable-background="new 0 0 512.5 352" xml:space="preserve">
<path d="M400,224c-61.9,0-112-50.1-112-112C288,50.1,338.1,0,400,0s112,50.1,112,112l0.5,16c0,123.7-100.3,224-224,224v-64
	c42.7,0,82.9-16.6,113.1-46.9c5.8-5.8,11.1-12,15.9-18.5C411.8,223.5,406,224,400,224z M112,224C50.1,224,0,173.9,0,112
	C0,50.1,50.1,0,112,0s112,50.1,112,112l0.5,16c0,123.7-100.3,224-224,224v-64c42.7,0,82.9-16.6,113.1-46.9
	c5.8-5.8,11.1-12,15.9-18.5C123.8,223.5,118,224,112,224z"/>
</svg>
