<?xml version="1.0" encoding="utf-8"?>
<!-- Generator: Adobe Illustrator 19.1.0, SVG Export Plug-In . SVG Version: 6.00 Build 0)  -->
<svg version="1.1" id="Layer_1" xmlns="http://www.w3.org/2000/svg" xmlns:xlink="http://www.w3.org/1999/xlink" x="0px" y="0px"
	 viewBox="-201.9 -33.5 240.1 254.1" style="enable-background:new -201.9 -33.5 240.1 254.1;" xml:space="preserve">
<style type="text/css">
	.st0{fill:#918E8E;}
</style>
<path class="st0" d="M12.1,88.5c-1,0-2,0.1-3,0.2c-2.3-5.3-5.4-11-9.5-16.9C4.9,67,8.2,60.2,8.2,52.6c0-14.4-11.7-26-26-26
	c-3.9,0-7.7,0.9-11,2.4C-34.2,21.7-41.5,13.1-51,5.2C-67-8-91.6-20.6-124-15.1c-3.3-10.6-13.2-18.4-24.9-18.4c-14.4,0-26,11.7-26,26
	s11.7,26,26,26c5.5,0,10.7-1.7,14.9-4.7l22.7,18.2c-1.7,3.5-2.7,7.4-2.7,11.5c0,1.8,0.2,3.6,0.6,5.4c-0.2,0-0.3,0.1-0.5,0.1
	c-17,4.3-38.6,14.4-54.8,37.5c-2.3-0.7-4.7-1-7.2-1c-14.4,0-26,11.7-26,26s11.7,26,26,26c2.6,0,5.1-0.4,7.5-1.1
	c3.4,6.2,8.1,13.5,14.4,20.6c10.5,12,27.1,25.2,51,30.4c-0.6,2.2-1,4.6-1,7c0,14.4,11.7,26,26,26c14.4,0,26-11.7,26-26
	c0-10.4-6.1-19.4-14.9-23.5c7.6-20.3,22.2-35.6,43.8-45.6c3.3-1.6,6.7-2.9,9.9-4c3,11,13.1,19.2,25.1,19.2c14.4,0,26-11.7,26-26
	C38.2,100.2,26.5,88.5,12.1,88.5z M2.2,90.5c-6.2,2.6-11.3,7.5-13.9,13.7c-15.7-1.4-29.3-6.8-40.7-16.2c6-6.9,12.1-12.4,17-16.3
	c4.6,4.2,10.8,6.8,17.6,6.8c4.2,0,8.2-1,11.7-2.8C-2.7,80.9,0.1,85.9,2.2,90.5z M-55.7,10.5c8.8,7.3,15.8,15.4,20.9,22.3
	c-5.6,4.8-9.1,11.9-9.1,19.8c0,5.1,1.5,9.8,4,13.8c-5.2,4.1-11.5,9.7-17.7,16.9c-3.1-3.1-6.1-6.6-8.8-10.4c-2.1-2.9-3.9-5.8-5.6-8.7
	c6.2-4.8,10.3-12.3,10.3-20.7c0-14.4-11.7-26-26-26c-6.9,0-13.2,2.7-17.9,7.1c-5.6-5.9-12.7-12-21.4-17.6c2.8-4.1,4.4-9.1,4.4-14.4
	c0-0.3,0-0.5,0-0.8C-98.6-12.5-76-6.2-55.7,10.5z M-83.4,169.1c-1.4,0.3-2.7,0.7-4,1.2c-19.4-19.6-27.1-43.7-22.9-72
	c1.9-12.7,5.9-23.9,9.6-32.1c3.8,2.1,8.2,3.4,12.8,3.4c3.4,0,6.7-0.7,9.7-1.9c1.7,3,3.6,6,5.8,9.1c2.8,3.9,6.2,8,10.2,11.9
	c-0.4,0.5-0.8,1-1.2,1.5C-75.8,107.1-88.4,133.6-83.4,169.1z M-148.5,152.7c-5.8-6.6-10.2-13.3-13.4-19.1c7.3-4.6,12.2-12.8,12.2-22
	c0-9.4-4.9-17.6-12.4-22.2c12.1-16.9,28.7-28.1,49.8-33.5c0.5-0.1,0.9-0.2,1.4-0.3c1.2,2.3,2.7,4.4,4.6,6.3c-4,8.6-8.6,21-10.7,35.2
	c-3.3,21.6-1.1,51,23.5,76.9c-2.6,2-4.8,4.4-6.4,7.2C-118.9,177.3-135.1,167.9-148.5,152.7z M-25.7,119c-17.4,8-37.5,22.9-47.7,49.9
	c-1-0.2-2-0.3-3.1-0.4c-4.1-27,2.2-51.8,18.6-73.9c0.3-0.4,0.6-0.8,0.9-1.2c10.5,8.6,24.6,15.8,43.2,17.7c-0.1,1.1-0.2,2.2-0.2,3.3
	C-17.7,115.6-21.7,117.2-25.7,119z"/>
</svg>
