<?xml version="1.0" encoding="utf-8"?>
<!-- Generator: Adobe Illustrator 19.1.0, SVG Export Plug-In . SVG Version: 6.00 Build 0)  -->
<svg version="1.1" id="Layer_1" xmlns="http://www.w3.org/2000/svg" xmlns:xlink="http://www.w3.org/1999/xlink" x="0px" y="0px"
	 viewBox="-384 276 400.8 400.7" style="enable-background:new -384 276 400.8 400.7;" xml:space="preserve">
<path d="M-183.6,676.7c-110.5,0-200.4-89.9-200.4-200.4S-294.1,276-183.6,276S16.8,365.9,16.8,476.4S-73.2,676.7-183.6,676.7
	L-183.6,676.7z M-183.6,297c-98.9,0-179.4,80.5-179.4,179.4s80.5,179.3,179.4,179.3S-4.2,575.2-4.2,476.3
	C-4.3,377.5-84.7,297-183.6,297L-183.6,297z"/>
<path d="M-168.3,514.3c0,14.7-11.9,26.6-26.6,26.6s-26.6-11.9-26.6-26.6s11.9-26.6,26.6-26.6C-180.2,487.7-168.3,499.6-168.3,514.3"
	/>
<path d="M-147.9,452c0,14.7-11.9,26.6-26.6,26.6c-14.6,0-26.5-11.9-26.5-26.6s11.9-26.6,26.6-26.6
	C-159.8,425.4-147.9,437.3-147.9,452"/>
<path d="M-247.9,563.3c0,14.7-11.9,26.6-26.6,26.6c-14.7,0-26.6-11.9-26.6-26.6s11.9-26.6,26.6-26.6
	C-259.8,536.7-247.9,548.6-247.9,563.3"/>
<path d="M-227.5,501c0,14.7-11.9,26.6-26.6,26.6c-14.7,0-26.6-11.9-26.6-26.6s11.9-26.6,26.6-26.6
	C-239.4,474.4-227.5,486.3-227.5,501"/>
<path d="M-86.6,453c0,14.7-11.9,26.6-26.6,26.6c-14.7,0-26.6-11.9-26.6-26.6s11.9-26.6,26.6-26.6S-86.6,438.3-86.6,453"/>
<path d="M-66.2,390.7c0,14.7-11.9,26.6-26.6,26.6c-14.7,0-26.6-11.9-26.6-26.6s11.9-26.6,26.6-26.6C-78.1,364.1-66.2,376-66.2,390.7
	"/>
</svg>
