<?xml version="1.0" encoding="utf-8"?>
<!-- Generator: Adobe Illustrator 19.1.0, SVG Export Plug-In . SVG Version: 6.00 Build 0)  -->
<svg version="1.1" id="Layer_1" xmlns="http://www.w3.org/2000/svg" xmlns:xlink="http://www.w3.org/1999/xlink" x="0px" y="0px"
	 viewBox="-285 -114 388 387.7" style="enable-background:new -285 -114 388 387.7;" xml:space="preserve">
<style type="text/css">
	.st0{fill:#918E8E;}
	.st1{fill:#919191;}
</style>
<path class="st0" d="M-91.1,273.7c-106.9,0-193.9-87-193.9-193.9C-285-27-198-114-91.1-114c106.9,0,193.9,87,193.9,193.9
	C102.7,186.8,15.8,273.7-91.1,273.7L-91.1,273.7z M-91.1-106C-193.6-106-277-22.6-277,79.9c0,102.5,83.4,185.9,185.9,185.9
	S94.7,182.3,94.7,79.9C94.7-22.6,11.3-106-91.1-106L-91.1-106z"/>
<path class="st1" d="M-76.9,117.1c0,14.7-11.9,26.6-26.6,26.6c-14.7,0-26.6-11.9-26.6-26.6c0-14.7,11.9-26.6,26.6-26.6
	C-88.8,90.5-76.9,102.4-76.9,117.1"/>
<path class="st1" d="M-56.5,54.8c0,14.7-11.9,26.6-26.6,26.6c-14.7,0-26.6-11.9-26.6-26.6c0-14.7,11.9-26.6,26.6-26.6
	C-68.4,28.2-56.5,40.2-56.5,54.8"/>
<path class="st1" d="M-156.5,166.1c0,14.7-11.9,26.6-26.6,26.6c-14.7,0-26.6-11.9-26.6-26.6c0-14.7,11.9-26.6,26.6-26.6
	C-168.4,139.6-156.5,151.5-156.5,166.1"/>
<path class="st1" d="M-136.1,103.9c0,14.7-11.9,26.6-26.6,26.6c-14.7,0-26.6-11.9-26.6-26.6c0-14.7,11.9-26.6,26.6-26.6
	C-148,77.3-136.1,89.2-136.1,103.9"/>
<path class="st1" d="M4.8,55.9c0,14.7-11.9,26.6-26.6,26.6c-14.7,0-26.6-11.9-26.6-26.6c0-14.7,11.9-26.6,26.6-26.6
	C-7.1,29.3,4.8,41.2,4.8,55.9"/>
<path class="st1" d="M25.2-6.4c0,14.7-11.9,26.6-26.6,26.6C-16.1,20.2-28,8.3-28-6.4C-28-21.1-16.1-33-1.4-33
	C13.3-33,25.2-21.1,25.2-6.4"/>
</svg>
