<?xml version="1.0" encoding="utf-8"?>
<!-- Generator: Adobe Illustrator 19.1.0, SVG Export Plug-In . SVG Version: 6.00 Build 0)  -->
<svg version="1.1" id="Layer_1" xmlns="http://www.w3.org/2000/svg" xmlns:xlink="http://www.w3.org/1999/xlink" x="0px" y="0px"
	 viewBox="-197.3 -27.7 234.9 225.7" style="enable-background:new -197.3 -27.7 234.9 225.7;" xml:space="preserve">
<style type="text/css">
	.st0{fill:#919191;}
</style>
<path class="st0" d="M-64.5,122.5c0,14.7-11.9,26.6-26.6,26.6c-14.7,0-26.6-11.9-26.6-26.6c0-14.7,11.9-26.6,26.6-26.6
	C-76.4,95.9-64.5,107.8-64.5,122.5"/>
<path class="st0" d="M-44.1,60.2c0,14.7-11.9,26.6-26.6,26.6c-14.7,0-26.6-11.9-26.6-26.6c0-14.7,11.9-26.6,26.6-26.6
	C-56,33.6-44.1,45.5-44.1,60.2"/>
<path class="st0" d="M-144.1,171.5c0,14.7-11.9,26.6-26.6,26.6c-14.7,0-26.6-11.9-26.6-26.6c0-14.7,11.9-26.6,26.6-26.6
	C-156,144.9-144.1,156.8-144.1,171.5"/>
<path class="st0" d="M-123.7,109.2c0,14.7-11.9,26.6-26.6,26.6c-14.7,0-26.6-11.9-26.6-26.6c0-14.7,11.9-26.6,26.6-26.6
	C-135.6,82.6-123.7,94.5-123.7,109.2"/>
<path class="st0" d="M17.2,61.2c0,14.7-11.9,26.6-26.6,26.6C-24.1,87.8-36,75.9-36,61.2c0-14.7,11.9-26.6,26.6-26.6
	C5.3,34.6,17.2,46.5,17.2,61.2"/>
<path class="st0" d="M37.6-1.1c0,14.7-11.9,26.6-26.6,26.6c-14.7,0-26.6-11.9-26.6-26.6c0-14.7,11.9-26.6,26.6-26.6
	C25.7-27.7,37.6-15.8,37.6-1.1"/>
</svg>
