<?xml version="1.0" encoding="utf-8"?>
<!-- Generator: Adobe Illustrator 18.1.1, SVG Export Plug-In . SVG Version: 6.00 Build 0)  -->
<svg version="1.1" id="Layer_1" xmlns="http://www.w3.org/2000/svg" xmlns:xlink="http://www.w3.org/1999/xlink" x="0px" y="0px"
	 viewBox="0 0 23 20" enable-background="new 0 0 23 20" xml:space="preserve">
<text transform="matrix(1 0 0 1 306 396)"><tspan x="0" y="0" font-family="'MyriadPro-Regular'" font-size="12">fonts</tspan><tspan x="0" y="14.4" font-family="'MyriadPro-Regular'" font-size="12">style.css</tspan></text>
<g id="f40ea6d4-7533-442b-b65c-b8c0450925f3.psd">
	<g id="query">
		<g>
			<path d="M21.2,15.8l-7-4.9c-0.5-0.3-1.1-0.4-1.6-0.2c1.3-2.7,0.5-6.1-2-7.9c-2.8-2-6.7-1.3-8.6,1.6c-0.9,1.4-1.3,3-1,4.7
				c0.3,1.6,1.2,3.1,2.6,4c1.4,1,3,1.3,4.6,1c1.3-0.2,2.5-0.9,3.4-1.9c0,0.6,0.2,1.1,0.7,1.5l7,4.9c0.8,0.5,1.8,0.3,2.4-0.4
				C22.1,17.4,22,16.3,21.2,15.8z M10.5,10.4c-1.4,2-4.1,2.5-6,1.1c-2-1.4-2.5-4.1-1.1-6.1c1.4-2,4.1-2.5,6-1.1
				C10.4,5,11,6,11.2,7.2C11.4,8.3,11.2,9.5,10.5,10.4z"/>
		</g>
	</g>
</g>
</svg>
