<?xml version="1.0" encoding="utf-8"?>
<!-- Generator: Adobe Illustrator 19.1.0, SVG Export Plug-In . SVG Version: 6.00 Build 0)  -->
<svg version="1.1" id="Layer_1" xmlns="http://www.w3.org/2000/svg" xmlns:xlink="http://www.w3.org/1999/xlink" x="0px" y="0px"
	 viewBox="-284 -113 391 389.7" style="enable-background:new -284 -113 391 389.7;" xml:space="preserve">
<style type="text/css">
	.st0{fill:#919191;}
</style>
<path class="st0" d="M-89.1,276.7c-107.4,0-194.9-87.4-194.9-194.9S-196.6-113-89.1-113S105.7-25.6,105.7,81.9
	S18.3,276.7-89.1,276.7L-89.1,276.7z M-89.1-103C-191.1-103-274-20.1-274,81.9s82.9,184.9,184.9,184.9S95.7,183.8,95.7,81.9
	S12.8-103-89.1-103L-89.1-103z"/>
<path class="st0" d="M5,82.9c-0.3-4-0.1-8-0.9-12c9.4-4.3,19.1-9.6,27.7-15.8c-1.3-5.9-3.2-11.7-5.5-17.4c-11-0.7-22.1-0.1-32.5,1.5
	c-2.2-3.4-3.9-7-6.5-10.1c-2.3-3.3-4.9-6.3-7.7-9.2c5.3-9.3,9.5-18.7,13.1-29.1c-4.6-3.9-9.4-7.6-14.6-10.8
	c-9.4,6-17.8,12.7-25.4,20.3c-3.5-1.9-7.4-3.1-11.1-4.5C-62.2-5.3-66-6.4-70-7.1c-1.2-10.3-3.3-21-6.5-31.2
	c-6-0.4-12.1-0.6-18.1-0.1c-4.1,10.1-6.9,21-8.6,31.3c-3.9,0.7-7.8,1.8-11.6,2.9c-3.8,1.4-7.6,2.6-11.1,4.5
	c-7.1-7.8-15-15-23.6-21.4c-5.3,3-10.1,6.8-14.8,10.5c3,10.9,6.6,20.9,11.5,30.5c-2.8,2.9-5.4,5.9-7.7,9.2
	c-2.5,3.1-4.3,6.7-6.5,10.1c-10.1-2.1-20.8-3.2-31.7-3.5c-2.1,5.7-4.4,11.4-5.7,17.3c8.4,7,17.8,13,27.2,17.9c-0.7,3.9-0.6,8-0.9,12
	c0.3,4,0.1,8,0.9,12c-9.4,4.3-19.1,9.6-27.7,15.8c1.3,5.9,3.2,11.7,5.5,17.4c11,0.7,22.1,0.1,32.5-1.5c2.2,3.4,3.9,7,6.5,10.1
	c2.3,3.3,4.9,6.3,7.7,9.2c-5.3,9.3-9.5,18.7-13.1,29.1c4.6,3.9,9.4,7.6,14.6,10.8c9.4-6,17.8-12.7,25.4-20.3
	c3.5,1.9,7.4,3.1,11.1,4.5c3.8,1.1,7.7,2.2,11.6,2.9c1.2,10.3,3.3,21,6.5,31.2c6,0.4,12.1,0.6,18.1,0.1c4.1-10.1,6.9-21,8.6-31.3
	c3.9-0.7,7.8-1.8,11.6-2.9c3.8-1.4,7.6-2.6,11.1-4.5c7.1,7.8,15,15,23.6,21.4c5.3-3,10.1-6.8,14.8-10.5c-3-10.9-6.6-20.9-11.5-30.5
	c2.8-2.9,5.4-5.9,7.7-9.2c2.6-3.1,4.3-6.7,6.5-10.1c10.1,2.1,20.8,3.2,31.7,3.5c2.1-5.7,4.4-11.4,5.7-17.3c-8.4-7-17.8-13-27.2-17.9
	C4.8,90.9,4.7,86.9,5,82.9 M-69.2,136.6c-11.2,3.6-23.8,3.6-34.9,0c-11.1-3.8-21.4-10.8-28.2-20.6c-7.1-9.6-10.7-21.2-10.9-33.2
	c0.2-11.9,3.7-23.6,10.9-33.2c6.8-9.8,17.1-16.8,28.2-20.6c11.2-3.6,23.8-3.6,34.9,0C-58.1,32.9-47.8,40-41,49.8
	c7.1,9.6,10.7,21.2,10.9,33.2c-0.2,11.9-3.7,23.6-10.9,33.2C-47.8,125.8-58.1,132.9-69.2,136.6"/>
</svg>
