<?xml version="1.0" encoding="utf-8"?>
<!-- Generator: Adobe Illustrator 19.1.0, SVG Export Plug-In . SVG Version: 6.00 Build 0)  -->
<svg version="1.1" id="Layer_1" xmlns="http://www.w3.org/2000/svg" xmlns:xlink="http://www.w3.org/1999/xlink" x="0px" y="0px"
	 viewBox="-395 88 169 192" style="enable-background:new -395 88 169 192;" xml:space="preserve">
<style type="text/css">
	.st0{fill:#FFFFFF;}
</style>
<path class="st0" d="M-310.5,280c-1.5,0-2.7-0.4-3.6-1.2c-0.8-0.8-2.1-3.3-3.8-7.5c-1.7-4.2-5.1-11.1-10-20.7
	c-4.9-9.7-9.7-17.7-14.3-24.1l-9.6-12.9l-16.3-20.9l-9.6-13.1l-0.6-1h45.9v11.7l43.8-25.2l-43.8-25.3v11.9h-59.9l-0.2-0.8
	c-1.7-5.8-2.5-12-2.5-18.8c0-12.7,4.3-23.2,12.8-31.6c8.5-8.4,18.7-12.6,30.6-12.6c7.3,0,13.9,1.9,19.7,5.8
	c5.8,3.8,10.1,8.4,13,13.6c1.2,1.8,2,3.5,2.7,5c0.6,1.5,1.2,2.9,1.7,4.2l4,12.3c0.5-2,1.2-4.3,2.1-6.8c0.9-2.5,1.5-4.1,1.7-4.9
	c0.3-0.8,0.8-2.1,1.6-4c0.8-1.9,1.8-3.8,2.8-5.8c3.6-5.8,8.1-10.4,13.4-14c5.4-3.6,11.8-5.4,19.2-5.4c12.4,0,22.8,4.2,31.1,12.6
	c8.3,8.4,12.5,18.6,12.5,30.6c0,10.4-2,20.2-6.1,29.4c-4.1,9.2-11,19.9-20.7,32.1c-12.7,15.9-21.3,27.1-25.9,33.8l-6.5,10.4
	l-7.7,13.6l-6.1,12.3l-4,9c-1.3,3.7-2.4,6.1-3.5,7.1C-307.8,279.6-309.1,280-310.5,280z"/>
</svg>
