<?xml version="1.0" encoding="utf-8"?>
<!-- Generator: Adobe Illustrator 19.1.0, SVG Export Plug-In . SVG Version: 6.00 Build 0)  -->
<svg version="1.1" id="Layer_1" xmlns="http://www.w3.org/2000/svg" xmlns:xlink="http://www.w3.org/1999/xlink" x="0px" y="0px"
	 viewBox="-393 -112 389.8 389.7" style="enable-background:new -393 -112 389.8 389.7;" xml:space="preserve">
<path d="M-198.1,277.7c-107.4,0-194.9-87.4-194.9-194.9S-305.6-112-198.1-112S-3.2-24.6-3.2,82.9S-90.7,277.7-198.1,277.7
	L-198.1,277.7z M-198.1-102C-300.1-102-383-19.1-383,82.9s82.9,184.9,184.9,184.9S-13.2,184.9-13.2,82.9S-96.2-102-198.1-102
	L-198.1-102z"/>
<path d="M-78.3,35.8v110c0,17.3-14.1,31.4-31.4,31.4h-172.9c-17.3,0-31.4-14.1-31.4-31.4v-110c0-17.3,14.1-31.4,31.4-31.4h27.5
	l6.3-16.7c3.1-8.1,12.6-14.7,21.2-14.7h62.9c8.6,0,18.2,6.6,21.2,14.7l6.3,16.7h27.5C-92.4,4.4-78.3,18.5-78.3,35.8z M-141.1,90.8
	c0-30.3-24.7-55-55-55s-55,24.7-55,55s24.7,55,55,55S-141.1,121.1-141.1,90.8z M-160.8,90.8c0,19.5-15.8,35.4-35.4,35.4
	s-35.4-15.8-35.4-35.4c0-19.5,15.8-35.4,35.4-35.4C-176.6,55.4-160.8,71.3-160.8,90.8z"/>
</svg>
