<?xml version="1.0" encoding="utf-8"?>
<!-- Generator: Adobe Illustrator 14.0.0, SVG Export Plug-In . SVG Version: 6.00 Build 43363)  -->
<!DOCTYPE svg PUBLIC "-//W3C//DTD SVG 1.1//EN" "http://www.w3.org/Graphics/SVG/1.1/DTD/svg11.dtd">
<svg version="1.1" id="Layer_1" xmlns="http://www.w3.org/2000/svg" xmlns:xlink="http://www.w3.org/1999/xlink" x="0px" y="0px"
	 width="206px" height="208px" viewBox="0 0 206 208" enable-background="new 0 0 206 208" xml:space="preserve">
<path fill="#A7A9AC" d="M83.5,167C37.458,167,0,129.542,0,83.5S37.458,0,83.5,0S167,37.458,167,83.5S129.542,167,83.5,167L83.5,167z
	 M83.5,20C48.486,20,20,48.486,20,83.5c0,35.014,28.486,63.5,63.5,63.5c35.014,0,63.5-28.486,63.5-63.5
	C147,48.486,118.514,20,83.5,20L83.5,20z"/>
<polygon fill="#A7A9AC" points="191.774,207.227 124.929,140.382 139.071,126.239 205.917,193.084 191.774,207.227 "/>
</svg>
