<svg width="18" height="18" viewBox="0 0 18 18" fill="none" xmlns="http://www.w3.org/2000/svg">
<rect width="18" height="18" rx="2" fill="#616161"/>
<path fill-rule="evenodd" clip-rule="evenodd" d="M7.9707 3.29506C7.9707 3.84815 8.43198 4.29679 9.00063 4.29679C9.56933 4.29679 10.0306 3.84815 10.0306 3.29506C10.0316 2.74197 9.57024 2.29333 9.00063 2.29333C8.43198 2.29333 7.9707 2.74197 7.9707 3.29506Z" fill="white"/>
<path fill-rule="evenodd" clip-rule="evenodd" d="M2.8916 6.14567C2.8916 6.69887 3.35287 7.14759 3.92154 7.14759C4.4902 7.14759 4.95146 6.69887 4.95146 6.14567C4.95146 5.5925 4.4902 5.1438 3.92154 5.1438C3.35287 5.1438 2.8916 5.5925 2.8916 6.14567Z" fill="white"/>
<path fill-rule="evenodd" clip-rule="evenodd" d="M2.8916 11.8516C2.8916 12.4048 3.35287 12.8534 3.92154 12.8534C4.4902 12.8534 4.95146 12.4048 4.95146 11.8516C4.95146 11.2985 4.4902 10.8499 3.92154 10.8499C3.35287 10.8499 2.8916 11.2985 2.8916 11.8516Z" fill="white"/>
<path fill-rule="evenodd" clip-rule="evenodd" d="M7.96973 14.7047C7.96973 15.2579 8.43101 15.7066 8.99966 15.7066C9.56834 15.7066 10.0296 15.2579 10.0296 14.7047C10.0296 14.1515 9.56834 13.7028 8.99966 13.7028C8.43101 13.7028 7.96973 14.1515 7.96973 14.7047Z" fill="white"/>
<path fill-rule="evenodd" clip-rule="evenodd" d="M13.0488 11.8544C13.0488 12.4075 13.5101 12.8561 14.0788 12.8561C14.6474 12.8561 15.1087 12.4075 15.1087 11.8544C15.1087 11.3014 14.6474 10.8527 14.0788 10.8527C13.5101 10.8527 13.0488 11.3014 13.0488 11.8544Z" fill="white"/>
<path fill-rule="evenodd" clip-rule="evenodd" d="M13.0488 6.14567C13.0488 6.69887 13.5101 7.14759 14.0788 7.14759C14.6474 7.14759 15.1086 6.69887 15.1086 6.14567C15.1086 5.5925 14.6474 5.1438 14.0788 5.1438C13.5101 5.1438 13.0488 5.5925 13.0488 6.14567Z" fill="white"/>
<path fill-rule="evenodd" clip-rule="evenodd" d="M7.96973 8.99875C7.96973 9.55179 8.43101 10.0005 8.99966 10.0005C9.56834 10.0005 10.0296 9.55179 10.0296 8.99875C10.0296 8.44563 9.56834 7.99701 8.99966 7.99701C8.43101 7.99608 7.96973 8.44469 7.96973 8.99875Z" fill="white"/>
</svg>
