<svg width="24" height="24" viewBox="0 0 24 24" fill="none" xmlns="http://www.w3.org/2000/svg">
<path d="M9.96967 6.96967C10.2626 6.67678 10.7374 6.67678 11.0303 6.96967C11.2966 7.23594 11.3208 7.6526 11.1029 7.94621L11.0303 8.03033L9.061 10L11.0303 11.9697C11.2966 12.2359 11.3208 12.6526 11.1029 12.9462L11.0303 13.0303C10.7641 13.2966 10.3474 13.3208 10.0538 13.1029L9.96967 13.0303L7.46967 10.5303C7.2034 10.2641 7.1792 9.8474 7.39705 9.55379L7.46967 9.46967L9.96967 6.96967Z" fill="#616161"/>
<path d="M13 9.25C15.0711 9.25 16.75 10.9289 16.75 13C16.75 15.0711 15.0711 16.75 13 16.75C12.5858 16.75 12.25 16.4142 12.25 16C12.25 15.6203 12.5322 15.3065 12.8982 15.2568L13 15.25C14.2426 15.25 15.25 14.2426 15.25 13C15.25 11.8091 14.3248 10.8344 13.154 10.7552L13 10.75H8C7.58579 10.75 7.25 10.4142 7.25 10C7.25 9.6203 7.53215 9.30651 7.89823 9.25685L8 9.25H13Z" fill="#616161"/>
</svg>
