<svg
   version="1.1"
   id="layer"
   x="0px"
   y="0px"
   viewBox="0 0 174.40657 185.3"
   xml:space="preserve"
   sodipodi:docname="guidestar.svg"
   width="174.40657"
   height="185.3"
   inkscape:version="1.1 (c4e8f9e, 2021-05-24)"
   xmlns:inkscape="http://www.inkscape.org/namespaces/inkscape"
   xmlns:sodipodi="http://sodipodi.sourceforge.net/DTD/sodipodi-0.dtd"
   xmlns="http://www.w3.org/2000/svg"
   xmlns:svg="http://www.w3.org/2000/svg"><defs
   id="defs50" /><sodipodi:namedview
   id="namedview48"
   pagecolor="#ffffff"
   bordercolor="#666666"
   borderopacity="1.0"
   inkscape:pageshadow="2"
   inkscape:pageopacity="0.0"
   inkscape:pagecheckerboard="0"
   showgrid="false"
   fit-margin-top="0"
   fit-margin-left="0"
   fit-margin-right="0"
   fit-margin-bottom="0"
   inkscape:zoom="0.85276074"
   inkscape:cx="103.78058"
   inkscape:cy="-9.381295"
   inkscape:window-width="1440"
   inkscape:window-height="778"
   inkscape:window-x="0"
   inkscape:window-y="25"
   inkscape:window-maximized="1"
   inkscape:current-layer="layer" />
<style
   type="text/css"
   id="style9">
	.st0{fill:#00447C;}
	.st1{fill:#FFC425;}
	.st2{fill:#FFFFFF;}
	.st3{fill:#231F20;}
</style>
<path
   class="st0"
   d="M 20.518034,36.7 H 151.21803 c 1.7,0 3,1.3 3,3 v 130.7 c 0,1.7 -1.3,3 -3,3 H 20.518034 c -1.7,0 -3,-1.3 -3,-3 V 39.7 c 0,-1.7 1.3,-3 3,-3 z"
   id="path11" />
<path
   class="st1"
   d="m 174.11803,183.3 -60.9,-69.4 h 28.9 c 0.6,0 1.1,-0.4 1.3,-1.1 0,-0.6 -0.2,-1.1 -0.8,-1.3 l -36.4,-12.4 39,-42.9 c 0.4,-0.4 0.4,-1.1 0,-1.5 -0.4,-0.4 -1.1,-0.6 -1.5,-0.2 l -36.3,24 1.5,-16.1 c 0,-0.6 -0.2,-1.1 -0.8,-1.3 -0.4,-0.2 -1.1,0 -1.5,0.4 l -14.399996,21.2 -13.8,-81.6 c 0,-0.6 -0.6,-1.1 -1.3,-1.1 -0.6,0 -1.1,0.6 -1.1,1.3 l 0.2,83 -49.9,-40.7 c -0.4,-0.4 -1.1,-0.4 -1.5,0 -0.4,0.4 -0.4,1.1 0,1.5 l 42.6,53.5 -65.1,4.5 c -0.6,0 -1.1,0.6 -1.1,1.3 0,0.7 0.4,1.1 1.1,1.1 l 43.5,3.6 L 0.41803399,132 c -0.4,0.4 -0.6,1.1 -0.2,1.7 0.2,0.2 0.6,0.4 1.10000001,0.4 l 65.1,-18.2 -12.6,19.3 c -0.2,0.4 -0.2,1.1 0.2,1.5 0.4,0.4 1.1,0.4 1.5,0.2 l 24,-15.3 2.5,46 c 0,0.6 0.6,1.1 1.3,1.1 0.4,0 0.8,-0.4 1.1,-0.8 l 12.5,-48.6 75.499996,65.8 c 0.2,0.2 0.4,0.2 0.8,0.2 0.2,0 0.6,-0.2 0.8,-0.4 0.5,-0.3 0.5,-1.1 0.1,-1.6"
   id="path13" />
<path
   class="st2"
   d="M 116.41803,125 98.418034,108.7 h 12.099996 c 0.6,0 1.1,-0.4 1.3,-1.1 0,-0.4 -0.2,-1.1 -0.8,-1.1 L 96.118034,101 108.21803,88.3 c 0.4,-0.4 0.4,-1.1 0,-1.5 -0.4,-0.4 -1.1,-0.4 -1.5,-0.2 l -10.399996,7 1.7,-6.6 c 0.2,-0.4 -0.2,-1.1 -0.6,-1.3 -0.4,-0.2 -1.1,0 -1.3,0.4 l -6.6,9.1 -5.9,-35 c 0,-0.6 -0.6,-0.8 -1.1,-0.8 -0.6,0 -1.1,0.6 -1.1,1.1 l 1.1,34.6 -20.2,-14.9 c -0.4,-0.4 -1.1,-0.2 -1.5,0.2 -0.4,0.4 -0.4,1.1 0,1.5 l 16.3,19.1 -15.9,2.5 c -0.4,0 -0.8,0.6 -0.8,1.1 0,0.6 0.4,1.1 0.8,1.1 l 6.8,0.8 -11.2,4.3 c -0.6,0.2 -0.8,0.8 -0.8,1.3 0,0.4 0.8,0.8 1.3,0.8 v 0 l 21.4,-4.2 -5.3,7.8 c -0.2,0.4 -0.2,1.1 0,1.3 0.4,0.4 0.8,0.4 1.3,0.2 l 9.5,-5.9 1.7,12.9 c 0,0.4 0.4,0.8 1.1,0.8 0.4,0 1.1,-0.4 1.1,-0.8 l 3.2,-14.9 23.799996,16.5 c 0.2,0.2 0.4,0.2 0.6,0.2 0.4,0 0.6,-0.2 0.8,-0.4 0.3,-0.3 0.3,-1 -0.1,-1.4"
   id="path15" />












</svg>
