<?xml version="1.0" encoding="UTF-8"?>
<svg width="143px" height="36px" viewBox="0 0 143 36" version="1.1" xmlns="http://www.w3.org/2000/svg" xmlns:xlink="http://www.w3.org/1999/xlink">
    <!-- Generator: Sketch 64 (93537) - https://sketch.com -->
    <title>logo</title>
    <desc>Created with Sketch.</desc>
    <g id="Page-ver.-3" stroke="none" stroke-width="1" fill="none" fill-rule="evenodd">
        <g id="Mappr-Legend" transform="translate(-20.000000, -20.000000)">
            <g id="Slide-bar" transform="translate(-1.000000, 0.000000)">
                <g id="logo" transform="translate(21.000000, 20.000000)">
                    <path d="M7.16308594,23.2441406 C7.92154948,23.2441406 8.58398438,23.1692708 9.15039062,23.0195312 C10.3027344,22.7135417 11.2955729,22.1536458 12.1289062,21.3398438 C13.4830729,20.0182292 14.1601562,18.3613281 14.1601562,16.3691406 C14.1601562,14.311849 13.5026042,12.6777344 12.1875,11.4667969 C10.9570312,10.3339844 9.44335938,9.76757812 7.64648437,9.76757812 C6.60481771,9.76757812 5.6640625,9.95800781 4.82421875,10.3388672 C3.984375,10.7197266 3.26822917,11.2324219 2.67578125,11.8769531 C2.08333333,12.5214844 1.62760417,13.2669271 1.30859375,14.1132812 C0.989583333,14.9596354 0.830078125,15.8564453 0.830078125,16.8037109 C0.830078125,17.7509766 1.00097656,18.6217448 1.34277344,19.4160156 C1.68457031,20.2102865 2.15169271,20.890625 2.74414062,21.4570312 C3.33658854,22.0234375 4.03157552,22.4628906 4.82910156,22.7753906 C5.6266276,23.0878906 6.4046224,23.2441406 7.16308594,23.2441406 Z M7.62695312,20.8027344 C6.42903646,20.8027344 5.44921875,20.4186198 4.6875,19.6503906 C4.32942708,19.2858073 4.04947917,18.8496094 3.84765625,18.3417969 C3.64583333,17.8339844 3.54492188,17.2773438 3.54492188,16.671875 C3.54492188,15.4023438 3.88020833,14.3476562 4.55078125,13.5078125 C5.26692708,12.609375 6.23372396,12.1601562 7.45117188,12.1601562 C8.70768229,12.1601562 9.69726562,12.6028646 10.4199219,13.4882812 C11.0904948,14.3151042 11.4257812,15.3470052 11.4257812,16.5839844 C11.4257812,17.8990885 11.0742188,18.9375 10.3710938,19.6992188 C9.68098958,20.4348958 8.76627604,20.8027344 7.62695312,20.8027344 Z M18.0039062,26.7597656 C17.9778646,26.5904948 17.9648438,26.2259115 17.9648438,25.6660156 L17.9648438,25.6660156 L17.9648438,22.7949219 C18.5572917,23.0488281 19.2636719,23.1757812 20.0839844,23.1757812 C20.9042969,23.1757812 21.6660156,22.9772135 22.3691406,22.5800781 C23.1634115,22.1308594 23.7851562,21.531901 24.234375,20.7832031 C24.7617188,19.8977865 25.0253906,18.8919271 25.0253906,17.765625 C25.0253906,16.0664062 24.5598958,14.7578125 23.6289062,13.8398438 C23.2057292,13.4166667 22.7141927,13.1041667 22.1542969,12.9023438 C21.594401,12.7005208 20.953125,12.5996094 20.2304688,12.5996094 C19.5078125,12.5996094 18.7526042,12.8763021 17.9648438,13.4296875 L17.9648438,13.4296875 L17.9648438,12.7949219 L15.5722656,12.7949219 L15.5722656,26.7597656 L18.0039062,26.7597656 Z M19.8886719,20.9589844 C19.1009115,20.9589844 18.4596354,20.750651 17.9648438,20.3339844 L17.9648438,20.3339844 L17.9648438,15.6269531 C18.2252604,15.3535156 18.5442708,15.1354167 18.921875,14.9726562 C19.2994792,14.8098958 19.6640625,14.7285156 20.015625,14.7285156 C20.3671875,14.7285156 20.7089844,14.8033854 21.0410156,14.953125 C21.2298177,15.0377604 21.4153646,15.1500651 21.5976562,15.2900391 C21.7799479,15.430013 21.9443359,15.6057943 22.0908203,15.8173828 C22.2373047,16.0289714 22.3561198,16.2796224 22.4472656,16.5693359 C22.5384115,16.8590495 22.5839844,17.2464193 22.5839844,17.7314453 C22.5839844,18.2164714 22.5188802,18.6705729 22.3886719,19.09375 C22.0110677,20.3372396 21.1777344,20.9589844 19.8886719,20.9589844 Z M31.3203125,23.1464844 C31.6197917,23.1464844 31.9322917,23.1269531 32.2578125,23.0878906 C33.3645833,22.9576823 34.1653646,22.7233073 34.6601562,22.3847656 L34.6601562,22.3847656 L34.7675781,20.8613281 C34.7871094,20.5748698 34.8033854,20.2949219 34.8164062,20.0214844 C34.71875,20.1061198 34.5722656,20.1972656 34.3769531,20.2949219 C33.6347656,20.6660156 32.7460938,20.8515625 31.7109375,20.8515625 C30.7213542,20.8515625 29.9173177,20.6578776 29.2988281,20.2705078 C28.6803385,19.883138 28.2864583,19.3411458 28.1171875,18.6445312 L28.1171875,18.6445312 L31.5546875,18.6445312 C33.5533854,18.6445312 34.8782552,18.5533854 35.5292969,18.3710938 C35.6074219,18.1822917 35.6464844,17.8307292 35.6464844,17.3164062 C35.6464844,15.9752604 35.2330729,14.8619792 34.40625,13.9765625 C33.5664062,13.0585938 32.453125,12.5996094 31.0664062,12.5996094 C29.4257812,12.5996094 28.0976562,13.1171875 27.0820312,14.1523438 C26.6067708,14.640625 26.2389323,15.2102865 25.9785156,15.8613281 C25.718099,16.5123698 25.5878906,17.21875 25.5878906,17.9804688 C25.5878906,19.4908854 26.1315104,20.7311198 27.21875,21.7011719 C28.2994792,22.6647135 29.6666667,23.1464844 31.3203125,23.1464844 Z M30.6953125,16.8183594 L30.1386719,16.8183594 C29.9173177,16.8183594 29.6861979,16.8151042 29.4453125,16.8085938 L29.4453125,16.8085938 L28.7226562,16.8085938 C28.4947917,16.8020833 28.3027344,16.7955729 28.1464844,16.7890625 C28.2311198,16.4765625 28.3515625,16.1901042 28.5078125,15.9296875 C29.0221354,15.0768229 29.7740885,14.6503906 30.7636719,14.6503906 C32.0201823,14.6503906 32.781901,15.3502604 33.0488281,16.75 C32.8795573,16.7630208 32.6875,16.7727865 32.4726562,16.7792969 L32.4726562,16.7792969 L31.671875,16.8085938 C31.3528646,16.8151042 31.0273438,16.8183594 30.6953125,16.8183594 L30.6953125,16.8183594 Z M45.90625,23.0683594 L45.9257812,23.0292969 C45.8867188,22.9772135 45.8395182,22.9186198 45.7841797,22.8535156 C45.7288411,22.7884115 45.6848958,22.6451823 45.6523438,22.4238281 C45.6197917,22.202474 45.6035156,21.5416667 45.6035156,20.4414062 L45.6035156,16.5546875 C45.6035156,15.3697917 45.2845052,14.414388 44.6464844,13.6884766 C44.0084635,12.9625651 43.155599,12.5996094 42.0878906,12.5996094 C41.1113281,12.5996094 40.1933594,12.9544271 39.3339844,13.6640625 L39.3339844,13.6640625 L39.3339844,12.7949219 L36.9609375,12.7949219 L36.9609375,23 L39.4121094,23 C39.360026,22.7395833 39.3339844,22.3229167 39.3339844,21.75 L39.3339844,21.75 L39.3339844,16.1738281 C39.9134115,15.2884115 40.6328125,14.8457031 41.4921875,14.8457031 C42.6510417,14.8457031 43.2304688,15.7994792 43.2304688,17.7070312 L43.2304688,17.7070312 L43.2304688,23.0292969 C43.5820312,23.0097656 43.8619792,23 44.0703125,23 L44.0703125,23 L44.7539062,23 C44.9947917,23 45.3789062,23.0227865 45.90625,23.0683594 L45.90625,23.0683594 Z M56.7324219,23.0585938 C57.0449219,23.0195312 57.6471354,23 58.5390625,23 L58.5390625,23 L59.3203125,23 L59.3203125,9.97265625 C58.9036458,9.99869792 58.4023438,10.0117188 57.8164062,10.0117188 C57.2304688,10.0117188 56.8333333,9.98567708 56.625,9.93359375 L56.625,9.93359375 L53.4707031,15.5097656 L50.1894531,9.93359375 C49.9811198,9.98567708 49.6263021,10.0117188 49.125,10.0117188 C48.6236979,10.0117188 48.1647135,9.99869792 47.7480469,9.97265625 L47.7480469,9.97265625 L47.7480469,23 L48.5292969,23 C49.421224,23 50.0234375,23.0195312 50.3359375,23.0585938 L50.3359375,23.0585938 L50.3359375,14.7675781 L53.5390625,20.0214844 L56.7324219,14.3085938 L56.7324219,23.0585938 Z M69.1210938,23.2441406 L70.8886719,21.6230469 C70.3548177,21.3496094 70.0878906,20.8352865 70.0878906,20.0800781 L70.0878906,20.0800781 L70.0878906,16.5449219 C70.0878906,15.9329427 69.9934896,15.3828125 69.8046875,14.8945312 C69.2122396,13.3645833 67.8548177,12.5996094 65.7324219,12.5996094 C64.3652344,12.5996094 63.1054688,12.9023438 61.953125,13.5078125 L61.953125,13.5078125 L62.2460938,15.6660156 L62.2753906,15.6855469 C62.5488281,15.4251302 63.0013021,15.1940104 63.6328125,14.9921875 C63.9192708,14.9010417 64.2138672,14.8277995 64.5166016,14.7724609 C64.8193359,14.7171224 65.1285807,14.6894531 65.4443359,14.6894531 C65.7600911,14.6894531 66.0579427,14.71875 66.3378906,14.7773438 C67.1842448,14.953125 67.6334635,15.561849 67.6855469,16.6035156 C67.6074219,16.5904948 67.5195312,16.5823568 67.421875,16.5791016 C67.3242188,16.5758464 67.2363281,16.5709635 67.1582031,16.5644531 L67.1582031,16.5644531 L66.7675781,16.5546875 C65.0488281,16.5546875 63.688151,16.8932292 62.6855469,17.5703125 C61.7610677,18.1953125 61.2988281,18.9765625 61.2988281,19.9140625 C61.2988281,20.9622396 61.6764323,21.7630208 62.4316406,22.3164062 C62.8027344,22.5898438 63.2552083,22.7965495 63.7890625,22.9365234 C64.3229167,23.0764974 64.9641927,23.1464844 65.7128906,23.1464844 C66.4615885,23.1464844 67.2981771,22.8958333 68.2226562,22.3945312 C68.4505208,22.765625 68.75,23.0488281 69.1210938,23.2441406 L69.1210938,23.2441406 Z M65.8349609,21.1054688 C65.1676432,21.1054688 64.6647135,21.0078125 64.3261719,20.8125 C64.1503906,20.7083333 64.0250651,20.5764974 63.9501953,20.4169922 C63.8753255,20.257487 63.8378906,20.0735677 63.8378906,19.8652344 C63.8378906,19.656901 63.8964844,19.4583333 64.0136719,19.2695312 C64.4042969,18.6315104 65.3190104,18.3125 66.7578125,18.3125 L66.7578125,18.3125 L67.1484375,18.3125 C67.3372396,18.3125 67.5195312,18.328776 67.6953125,18.3613281 L67.6953125,18.3613281 L67.6953125,20.4023438 C67.6953125,20.4804688 67.6985677,20.5553385 67.7050781,20.6269531 C67.125651,20.9459635 66.5022786,21.1054688 65.8349609,21.1054688 Z M74.7128906,26.7597656 C74.686849,26.5904948 74.6738281,26.2259115 74.6738281,25.6660156 L74.6738281,25.6660156 L74.6738281,22.7949219 C75.266276,23.0488281 75.9726562,23.1757812 76.7929688,23.1757812 C77.6132812,23.1757812 78.375,22.9772135 79.078125,22.5800781 C79.8723958,22.1308594 80.4941406,21.531901 80.9433594,20.7832031 C81.4707031,19.8977865 81.734375,18.8919271 81.734375,17.765625 C81.734375,16.0664062 81.2688802,14.7578125 80.3378906,13.8398438 C79.9147135,13.4166667 79.4231771,13.1041667 78.8632812,12.9023438 C78.3033854,12.7005208 77.6621094,12.5996094 76.9394531,12.5996094 C76.2167969,12.5996094 75.4615885,12.8763021 74.6738281,13.4296875 L74.6738281,13.4296875 L74.6738281,12.7949219 L72.28125,12.7949219 L72.28125,26.7597656 L74.7128906,26.7597656 Z M76.5976562,20.9589844 C75.8098958,20.9589844 75.1686198,20.750651 74.6738281,20.3339844 L74.6738281,20.3339844 L74.6738281,15.6269531 C74.9342448,15.3535156 75.2532552,15.1354167 75.6308594,14.9726562 C76.0084635,14.8098958 76.3730469,14.7285156 76.7246094,14.7285156 C77.0761719,14.7285156 77.4179688,14.8033854 77.75,14.953125 C77.9388021,15.0377604 78.124349,15.1500651 78.3066406,15.2900391 C78.4889323,15.430013 78.6533203,15.6057943 78.7998047,15.8173828 C78.9462891,16.0289714 79.0651042,16.2796224 79.15625,16.5693359 C79.2473958,16.8590495 79.2929688,17.2464193 79.2929688,17.7314453 C79.2929688,18.2164714 79.2278646,18.6705729 79.0976562,19.09375 C78.7200521,20.3372396 77.8867188,20.9589844 76.5976562,20.9589844 Z M85.3632812,26.7597656 C85.3372396,26.5904948 85.3242188,26.2259115 85.3242188,25.6660156 L85.3242188,22.7949219 C85.9166667,23.0488281 86.6230469,23.1757812 87.4433594,23.1757812 C88.2636719,23.1757812 89.0253906,22.9772135 89.7285156,22.5800781 C90.5227865,22.1308594 91.1445312,21.531901 91.59375,20.7832031 C92.1210938,19.8977865 92.3847656,18.8919271 92.3847656,17.765625 C92.3847656,16.0664062 91.9192708,14.7578125 90.9882812,13.8398438 C90.5651042,13.4166667 90.0735677,13.1041667 89.5136719,12.9023438 C88.953776,12.7005208 88.3125,12.5996094 87.5898438,12.5996094 C86.8671875,12.5996094 86.1119792,12.8763021 85.3242188,13.4296875 L85.3242188,13.4296875 L85.3242188,12.7949219 L82.9316406,12.7949219 L82.9316406,26.7597656 L85.3632812,26.7597656 Z M87.2480469,20.9589844 C86.4602865,20.9589844 85.8190104,20.750651 85.3242188,20.3339844 L85.3242188,20.3339844 L85.3242188,15.6269531 C85.5846354,15.3535156 85.9036458,15.1354167 86.28125,14.9726562 C86.6588542,14.8098958 87.0234375,14.7285156 87.375,14.7285156 C87.7265625,14.7285156 88.0683594,14.8033854 88.4003906,14.953125 C88.5891927,15.0377604 88.7747396,15.1500651 88.9570312,15.2900391 C89.1393229,15.430013 89.3037109,15.6057943 89.4501953,15.8173828 C89.5966797,16.0289714 89.7154948,16.2796224 89.8066406,16.5693359 C89.8977865,16.8590495 89.9433594,17.2464193 89.9433594,17.7314453 C89.9433594,18.2164714 89.8782552,18.6705729 89.7480469,19.09375 C89.3704427,20.3372396 88.5371094,20.9589844 87.2480469,20.9589844 Z M95.7792969,23 C95.7532552,22.8307292 95.7402344,22.4661458 95.7402344,21.90625 L95.7402344,15.890625 C95.9355469,15.5846354 96.1748047,15.3388672 96.4580078,15.1533203 C96.7412109,14.9677734 97.0195312,14.875 97.2929688,14.875 C98.0091146,14.875 98.4811198,15.0768229 98.7089844,15.4804688 L98.7089844,15.4804688 L98.7480469,15.4511719 L98.9238281,12.8242188 C98.5722656,12.6744792 98.0921224,12.5996094 97.4833984,12.5996094 C96.8746745,12.5996094 96.2936198,12.9153646 95.7402344,13.546875 L95.7402344,13.546875 L95.7402344,12.7949219 L93.3476562,12.7949219 L93.3476562,23 L95.7792969,23 Z" id="OpenMappr" fill="#FFFFFF" fill-rule="nonzero"></path>
                    <g id="vibrantdata-logo-dark" transform="translate(107.000000, 0.000000)">
                        <path d="M3.353902,17.5622505 L10.4733212,10.4733212 M10.4733212,10.4733212 L17.6079855,17.6232305 M17.6079855,17.6232305 L24.6969147,10.5038113 M24.6969147,10.5038113 L31.7858439,17.6232305" id="Combined-Shape" stroke="#FFFFFF"></path>
                        <path d="M17.5622505,28.4319419 C19.4145594,28.4319419 20.9161525,29.933535 20.9161525,31.7858439 C20.9161525,33.6381528 19.4145594,35.1397459 17.5622505,35.1397459 C15.7099415,35.1397459 14.2083485,33.6381528 14.2083485,31.7858439 C14.2083485,29.933535 15.7099415,28.4319419 17.5622505,28.4319419 Z M24.6816697,21.3430127 C26.5339786,21.3430127 28.0355717,22.8446058 28.0355717,24.6969147 C28.0355717,26.5492236 26.5339786,28.0508167 24.6816697,28.0508167 C22.8293608,28.0508167 21.3277677,26.5492236 21.3277677,24.6969147 C21.3277677,22.8446058 22.8293608,21.3430127 24.6816697,21.3430127 Z M10.4580762,21.3125227 C12.3103851,21.3125227 13.8119782,22.8141158 13.8119782,24.6664247 C13.8119782,26.5187336 12.3103851,28.0203267 10.4580762,28.0203267 C8.6057673,28.0203267 7.10417423,26.5187336 7.10417423,24.6664247 C7.10417423,22.8141158 8.6057673,21.3125227 10.4580762,21.3125227 Z M29.4228675,15.2450091 C30.7339383,13.9491833 32.8529946,13.9491833 34.1640653,15.2602541 C35.4751361,16.5713249 35.4598911,18.6903811 34.1488203,20.0014519 C32.8377495,21.2972777 30.7186933,21.2972777 29.4076225,19.9862069 C28.1117967,18.6751361 28.1117967,16.5560799 29.4228675,15.2450091 Z M15.199274,15.2145191 C16.5103448,13.9186933 18.6294011,13.9186933 19.9404719,15.2297641 C21.2515426,16.5408348 21.2515426,18.6598911 19.9252269,19.9709619 C18.6141561,21.2667877 16.4950998,21.2667877 15.184029,19.9557169 C13.8882033,18.6446461 13.8882033,16.5255898 15.199274,15.2145191 Z M0.99092559,15.184029 C2.30199637,13.8882033 4.42105263,13.8882033 5.73212341,15.199274 C7.02794918,16.5103448 7.02794918,18.6294011 5.7168784,19.9404719 C4.40580762,21.2362976 2.28675136,21.2362976 0.975680581,19.9252269 C-0.320145191,18.6141561 -0.320145191,16.4950998 0.99092559,15.184029 Z M22.3186933,8.11034483 C23.6297641,6.81451906 25.7488203,6.81451906 27.0598911,8.12558984 C28.3709619,9.43666062 28.3709619,11.5709619 27.0446461,12.8667877 C25.7335753,14.1626134 23.6145191,14.1626134 22.3034483,12.8515426 C21.0076225,11.5404719 21.0076225,9.42141561 22.3186933,8.11034483 Z M8.11034483,8.09509982 C9.42141561,6.79927405 11.5404719,6.79927405 12.8515426,8.11034483 C14.1473684,9.42141561 14.1473684,11.5404719 12.8362976,12.8515426 C11.5252269,14.1473684 9.4061706,14.1473684 8.09509982,12.8362976 C6.79927405,11.5252269 6.79927405,9.4061706 8.11034483,8.09509982 Z M17.6079855,-1.5596413e-12 C19.4602944,-1.5596413e-12 20.9618875,1.50159307 20.9618875,3.353902 C20.9618875,5.20621092 19.4602944,6.70780399 17.6079855,6.70780399 C15.7556766,6.70780399 14.2540835,5.20621092 14.2540835,3.353902 C14.2540835,1.50159307 15.7556766,-1.5596413e-12 17.6079855,-1.5596413e-12 Z" id="Combined-Shape" fill="#FFFFFF"></path>
                    </g>
                </g>
            </g>
        </g>
    </g>
</svg>
