<?xml version="1.0" encoding="utf-8"?>
<!-- Generator: Adobe Illustrator 19.1.0, SVG Export Plug-In . SVG Version: 6.00 Build 0)  -->
<svg version="1.1" id="Layer_1" xmlns="http://www.w3.org/2000/svg" xmlns:xlink="http://www.w3.org/1999/xlink" x="0px" y="0px"
	 viewBox="-435 193 88 88" style="enable-background:new -435 193 88 88;" xml:space="preserve">
<style type="text/css">
	.st0{fill:#878787;}
</style>
<path class="st0" d="M-391.5,193c-24,0-43.5,19.5-43.5,43.5s19.5,43.5,43.5,43.5s43.5-19.5,43.5-43.5S-367.5,193-391.5,193z
	 M-430,236.5c0-12.5,6-23.5,15.2-30.6c0.4,13-0.2,44.9-0.2,44.9h12v-49.3c0,0,2.6,0.1,27.5,0c2.9,1.3,5.6,3,8.1,5
	c-0.1,0-0.2,0-0.4,0c-26.8,0.1-29.5,0-29.5,0v51.7h12v-44.1c0,0,10.7-0.2,25-0.1c1.1,1.5,2,3.1,2.9,4.7c-12.3-0.1-21.8,0-21.8,0
	v37.1h0v9h13.7c-6.9,6.3-16,10.2-26,10.2C-412.7,275-430,257.7-430,236.5z"/>
</svg>
