<svg xmlns="http://www.w3.org/2000/svg" xmlns:xlink="http://www.w3.org/1999/xlink" preserveAspectRatio="xMidYMid" width="80" height="82" viewBox="0 0 80 82">
  <defs>
    <style>
      .cls-1 {
        fill: #fff;
        fill-rule: evenodd;
      }
    </style>
  </defs>
  <path d="M75.000,42.000 C72.578,42.000 70.560,40.277 70.100,37.990 L45.950,42.015 C45.975,42.341 46.000,42.668 46.000,43.000 C46.000,47.432 43.778,51.340 40.392,53.687 L43.537,58.404 C44.436,57.539 45.653,57.000 47.000,57.000 C49.761,57.000 52.000,59.239 52.000,62.000 C52.000,64.761 49.761,67.000 47.000,67.000 C44.239,67.000 42.000,64.761 42.000,62.000 C42.000,60.960 42.319,59.995 42.862,59.195 L39.545,54.219 C37.621,55.344 35.390,56.000 33.000,56.000 C30.041,56.000 27.322,55.000 25.137,53.335 L8.547,73.479 C9.445,74.383 10.000,75.626 10.000,77.000 C10.000,79.761 7.761,82.000 5.000,82.000 C2.239,82.000 -0.000,79.761 -0.000,77.000 C-0.000,74.239 2.239,72.000 5.000,72.000 C6.027,72.000 6.981,72.312 7.776,72.843 L24.365,52.699 C21.693,50.318 20.000,46.861 20.000,43.000 C20.000,40.134 20.939,37.493 22.510,35.344 L9.169,23.486 C8.511,23.805 7.781,24.000 7.000,24.000 C4.239,24.000 2.000,21.761 2.000,19.000 C2.000,16.239 4.239,14.000 7.000,14.000 C9.761,14.000 12.000,16.239 12.000,19.000 C12.000,20.606 11.230,22.019 10.053,22.934 L23.128,34.556 C25.512,31.771 29.047,30.000 33.000,30.000 C34.708,30.000 36.335,30.337 37.828,30.937 L50.689,8.721 C49.661,7.805 49.000,6.486 49.000,5.000 C49.000,2.239 51.239,0.000 54.000,0.000 C56.761,0.000 59.000,2.239 59.000,5.000 C59.000,7.761 56.761,10.000 54.000,10.000 C53.086,10.000 52.241,9.737 51.504,9.309 L38.747,31.344 C42.470,33.188 45.182,36.764 45.834,41.021 L70.001,36.993 C70.005,34.235 72.241,32.000 75.000,32.000 C77.761,32.000 80.000,34.239 80.000,37.000 C80.000,39.761 77.761,42.000 75.000,42.000 Z" class="cls-1"/>
</svg>
