<?xml version="1.0" encoding="UTF-8"?>
<svg width="16px" height="16px" viewBox="0 0 16 16" version="1.1" xmlns="http://www.w3.org/2000/svg" xmlns:xlink="http://www.w3.org/1999/xlink">
    <!-- Generator: Sketch 64 (93537) - https://sketch.com -->
    <title>Shape</title>
    <desc>Created with Sketch.</desc>
    <g id="Page-ver.-3" stroke="none" stroke-width="1" fill="none" fill-rule="evenodd" stroke-linecap="round" stroke-linejoin="round">
        <g id="Mappr-Filters-Description-2" transform="translate(-1342.000000, -43.000000)" fill="#4B5561" fill-rule="nonzero">
            <g id="Content" transform="translate(213.000000, 20.000000)">
                <g id="Selected-Node" transform="translate(868.000000, 0.000000)">
                    <g id="crunchbase-icon" transform="translate(260.000000, 22.000000)">
                        <g id="A-link" transform="translate(0.123077, 0.123077)">
                            <g id="A">
                                <path d="M15.7340659,0.876923077 C16.3626374,0.876923077 16.8769231,1.39478022 16.8769231,2.03049451 L16.8769231,2.03049451 L16.8769231,15.7233516 C16.8769231,16.3590659 16.3626374,16.8769231 15.7340659,16.8769231 L15.7340659,16.8769231 L2.01620879,16.8769231 C1.38763736,16.8769231 0.876923077,16.3590659 0.876923077,15.7233516 L0.876923077,15.7233516 L0.876923077,2.03049451 C0.876923077,1.39478022 1.38763736,0.876923077 2.01620879,0.876923077 L2.01620879,0.876923077 Z M10.8024615,3.42756923 L9.57218462,3.42756923 L9.57218462,12.1126154 L10.8091077,12.1126154 L10.8091077,11.7958154 C11.8838154,12.552 13.3233231,12.5298462 14.3744,11.7416615 C15.4254769,10.9534769 15.8493538,9.57723077 15.4242462,8.33390769 C14.9991385,7.09058462 13.8242462,6.26227692 12.5073231,6.28246154 L12.2852923,6.28246154 C11.7533032,6.3213404 11.2413675,6.50167367 10.8024615,6.8048 L10.8024615,3.42756923 Z M4.94941538,6.31224615 C3.42449231,6.49489231 2.27692308,7.78818462 2.27692308,9.32369231 C2.28427953,10.8547394 3.43083919,12.1405785 4.95103966,12.3226496 C6.47124014,12.5047208 7.88902044,11.5260073 8.25772308,10.04 L6.88910769,10.04 C6.54129231,10.7816615 5.72283077,11.1796923 4.92430769,10.9960615 C4.12578462,10.8124308 3.56430769,10.0961231 3.57587692,9.27692308 C3.58744615,8.45772308 4.16664615,7.75766154 4.97230769,7.59643077 C5.77570518,7.43454532 6.58300952,7.85594382 6.90953846,8.60763077 L8.25772308,8.60763077 C7.89513846,7.11544615 6.47433846,6.1296 4.94941538,6.31224615 Z M12.528,7.60529231 C13.4616707,7.61768847 14.2196742,8.36375148 14.2468923,9.29710769 C14.2520875,9.37455913 14.2520875,9.45227164 14.2468923,9.52972308 L14.2468923,9.58584615 C14.2356239,9.6575803 14.2198387,9.72853163 14.1996308,9.79827692 C14.176,9.87384615 14.1504,9.94769231 14.1154462,10.0198154 L14.1154462,10.0444308 C13.8808052,10.5347254 13.4308418,10.8874683 12.8987077,10.9982769 L12.7337846,11.0228923 L12.6968615,11.0228923 C12.6339754,11.0263378 12.5709477,11.0263378 12.5080615,11.0228923 C12.4292923,11.0226462 12.3505231,11.0169846 12.2722462,11.0061538 L12.2180923,11.0061538 C12.0654769,10.9815385 11.9170462,10.936 11.7764923,10.8712615 L11.7427692,10.8712615 C11.6011896,10.8016992 11.4696946,10.713263 11.3518769,10.6083692 C11.2337231,10.5005538 11.1303385,10.3769846 11.0451692,10.2411077 C11.0033231,10.1721846 10.9659077,10.0998154 10.9339077,10.0254769 C10.7333435,9.56744941 10.7407037,9.04505672 10.9540923,8.59286154 C11.2147003,8.04254084 11.7436362,7.6681423 12.3492923,7.60529231 C12.4088185,7.60209124 12.4684738,7.60209124 12.528,7.60529231 Z" id="Shape"></path>
                            </g>
                        </g>
                    </g>
                </g>
            </g>
        </g>
    </g>
</svg>