<?xml version="1.0" encoding="UTF-8"?>
<svg width="16px" height="16px" viewBox="0 0 16 16" version="1.1" xmlns="http://www.w3.org/2000/svg" xmlns:xlink="http://www.w3.org/1999/xlink">
    <!-- Generator: Sketch 64 (93537) - https://sketch.com -->
    <title>Shape</title>
    <desc>Created with Sketch.</desc>
    <g id="Page-ver.-3" stroke="none" stroke-width="1" fill="none" fill-rule="evenodd">
        <g id="Mappr-Filters-Description-2" transform="translate(-1317.000000, -43.000000)" fill="#4B5561" fill-rule="nonzero">
            <g id="Content" transform="translate(213.000000, 20.000000)">
                <g id="Selected-Node" transform="translate(868.000000, 0.000000)">
                    <g id="linkedin-brands" transform="translate(236.000000, 23.000000)">
                        <path d="M14.8571429,0 L1.13928571,0 C0.510714286,0 0,0.517857143 0,1.15357143 L0,14.8464286 C0,15.4821429 0.510714286,16 1.13928571,16 L14.8571429,16 C15.4857143,16 16,15.4821429 16,14.8464286 L16,1.15357143 C16,0.517857143 15.4857143,0 14.8571429,0 Z M4.83571429,13.7142857 L2.46428571,13.7142857 L2.46428571,6.07857143 L4.83928571,6.07857143 L4.83928571,13.7142857 L4.83571429,13.7142857 Z M3.65,5.03571429 C2.88928571,5.03571429 2.275,4.41785714 2.275,3.66071429 C2.275,2.90357143 2.88928571,2.28571429 3.65,2.28571429 C4.40714286,2.28571429 5.025,2.90357143 5.025,3.66071429 C5.025,4.42142857 4.41071429,5.03571429 3.65,5.03571429 L3.65,5.03571429 Z M13.725,13.7142857 L11.3535714,13.7142857 L11.3535714,10 C11.3535714,9.11428571 11.3357143,7.975 10.1214286,7.975 C8.88571429,7.975 8.69642857,8.93928571 8.69642857,9.93571429 L8.69642857,13.7142857 L6.325,13.7142857 L6.325,6.07857143 L8.6,6.07857143 L8.6,7.12142857 L8.63214286,7.12142857 C8.95,6.52142857 9.725,5.88928571 10.8785714,5.88928571 C13.2785714,5.88928571 13.725,7.47142857 13.725,9.52857143 L13.725,13.7142857 L13.725,13.7142857 Z" id="Shape"></path>
                    </g>
                </g>
            </g>
        </g>
    </g>
</svg>