<?xml version="1.0" encoding="UTF-8"?>
<svg width="16px" height="16px" viewBox="0 0 16 16" version="1.1" xmlns="http://www.w3.org/2000/svg" xmlns:xlink="http://www.w3.org/1999/xlink">
    <!-- Generator: Sketch 64 (93537) - https://sketch.com -->
    <title>Shape</title>
    <desc>Created with Sketch.</desc>
    <g id="Page-1" stroke="none" stroke-width="1" fill="none" fill-rule="evenodd">
        <g id="mail" fill="#4B5561" fill-rule="nonzero">
            <path d="M14.2857143,0 L1.71428571,0 C0.7675,0 0,0.7675 0,1.71428571 L0,14.2857143 C0,15.2325 0.7675,16 1.71428571,16 L14.2857143,16 C15.2325,16 16,15.2325 16,14.2857143 L16,1.71428571 C16,0.7675 15.2325,0 14.2857143,0 Z M6.36132143,8.218 C3.12246429,5.86739286 3.15546429,5.86146429 2.28571429,5.18453571 L2.28571429,4.28571429 C2.28571429,3.81232143 2.66946429,3.42857143 3.14285714,3.42857143 L12.8571429,3.42857143 C13.3305357,3.42857143 13.7142857,3.81232143 13.7142857,4.28571429 L13.7142857,5.18453571 C12.8438929,5.862 12.8773571,5.86753571 9.63867857,8.21803571 C9.26367857,8.49142857 8.51753571,9.15089286 8,9.14282143 C7.48203571,9.15060714 6.73689286,8.49185714 6.36132143,8.218 L6.36132143,8.218 Z M13.7142857,6.63482143 L13.7142857,11.7142857 C13.7142857,12.1876786 13.3305357,12.5714286 12.8571429,12.5714286 L3.14285714,12.5714286 C2.66946429,12.5714286 2.28571429,12.1876786 2.28571429,11.7142857 L2.28571429,6.63482143 C2.78421429,7.02032143 3.47603571,7.53610714 5.68939286,9.14246429 C6.19517857,9.51178571 7.04564286,10.2905 7.99989286,10.2856786 C8.96014286,10.2904643 9.82264286,9.4985 10.3113214,9.14192857 C12.5241071,7.53603571 13.2157857,7.02028571 13.7142857,6.63482143 Z" id="Shape"></path>
        </g>
    </g>
</svg>