<?xml version="1.0" encoding="UTF-8"?>
<svg width="17px" height="16px" viewBox="0 0 17 16" version="1.1" xmlns="http://www.w3.org/2000/svg" xmlns:xlink="http://www.w3.org/1999/xlink">
    <!-- Generator: Sketch 64 (93537) - https://sketch.com -->
    <title>Shape</title>
    <desc>Created with Sketch.</desc>
    <g id="Page-ver.-3" stroke="none" stroke-width="1" fill="none" fill-rule="evenodd">
        <g id="Mappr-Filters" transform="translate(-533.000000, -121.000000)" fill="#7b7b7b" fill-rule="nonzero">
            <g id="Content" transform="translate(213.000000, 20.000000)">
                <g id="Filters" transform="translate(20.000000, 20.000000)">
                    <g id="Filters-+-Line-+-Line-+-Line-+-1-+-1-+-1-+-dropdown-Mask">
                        <g id="1" transform="translate(2.000000, 76.000000)">
                            <path d="M309.12,16.456 C306.451174,18.5291956 302.630374,18.1700799 300.394594,15.635902 C298.158813,13.1017241 298.278674,9.26595712 300.668316,6.87631571 C303.057957,4.48667431 306.893724,4.36681318 309.427902,6.6025937 C311.96208,8.83837421 312.321196,12.659174 310.248,15.328 L314.528,19.592 L313.392,20.728 L309.128,16.456 L309.12,16.456 Z M305.2,16.2 C306.914875,16.2 308.499485,15.2851252 309.356922,13.8 C310.214359,12.3148748 310.214359,10.4851252 309.356922,8.99999998 C308.499485,7.5148748 306.914875,6.6 305.2,6.6 C302.549033,6.6 300.4,8.74903323 300.4,11.4 C300.4,14.0509668 302.549033,16.2 305.2,16.2 L305.2,16.2 Z" id="Shape"></path>
                        </g>
                    </g>
                </g>
            </g>
        </g>
    </g>
</svg>
