<?xml version="1.0" encoding="UTF-8"?>
<svg width="10px" height="10px" viewBox="0 0 10 10" version="1.1" xmlns="http://www.w3.org/2000/svg" xmlns:xlink="http://www.w3.org/1999/xlink">
    <!-- Generator: Sketch 64 (93537) - https://sketch.com -->
    <title>arrow-left-solid</title>
    <desc>Created with Sketch.</desc>
    <g id="Page-ver.-3" stroke="none" stroke-width="1" fill="none" fill-rule="evenodd">
        <g id="Mappr-Legend" transform="translate(-1209.000000, -48.000000)" fill="#323C47" fill-rule="nonzero">
            <g id="Content" transform="translate(213.000000, 20.000000)">
                <g id="Control" transform="translate(935.000000, 20.000000)">
                    <g id="Group-2" transform="translate(52.000000, 0.000000)">
                        <g id="arrow-left-solid" transform="translate(14.000000, 13.000000) scale(-1, 1) translate(-14.000000, -13.000000) translate(9.000000, 8.000000)">
                            <path d="M5.75723831,9.08908686 L5.26280624,9.58351893 C5.05345212,9.79287305 4.71492205,9.79287305 4.5077951,9.58351893 L0.178173719,5.25612472 C-0.0311804009,5.0467706 -0.0311804009,4.70824053 0.178173719,4.50111359 L4.5077951,0.171492205 C4.71714922,-0.0378619154 5.05567929,-0.0378619154 5.26280624,0.171492205 L5.75723831,0.665924276 C5.9688196,0.877505568 5.96436526,1.22271715 5.74832962,1.4298441 L3.06458797,3.98663697 L9.46547884,3.98663697 C9.76169265,3.98663697 10,4.22494432 10,4.52115813 L10,5.23385301 C10,5.53006682 9.76169265,5.76837416 9.46547884,5.76837416 L3.06458797,5.76837416 L5.74832962,8.32516704 C5.96659243,8.53229399 5.97104677,8.87750557 5.75723831,9.08908686 Z" id="Path"></path>
                        </g>
                    </g>
                </g>
            </g>
        </g>
    </g>
</svg>