<svg width="53" height="53" viewBox="0 0 53 53" fill="none" xmlns="http://www.w3.org/2000/svg">
<g clip-path="url(#clip0_285_1771)">
<rect x="-1" y="15.0737" width="3.00707" height="18.0645" fill="#1C3D82"/>
<rect x="39.4842" y="-1" width="3.00781" height="20.5655" transform="rotate(90 39.4842 -1)" fill="#1C3D82"/>
<g filter="url(#filter0_d_285_1771)">
<rect x="-9.0061" y="22.4136" width="51.5522" height="14" transform="rotate(-40 -9.0061 22.4136)" fill="#2E66D9"/>
</g>
<path d="M8.18948 17.8835L6.78682 19.0605L6.05745 18.2065L7.19455 17.2523C7.39903 17.0807 7.54353 16.9212 7.62806 16.7738C7.71049 16.6239 7.74147 16.4811 7.721 16.3453C7.70303 16.2074 7.63755 16.0711 7.52456 15.9364C7.39483 15.7818 7.26153 15.6812 7.12467 15.6346C6.9878 15.5879 6.83924 15.5957 6.67899 15.658C6.51914 15.7156 6.34196 15.826 6.14746 15.9892L5.5041 16.5291L9.22336 20.9615L7.91046 22.0632L3.34064 16.6171L5.2969 14.9756C5.63354 14.6931 5.96017 14.4721 6.27681 14.3127C6.59135 14.1507 6.8932 14.0547 7.18235 14.0245C7.47399 13.9923 7.74795 14.0301 8.00422 14.138C8.25841 14.2434 8.49221 14.4233 8.70564 14.6777C8.89186 14.8996 9.0192 15.1476 9.08765 15.4216C9.1561 15.6956 9.13062 15.9868 9.01121 16.2952C8.89221 16.5991 8.64404 16.9135 8.26669 17.2387L8.18948 17.8835ZM10.0799 20.2428L8.41168 21.6426L8.01311 20.256L9.23249 19.2329C9.41204 19.0822 9.5324 18.9345 9.5936 18.7896C9.65519 18.6402 9.67097 18.4995 9.64093 18.3675C9.61129 18.2309 9.54834 18.1052 9.45209 17.9905C9.33492 17.8509 9.20975 17.7498 9.07658 17.6873C8.94591 17.6227 8.80768 17.6049 8.6619 17.6337C8.51403 17.66 8.35656 17.7433 8.18948 17.8835L7.08605 18.8094L6.37165 17.9428L7.69203 16.8349L8.2875 16.9216C8.63902 16.6012 8.96993 16.4106 9.28023 16.35C9.59302 16.2872 9.87611 16.3131 10.1295 16.4277C10.3829 16.5423 10.5974 16.7044 10.7732 16.9138C11.0724 17.2704 11.2452 17.6333 11.2914 18.0024C11.3402 18.3694 11.2627 18.7404 11.0589 19.1154C10.8551 19.4903 10.5288 19.8661 10.0799 20.2428ZM15.909 13.6306L16.7565 14.6405L13.8539 17.076L13.0065 16.0661L15.909 13.6306ZM9.75162 11.2376L14.3214 16.6837L13.0085 17.7854L8.43872 12.3393L9.75162 11.2376ZM13.6267 11.6702L14.4459 12.6465L11.9174 14.7682L11.0982 13.7919L13.6267 11.6702ZM12.1979 9.18497L13.0484 10.1986L10.1346 12.6436L9.28407 11.6299L12.1979 9.18497ZM15.5903 6.33838L20.1601 11.7845L18.8472 12.8861L14.2774 7.44003L15.5903 6.33838ZM17.2286 4.96366L18.0792 5.97733L13.5271 9.79702L12.6765 8.78335L17.2286 4.96366ZM20.7511 3.95842L23.0327 9.37414L21.6225 10.5574L19.0538 3.43215L19.9478 2.68202L20.7511 3.95842ZM25.4602 7.33719L20.5192 4.15301L19.3867 3.15281L20.2919 2.39327L26.8741 6.15079L25.4602 7.33719ZM23.7036 5.35006L24.5541 6.36372L21.76 8.70827L20.9095 7.6946L23.7036 5.35006Z" fill="white"/>
</g>
<defs>
<filter id="filter0_d_285_1771" x="-12.0061" y="-13.7235" width="56.4903" height="51.8617" filterUnits="userSpaceOnUse" color-interpolation-filters="sRGB">
<feFlood flood-opacity="0" result="BackgroundImageFix"/>
<feColorMatrix in="SourceAlpha" type="matrix" values="0 0 0 0 0 0 0 0 0 0 0 0 0 0 0 0 0 0 127 0" result="hardAlpha"/>
<feOffset dx="1" dy="1"/>
<feGaussianBlur stdDeviation="2"/>
<feComposite in2="hardAlpha" operator="out"/>
<feColorMatrix type="matrix" values="0 0 0 0 0 0 0 0 0 0 0 0 0 0 0 0 0 0 0.25 0"/>
<feBlend mode="normal" in2="BackgroundImageFix" result="effect1_dropShadow_285_1771"/>
<feBlend mode="normal" in="SourceGraphic" in2="effect1_dropShadow_285_1771" result="shape"/>
</filter>
<clipPath id="clip0_285_1771">
<rect width="53" height="53" fill="white"/>
</clipPath>
</defs>
</svg>
