<?xml version="1.0" encoding="UTF-8"?>
<svg width="8px" height="8px" viewBox="0 0 8 8" version="1.1" xmlns="http://www.w3.org/2000/svg" xmlns:xlink="http://www.w3.org/1999/xlink">
    <!-- Generator: Sketch 64 (93537) - https://sketch.com -->
    <title>Shape</title>
    <desc>Created with Sketch.</desc>
    <g id="Page-ver.-3" stroke="none" stroke-width="1" fill="none" fill-rule="evenodd">
        <g id="Mappr-Search" transform="translate(-1370.000000, -67.000000)" fill="#AEAEAE" fill-rule="nonzero">
            <g id="Content" transform="translate(213.000000, 20.000000)">
                <g id="Search-Bar" transform="translate(380.000000, 20.000000)">
                    <path d="M782,30 L785,30 C785.552285,30 786,30.4477153 786,31 C786,31.5522847 785.552285,32 785,32 L782,32 L782,32 L782,35 C782,35.5522847 781.552285,36 781,36 C780.447715,36 780,35.5522847 780,35 L780,32 L780,32 L777,32 C776.447715,32 776,31.5522847 776,31 C776,30.4477153 776.447715,30 777,30 L780,30 L780,30 L780,27 C780,26.4477153 780.447715,26 781,26 C781.552285,26 782,26.4477153 782,27 L782,30 L782,30 Z" id="Shape" transform="translate(781.000000, 31.000000) rotate(45.000000) translate(-781.000000, -31.000000) "></path>
                </g>
            </g>
        </g>
    </g>
</svg>