<?xml version="1.0" encoding="UTF-8"?>
<svg width="8px" height="8px" viewBox="0 0 8 8" version="1.1" xmlns="http://www.w3.org/2000/svg" xmlns:xlink="http://www.w3.org/1999/xlink">
    <!-- Generator: Sketch 64 (93537) - https://sketch.com -->
    <title>Combined Shape</title>
    <desc>Created with Sketch.</desc>
    <g id="Page-ver.-3" stroke="none" stroke-width="1" fill="none" fill-rule="evenodd">
        <g id="Mappr-Legend" transform="translate(-1236.000000, -49.000000)" fill="#323C47">
            <g id="Content" transform="translate(213.000000, 20.000000)">
                <g id="Control" transform="translate(935.000000, 20.000000)">
                    <g id="Group-2" transform="translate(78.000000, 0.000000)">
                        <path d="M14,9 C14.5522847,9 15,9.44771525 15,10 L15,12 L17,12 C17.5522847,12 18,12.4477153 18,13 C18,13.5522847 17.5522847,14 17,14 L15,14 L15,16 C15,16.5522847 14.5522847,17 14,17 C13.4477153,17 13,16.5522847 13,16 L12.999,14 L11,14 C10.4477153,14 10,13.5522847 10,13 C10,12.4477153 10.4477153,12 11,12 L13,12 L13,10 C13,9.44771525 13.4477153,9 14,9 Z" id="Combined-Shape" transform="translate(14.000000, 13.000000) rotate(45.000000) translate(-14.000000, -13.000000) "></path>
                    </g>
                </g>
            </g>
        </g>
    </g>
</svg>