<?xml version="1.0" encoding="UTF-8"?>
<svg width="17px" height="16px" viewBox="0 0 17 16" version="1.1" xmlns="http://www.w3.org/2000/svg" xmlns:xlink="http://www.w3.org/1999/xlink">
    <!-- Generator: Sketch 64 (93537) - https://sketch.com -->
    <title>1</title>
    <desc>Created with Sketch.</desc>
    <g id="Page-ver.-3" stroke="none" stroke-width="1" fill="none" fill-rule="evenodd">
        <g id="Mappr-Search" transform="translate(-617.000000, -63.000000)" fill="#001C29" fill-rule="nonzero">
            <g id="Content" transform="translate(213.000000, 20.000000)">
                <g id="Search-Bar" transform="translate(380.000000, 20.000000)">
                    <g id="1" transform="translate(24.000000, 23.000000)">
                        <path d="M11.12,11.456 C8.45117401,13.5291956 4.63037421,13.1700799 2.3945937,10.635902 C0.15881318,8.10172412 0.278674306,4.26595712 2.66831571,1.87631571 C5.05795712,-0.513325694 8.89372412,-0.63318682 11.427902,1.6025937 C13.9620799,3.83837421 14.3211956,7.65917401 12.248,10.328 L16.528,14.592 L15.392,15.728 L11.128,11.456 L11.12,11.456 Z M7.2,11.2 C8.91487485,11.2 10.4994846,10.2851252 11.356922,8.80000002 C12.2143594,7.31487484 12.2143594,5.48512516 11.356922,3.99999998 C10.4994846,2.5148748 8.91487485,1.6 7.2,1.6 C4.54903323,1.6 2.40000007,3.74903323 2.40000007,6.4 C2.40000007,9.05096677 4.54903323,11.2 7.2,11.2 L7.2,11.2 Z" id="Shape"></path>
                    </g>
                </g>
            </g>
        </g>
    </g>
</svg>