<?xml version="1.0" encoding="UTF-8"?>
<svg width="12px" height="12px" viewBox="0 0 12 12" version="1.1" xmlns="http://www.w3.org/2000/svg" xmlns:xlink="http://www.w3.org/1999/xlink">
    <!-- Generator: Sketch 64 (93537) - https://sketch.com -->
    <title>Shape</title>
    <desc>Created with Sketch.</desc>
    <g id="Page-ver.-3" stroke="none" stroke-width="1" fill="none" fill-rule="evenodd">
        <g id="Mappr-Legend" transform="translate(-1356.000000, -47.000000)" fill="#323C47">
            <g id="Content" transform="translate(213.000000, 20.000000)">
                <g id="Control" transform="translate(935.000000, 20.000000)">
                    <g id="Group-2" transform="translate(200.000000, 0.000000)">
                        <path d="M19.7301759,17.152135 L16.8603447,14.2825364 C17.2922386,13.5714651 17.5423228,12.7361289 17.5423228,11.8432626 C17.5423228,9.2482741 15.2930993,7 12.6986677,7 C10.104236,7 8,9.10406546 8,11.699054 C8,14.2940424 10.2492234,16.5415495 12.842888,16.5415495 C13.7059086,16.5415495 14.514463,16.307594 15.2087151,15.9025825 L18.094656,18.7882894 C18.3769596,19.0705702 18.8349359,19.0705702 19.1172395,18.7882894 L19.8337384,18.0726157 C20.1145077,17.7895679 20.0124795,17.4344158 19.7301759,17.152135 L19.7301759,17.152135 Z M9.44450469,11.6982869 C9.44450469,9.90181539 10.9005163,8.44515469 12.6971334,8.44515469 C14.4945176,8.44515469 16.0955167,10.046024 16.0955167,11.8432626 C16.0955167,13.6397341 14.6395051,15.0956277 12.8421209,15.0956277 C11.0455038,15.0956277 9.44450469,13.4947584 9.44450469,11.6982869 L9.44450469,11.6982869 Z" id="Shape"></path>
                    </g>
                </g>
            </g>
        </g>
    </g>
</svg>