<svg width="24" height="24" viewBox="0 0 24 24" fill="none" xmlns="http://www.w3.org/2000/svg">
<path d="M8.55286 10.1141C9.59439 11.1556 9.59439 12.8443 8.55286 13.8858C7.51133 14.9273 5.82268 14.9273 4.78115 13.8858C3.73962 12.8443 3.73962 11.1556 4.78115 10.1141C5.82268 9.07256 7.51133 9.07256 8.55286 10.1141" stroke="#616161" stroke-width="1.5" stroke-linecap="round" stroke-linejoin="round"/>
<path d="M19.2189 4.78115C20.2604 5.82268 20.2604 7.51133 19.2189 8.55286C18.1773 9.59439 16.4887 9.59439 15.4472 8.55286C14.4056 7.51133 14.4056 5.82268 15.4472 4.78115C16.4887 3.73962 18.1773 3.73962 19.2189 4.78115" stroke="#616161" stroke-width="1.5" stroke-linecap="round" stroke-linejoin="round"/>
<path d="M19.2189 15.4471C20.2604 16.4886 20.2604 18.1773 19.2189 19.2188C18.1773 20.2603 16.4887 20.2603 15.4472 19.2188C14.4056 18.1773 14.4056 16.4886 15.4472 15.4471C16.4887 14.4056 18.1773 14.4056 19.2189 15.4471" stroke="#616161" stroke-width="1.5" stroke-linecap="round" stroke-linejoin="round"/>
<path d="M9.04004 10.81L14.96 7.84998" stroke="#616161" stroke-width="1.5" stroke-linecap="round" stroke-linejoin="round"/>
<path d="M9.04004 13.19L14.96 16.15" stroke="#616161" stroke-width="1.5" stroke-linecap="round" stroke-linejoin="round"/>
</svg>
