<svg width="22" height="22" viewBox="0 0 22 22" fill="none" xmlns="http://www.w3.org/2000/svg">
<path d="M11 7.33333C8.97419 7.33333 7.33335 8.97417 7.33335 11C7.33335 13.0258 8.97419 14.6667 11 14.6667C13.0259 14.6667 14.6667 13.0258 14.6667 11C14.6667 8.97417 13.0259 7.33333 11 7.33333ZM19.195 10.0833C18.7734 6.26083 15.7392 3.22667 11.9167 2.805V0.916668H10.0834V2.805C6.26085 3.22667 3.22669 6.26083 2.80502 10.0833H0.916687V11.9167H2.80502C3.22669 15.7392 6.26085 18.7733 10.0834 19.195V21.0833H11.9167V19.195C15.7392 18.7733 18.7734 15.7392 19.195 11.9167H21.0834V10.0833H19.195ZM11 17.4167C7.45252 17.4167 4.58335 14.5475 4.58335 11C4.58335 7.4525 7.45252 4.58333 11 4.58333C14.5475 4.58333 17.4167 7.4525 17.4167 11C17.4167 14.5475 14.5475 17.4167 11 17.4167Z" fill="#8597A6"/>
</svg>
