<?xml version="1.0" encoding="utf-8"?>
<!-- Generator: Adobe Illustrator 19.1.0, SVG Export Plug-In . SVG Version: 6.00 Build 0)  -->
<svg version="1.1" id="Layer_1" xmlns="http://www.w3.org/2000/svg" xmlns:xlink="http://www.w3.org/1999/xlink" x="0px" y="0px"
	 viewBox="-285 -114 388 388.7" style="enable-background:new -285 -114 388 388.7;" xml:space="preserve">
<style type="text/css">
	.st0{fill:#918E8E;}
</style>
<g>
	<g>
		<g>
			<path class="st0" d="M-91.1,274.7c-106.9,0-193.9-87-193.9-193.9C-285-26-198-113-91.1-113c106.9,0,193.9,87,193.9,193.9
				C102.7,187.8,15.8,274.7-91.1,274.7L-91.1,274.7z M-91.1-105C-193.6-105-277-21.6-277,80.9c0,102.5,83.4,185.9,185.9,185.9
				c102.5,0,185.9-83.4,185.9-185.9C94.7-21.6,11.3-105-91.1-105L-91.1-105z"/>
			<polygon class="st0" points="-91.2,86.3 -172.9,58.6 -244.2,82.8 -91.2,134.6 61.7,82.8 -9.6,58.6 			"/>
			<polygon class="st0" points="-91.2,147.3 -172.9,119.6 -244.2,143.8 -91.2,195.6 61.7,143.8 -9.6,119.6 			"/>
			<polygon class="st0" points="-244.2,21.4 -91.2,-30.4 61.7,21.4 -91.2,73.3 			"/>
		</g>
	</g>
</g>
</svg>
