<?xml version="1.0" encoding="utf-8"?>
<!-- Generator: Adobe Illustrator 19.1.0, SVG Export Plug-In . SVG Version: 6.00 Build 0)  -->
<svg version="1.1" id="Layer_1" xmlns="http://www.w3.org/2000/svg" xmlns:xlink="http://www.w3.org/1999/xlink" x="0px" y="0px"
	 viewBox="-450 222 58 58.5" style="enable-background:new -450 222 58 58.5;" xml:space="preserve">
<style type="text/css">
	.st0{fill:#4B94C6;}
</style>
<g>
	<g>
		<path class="st0" d="M-425.1,225.4c0,16.7,0,33.3,0,50c0,4.5,7,4.5,7,0c0-16.7,0-33.3,0-50C-418.1,220.9-425.1,220.9-425.1,225.4
			L-425.1,225.4z"/>
	</g>
</g>
<g>
	<g>
		<path class="st0" d="M-396.6,246.9c-16.7,0-33.3,0-50,0c-4.5,0-4.5,7,0,7c16.7,0,33.3,0,50,0
			C-392.1,253.9-392.1,246.9-396.6,246.9c-16.7,0-33.3,0-50,0c-4.5,0-4.5,7,0,7c16.7,0,33.3,0,50,0
			C-392.1,253.9-392.1,246.9-396.6,246.9z"/>
	</g>
</g>
</svg>
