<?xml version="1.0" encoding="utf-8"?>
<!-- Generator: Adobe Illustrator 19.1.0, SVG Export Plug-In . SVG Version: 6.00 Build 0)  -->
<svg version="1.1" id="Layer_1" xmlns="http://www.w3.org/2000/svg" xmlns:xlink="http://www.w3.org/1999/xlink" x="0px" y="0px"
	 viewBox="-441 210 77 70.1" style="enable-background:new -441 210 77 70.1;" xml:space="preserve">
<style type="text/css">
	.st0{fill:#E77C80;}
</style>
<path class="st0" d="M-385.3,225.7c-5.8,0-10.9,2.5-14.5,6.4c-3.9-2.8-9-5.5-15.6-7.5c0.1-0.7,0.2-1.5,0.2-2.2
	c0-6.3-5.1-11.3-11.3-11.3c-6.3,0-11.3,5.1-11.3,11.3c0,3.8,1.9,7.1,4.7,9.2c-1,3.2-1.6,7.1-1.4,11.8l-3.6,0.5l6.3,8l3.7-9.5
	l-3.5,0.5c-0.2-3.9,0.3-7.2,1.1-10c1.2,0.5,2.5,0.7,3.9,0.7c4.4,0,8.2-2.5,10.1-6.2c6.2,1.9,11,4.4,14.6,7c-2.1,3.1-3.3,6.9-3.3,11
	c0,3,0.7,5.8,1.9,8.4c-4.6,3.3-8.9,5.4-12.6,6.6c-2.3-4.1-6.6-6.8-11.5-6.8c-7.3,0-13.2,5.9-13.2,13.2c0,7.3,5.9,13.2,13.2,13.2
	c7.3,0,13.2-5.9,13.2-13.2c0-1.2-0.2-2.4-0.5-3.5c3.9-1.3,8.3-3.4,12.9-6.8c3.6,5.3,9.6,8.7,16.4,8.7c10.9,0,19.8-8.9,19.8-19.8
	C-365.5,234.5-374.3,225.7-385.3,225.7z"/>
</svg>
