<?xml version="1.0" encoding="UTF-8"?>
<svg width="14px" height="14px" viewBox="0 0 14 14" version="1.1" xmlns="http://www.w3.org/2000/svg" xmlns:xlink="http://www.w3.org/1999/xlink">
    <!-- Generator: Sketch 64 (93537) - https://sketch.com -->
    <title>Shape</title>
    <desc>Created with Sketch.</desc>
    <g id="Page-ver.-3" stroke="none" stroke-width="1" fill="none" fill-rule="evenodd">
        <g id="Mappr-Legend" transform="translate(-1381.000000, -46.000000)" fill="#323C47">
            <g id="Content" transform="translate(213.000000, 20.000000)">
                <g id="Control" transform="translate(935.000000, 20.000000)">
                    <g id="Group-2" transform="translate(226.000000, 0.000000)">
                        <path d="M13.9062448,6.00063393 C10.0407626,6.05212522 6.94914537,9.2276774 7.0006339,13.0933665 C7.05212243,16.9598242 10.2282731,20.051607 14.0929867,19.9993471 C17.9592374,19.9486244 21.0508546,16.7723037 20.9993661,12.9066145 C20.9471091,9.04092542 17.7717269,5.94914265 13.9062448,6.00063393 L13.9062448,6.00063393 Z M13.9185405,6.91364361 C14.9606069,6.89981013 15.9458053,7.14881277 16.8095831,7.59993792 L15.8674198,9.1700379 C15.3033514,8.89490535 14.6693509,8.73889444 13.9992315,8.73889444 C13.3291121,8.73889444 12.6958801,8.89413683 12.1310432,9.1700379 L11.1896485,7.60070645 C12.0073171,7.17494268 12.9333421,6.92670856 13.9185405,6.91364361 L13.9185405,6.91364361 Z M10.1698682,14.8686631 L8.60062075,15.8101083 C8.17487977,14.9931644 7.92665895,14.0663213 7.9135947,13.0818386 C7.89976196,12.0397165 8.14951975,11.0544653 8.59985226,10.1906413 L10.1698682,11.132855 C9.89475036,11.6969536 9.7387478,12.3309881 9.7387478,13.0011433 C9.7387478,13.6705301 9.89398188,14.3045646 10.1698682,14.8686631 L10.1698682,14.8686631 Z M14.0814595,19.0878745 C13.0386246,19.101708 12.0541947,18.8519368 11.1896485,18.4015802 L12.1318117,16.8314802 C12.6958801,17.1066128 13.3291121,17.2626237 13.9992315,17.2626237 C14.6693509,17.2626237 15.302583,17.1073813 15.8666513,16.8314802 L16.8080461,18.4008117 C15.9919145,18.8265755 15.0658894,19.074041 14.0814595,19.0878745 L14.0814595,19.0878745 Z M13.9992315,16.3488455 C12.1502554,16.3488455 10.6517086,14.84945 10.6517086,13.0011433 C10.6517086,11.1520682 12.1510238,9.65344117 13.9992315,9.65344117 C15.8482077,9.65344117 17.3467544,11.1520682 17.3467544,13.0011433 C17.3475229,14.84945 15.8489762,16.3488455 13.9992315,16.3488455 L13.9992315,16.3488455 Z M17.8301318,14.8686631 C18.1052496,14.3045646 18.2612522,13.6705301 18.2612522,13.0003748 C18.2612522,12.3302195 18.1060181,11.6961851 17.8301318,11.1320865 L19.3993793,10.1906413 C19.8251202,11.0075852 20.0733411,11.9336598 20.0864053,12.9181424 C20.100238,13.9610331 19.8504803,14.9455158 19.4001477,15.8101083 L17.8301318,14.8686631 L17.8301318,14.8686631 Z" id="Shape"></path>
                    </g>
                </g>
            </g>
        </g>
    </g>
</svg>