<svg width="26" height="26" viewBox="0 0 26 26" fill="none" xmlns="http://www.w3.org/2000/svg">
<path d="M6.62549 19.3576C9.50418 22.2444 13.9634 22.8367 17.4959 20.8015C21.0284 18.7663 22.7525 14.6115 21.6989 10.6731C20.6454 6.73478 17.077 3.9958 13.0001 3.99622" stroke="#818181" stroke-width="1.5" stroke-linecap="round" stroke-linejoin="round"/>
<path d="M11.9998 16.5014H14.3101" stroke="#818181" stroke-width="1.5" stroke-linecap="round" stroke-linejoin="round"/>
<path d="M13.1593 16.5015V12.2497H12.0088" stroke="#818181" stroke-width="1.5" stroke-linecap="round" stroke-linejoin="round"/>
<path d="M13.1002 9.24569C13.1002 9.38382 12.9882 9.4958 12.8501 9.4958C12.7119 9.4958 12.6 9.38382 12.6 9.24569C12.6 9.10756 12.7119 8.99559 12.8501 8.99559" stroke="#818181" stroke-width="1.5" stroke-linecap="round" stroke-linejoin="round"/>
<path d="M12.85 8.99558C12.9881 8.99558 13.1001 9.10755 13.1001 9.24568" stroke="#818181" stroke-width="1.5" stroke-linecap="round" stroke-linejoin="round"/>
<path d="M9.62372 4.72756C9.62372 4.75519 9.60132 4.77759 9.57369 4.77759C9.54607 4.77759 9.52367 4.75519 9.52367 4.72756C9.52367 4.69994 9.54607 4.67754 9.57369 4.67754" stroke="#818181" stroke-width="1.5" stroke-linecap="round" stroke-linejoin="round"/>
<path d="M9.57359 4.67753C9.60121 4.67753 9.62361 4.69992 9.62361 4.72755" stroke="#818181" stroke-width="1.5" stroke-linecap="round" stroke-linejoin="round"/>
<path d="M6.71844 6.66836C6.71844 6.68859 6.70626 6.70683 6.68756 6.71457C6.66887 6.72231 6.64736 6.71804 6.63305 6.70373C6.61875 6.68942 6.61447 6.66791 6.62221 6.64922C6.62995 6.63053 6.64819 6.61834 6.66842 6.61834" stroke="#818181" stroke-width="1.5" stroke-linecap="round" stroke-linejoin="round"/>
<path d="M6.66856 6.61833C6.69618 6.61833 6.71858 6.64072 6.71858 6.66835" stroke="#818181" stroke-width="1.5" stroke-linecap="round" stroke-linejoin="round"/>
<path d="M4.77777 9.57357C4.77777 9.6012 4.75537 9.62359 4.72775 9.62359C4.70012 9.62359 4.67773 9.6012 4.67773 9.57357C4.67773 9.54595 4.70012 9.52355 4.72775 9.52355" stroke="#818181" stroke-width="1.5" stroke-linecap="round" stroke-linejoin="round"/>
<path d="M4.72764 9.52354C4.74091 9.52354 4.75363 9.52881 4.76301 9.53819C4.77239 9.54757 4.77766 9.56029 4.77766 9.57356" stroke="#818181" stroke-width="1.5" stroke-linecap="round" stroke-linejoin="round"/>
<path d="M4.09637 13C4.09637 13.0203 4.08419 13.0385 4.06549 13.0462C4.0468 13.054 4.02529 13.0497 4.01098 13.0354C3.99668 13.0211 3.9924 12.9996 4.00014 12.9809C4.00788 12.9622 4.02612 12.95 4.04635 12.95" stroke="#818181" stroke-width="1.5" stroke-linecap="round" stroke-linejoin="round"/>
<path d="M4.04649 12.95C4.07411 12.95 4.09651 12.9724 4.09651 13" stroke="#818181" stroke-width="1.5" stroke-linecap="round" stroke-linejoin="round"/>
<path d="M4.77777 16.4264C4.77777 16.454 4.75537 16.4764 4.72775 16.4764C4.70012 16.4764 4.67773 16.454 4.67773 16.4264C4.67773 16.3988 4.70012 16.3764 4.72775 16.3764" stroke="#818181" stroke-width="1.5" stroke-linecap="round" stroke-linejoin="round"/>
<path d="M4.72764 16.3764C4.75527 16.3764 4.77766 16.3988 4.77766 16.4264" stroke="#818181" stroke-width="1.5" stroke-linecap="round" stroke-linejoin="round"/>
</svg>
