<svg width="18" height="19" viewBox="0 0 18 19" fill="none" xmlns="http://www.w3.org/2000/svg">
<path d="M8.99997 18.1743C4.03774 18.1743 0 14.1143 0 9.10312C0 4.08403 4.03774 0 8.99997 0C13.9623 0 18 4.08403 18 9.10312C17.9921 14.1143 13.9544 18.1743 8.99997 18.1743ZM8.99997 0.855112C4.50393 0.855112 0.845473 4.54756 0.845473 9.1031C0.845473 13.6507 4.49604 17.3512 8.99997 17.3512C13.4961 17.3512 17.1308 13.6347 17.1308 9.1031C17.1229 4.57153 13.4723 0.855112 8.99997 0.855112Z" fill="#616161"/>
<path d="M9.00006 16.1843C5.12829 16.1843 1.9834 13.0034 1.9834 9.08722C1.9834 5.171 5.12829 1.99011 9.00006 1.99011C12.8719 1.99011 16.0168 5.171 16.0168 9.08722C16.0089 13.0034 12.864 16.1843 9.00006 16.1843ZM9.00006 2.82928C5.58659 2.82928 2.82887 5.6186 2.82887 9.07125C2.82887 12.5238 5.58659 15.3132 9.00006 15.3132C12.4136 15.3132 15.1713 12.5238 15.1713 9.07125C15.1633 5.64256 12.4057 2.82928 9.00006 2.82928Z" fill="#616161"/>
<path d="M14.0805 8.53594C13.8119 5.93843 11.6389 3.91638 8.99975 3.91638C6.36063 3.91638 4.18765 5.93843 3.91113 8.54389H14.0805V8.53594Z" fill="#616161"/>
<path d="M3.91113 9.63879C4.17975 12.2363 6.35273 14.2663 8.99975 14.2663C11.6389 14.2663 13.8119 12.2443 14.0884 9.63879H3.91113Z" fill="#616161"/>
</svg>
