<?xml version="1.0" encoding="UTF-8"?>
<svg width="18px" height="15px" viewBox="0 0 18 15" version="1.1" xmlns="http://www.w3.org/2000/svg" xmlns:xlink="http://www.w3.org/1999/xlink">
    <!-- Generator: Sketch 64 (93537) - https://sketch.com -->
    <title>Shape</title>
    <desc>Created with Sketch.</desc>
    <g id="Page-ver.-3" stroke="none" stroke-width="1" fill="none" fill-rule="evenodd">
        <g id="Mappr-Info-Page" transform="translate(-19.000000, -269.000000)" fill="#C2CFE1" fill-rule="nonzero">
            <g id="Slide-bar" transform="translate(-1.000000, 0.000000)">
                <g id="Menu" transform="translate(0.000000, 80.000000)">
                    <g id="list-solid" transform="translate(20.000000, 189.000000)">
                        <path d="M2.8125,11.25 L0.5625,11.25 C0.251839828,11.25 0,11.5018398 0,11.8125 L0,14.0625 C0,14.3731602 0.251839828,14.625 0.5625,14.625 L2.8125,14.625 C3.12316017,14.625 3.375,14.3731602 3.375,14.0625 L3.375,11.8125 C3.375,11.5018398 3.12316017,11.25 2.8125,11.25 Z M2.8125,0 L0.5625,0 C0.251839828,0 0,0.251839828 0,0.5625 L0,2.8125 C0,3.12316017 0.251839828,3.375 0.5625,3.375 L2.8125,3.375 C3.12316017,3.375 3.375,3.12316017 3.375,2.8125 L3.375,0.5625 C3.375,0.251839828 3.12316017,0 2.8125,0 Z M2.8125,5.625 L0.5625,5.625 C0.251839828,5.625 0,5.87683983 0,6.1875 L0,8.4375 C0,8.74816017 0.251839828,9 0.5625,9 L2.8125,9 C3.12316017,9 3.375,8.74816017 3.375,8.4375 L3.375,6.1875 C3.375,5.87683983 3.12316017,5.625 2.8125,5.625 Z M17.4375,11.8125 L6.1875,11.8125 C5.87683983,11.8125 5.625,12.0643398 5.625,12.375 L5.625,13.5 C5.625,13.8106602 5.87683983,14.0625 6.1875,14.0625 L17.4375,14.0625 C17.7481602,14.0625 18,13.8106602 18,13.5 L18,12.375 C18,12.0643398 17.7481602,11.8125 17.4375,11.8125 Z M17.4375,0.5625 L6.1875,0.5625 C5.87683983,0.5625 5.625,0.814339828 5.625,1.125 L5.625,2.25 C5.625,2.56066017 5.87683983,2.8125 6.1875,2.8125 L17.4375,2.8125 C17.7481602,2.8125 18,2.56066017 18,2.25 L18,1.125 C18,0.814339828 17.7481602,0.5625 17.4375,0.5625 Z M17.4375,6.1875 L6.1875,6.1875 C5.87683983,6.1875 5.625,6.43933983 5.625,6.75 L5.625,7.875 C5.625,8.18566017 5.87683983,8.4375 6.1875,8.4375 L17.4375,8.4375 C17.7481602,8.4375 18,8.18566017 18,7.875 L18,6.75 C18,6.43933983 17.7481602,6.1875 17.4375,6.1875 Z" id="Shape"></path>
                    </g>
                </g>
            </g>
        </g>
    </g>
</svg>