<?xml version="1.0" encoding="UTF-8"?>
<svg width="18px" height="16px" viewBox="0 0 18 16" version="1.1" xmlns="http://www.w3.org/2000/svg" xmlns:xlink="http://www.w3.org/1999/xlink">
    <g id="Page-ver.-3" stroke="none" stroke-width="1" fill="none" fill-rule="evenodd">
        <g id="Mappr-Filters" transform="translate(-19.000000, -372.000000)" fill="#FFFFFF" fill-rule="nonzero">
            <g id="Slide-bar" transform="translate(-1.000000, 0.000000)">
                <g id="Menu" transform="translate(0.000000, 80.000000)">
                    <g id="Group-3" transform="translate(1.000000, 280.000000)">
                        <g id="exclamation-triangle-solid" transform="translate(19.000000, 12.000000)">
                            <g id="comment-regular">
                                <path d="M9.01754386,0 C13.9789474,0 18,3.26666667 18,7.29824561 C18,11.3298246 13.9789474,14.5964912 9.01754386,14.5964912 C7.86666667,14.5964912 6.77192982,14.4140351 5.75789474,14.0947368 C4.73684211,14.8175439 3.03508772,15.7192982 0.877192982,15.7192982 C0.540350877,15.7192982 0.235087719,15.5192982 0.101754386,15.2105263 C-0.0315789474,14.9017544 0.0315789474,14.5438596 0.263157895,14.2982456 C0.280701754,14.2842105 1.36842105,13.1122807 1.89122807,11.7298246 C0.733333333,10.4982456 0.0350877193,8.96842105 0.0350877193,7.29824561 C0.0350877193,3.26666667 4.05614035,0 9.01754386,0 Z M9.01754386,1.68421053 C4.99298246,1.68421053 1.71929825,4.20350877 1.71929825,7.29824561 C1.71929825,8.77894737 2.48070175,9.89824561 3.11578947,10.5754386 L3.11578947,10.5754386 L3.83859649,11.3403509 L3.46666667,12.3263158 C3.27368421,12.8350877 3.0245614,13.3122807 2.76842105,13.7368421 C3.59649123,13.4701754 4.28421053,13.0736842 4.78596491,12.7192982 L4.78596491,12.7192982 L5.47017544,12.2350877 L6.26666667,12.4877193 C7.15438596,12.7684211 8.08070175,12.9122807 9.01754386,12.9122807 C13.0421053,12.9122807 16.3157895,10.3929825 16.3157895,7.29824561 C16.3157895,4.20350877 13.0421053,1.68421053 9.01754386,1.68421053 Z M12,8.72280702 C12.2982456,8.36491228 12.8315789,8.31929825 13.1859649,8.61403509 C13.5438596,8.9122807 13.5929825,9.44210526 13.2947368,9.8 C12.2421053,11.0631579 10.6947368,11.7859649 9.05263158,11.7859649 C7.41052632,11.7859649 5.86315789,11.0631579 4.81052632,9.8 C4.51578947,9.44210526 4.56140351,8.9122807 4.91929825,8.61403509 C5.27368421,8.31929825 5.80701754,8.36491228 6.10526316,8.72280702 C6.83508772,9.60350877 7.9122807,10.1052632 9.05263158,10.1052632 C10.1929825,10.1052632 11.2701754,9.6 12,8.72280702 Z M6.24561404,3.92982456 C6.86666667,3.92982456 7.36842105,4.43157895 7.36842105,5.05263158 C7.36842105,5.67368421 6.86666667,6.1754386 6.24561404,6.1754386 C5.6245614,6.1754386 5.12280702,5.67368421 5.12280702,5.05263158 C5.12280702,4.43157895 5.6245614,3.92982456 6.24561404,3.92982456 Z M11.8596491,3.92982456 C12.4807018,3.92982456 12.9824561,4.43157895 12.9824561,5.05263158 C12.9824561,5.67368421 12.4807018,6.1754386 11.8596491,6.1754386 C11.2385965,6.1754386 10.7368421,5.67368421 10.7368421,5.05263158 C10.7368421,4.43157895 11.2385965,3.92982456 11.8596491,3.92982456 Z" id="Combined-Shape"></path>
                            </g>
                        </g>
                    </g>
                </g>
            </g>
        </g>
    </g>
</svg>
