<?xml version="1.0" encoding="UTF-8"?>
<svg width="18px" height="15px" viewBox="0 0 18 15" version="1.1" xmlns="http://www.w3.org/2000/svg" xmlns:xlink="http://www.w3.org/1999/xlink">
    <!-- Generator: Sketch 64 (93537) - https://sketch.com -->
    <title>sitemap-solid</title>
    <desc>Created with Sketch.</desc>
    <g id="Page-ver.-3" stroke="none" stroke-width="1" fill="none" fill-rule="evenodd">
        <g id="Mappr-Slides" transform="translate(-19.000000, -357.000000)" fill="#FFFFFF" fill-rule="nonzero">
            <g id="Slide-bar" transform="translate(-1.000000, 0.000000)">
                <g id="Menu" transform="translate(0.000000, 80.000000)">
                    <g id="Group-6" transform="translate(1.000000, 264.000000)">
                        <g id="sitemap-solid" transform="translate(19.000000, 13.000000)">
                            <path d="M3.6,9.9 L0.9,9.9 C0.40303125,9.9 0,10.3030313 0,10.8 L0,13.5 C0,13.9969688 0.40303125,14.4 0.9,14.4 L3.6,14.4 C4.09696875,14.4 4.5,13.9969688 4.5,13.5 L4.5,10.8 C4.5,10.3030313 4.09696875,9.9 3.6,9.9 Z M2.925,7.65 L8.325,7.65 L8.325,9 L9.675,9 L9.675,7.65 L15.075,7.65 L15.075,9 L16.425,9 L16.425,7.38028125 C16.425,6.784875 15.9404062,6.3 15.3447188,6.3 L9.675,6.3 L9.675,4.5 L10.8,4.5 C11.2969688,4.5 11.7,4.09696875 11.7,3.6 L11.7,0.9 C11.7,0.40303125 11.2969688,0 10.8,0 L7.2,0 C6.70303125,0 6.3,0.40303125 6.3,0.9 L6.3,3.6 C6.3,4.09696875 6.70303125,4.5 7.2,4.5 L8.325,4.5 L8.325,6.3 L2.65528125,6.3 C2.05959375,6.3 1.575,6.78459375 1.575,7.38028125 L1.575,9 L2.925,9 L2.925,7.65 Z M10.35,9.9 L7.65,9.9 C7.15303125,9.9 6.75,10.3030313 6.75,10.8 L6.75,13.5 C6.75,13.9969688 7.15303125,14.4 7.65,14.4 L10.35,14.4 C10.8469688,14.4 11.25,13.9969688 11.25,13.5 L11.25,10.8 C11.25,10.3030313 10.8469688,9.9 10.35,9.9 Z M17.1,9.9 L14.4,9.9 C13.9030312,9.9 13.5,10.3030313 13.5,10.8 L13.5,13.5 C13.5,13.9969688 13.9030312,14.4 14.4,14.4 L17.1,14.4 C17.5969687,14.4 18,13.9969688 18,13.5 L18,10.8 C18,10.3030313 17.5969687,9.9 17.1,9.9 Z" id="Shape"></path>
                        </g>
                    </g>
                </g>
            </g>
        </g>
    </g>
</svg>
