<?xml version="1.0" encoding="UTF-8"?>
<svg width="18px" height="18px" viewBox="0 0 18 18" version="1.1" xmlns="http://www.w3.org/2000/svg" xmlns:xlink="http://www.w3.org/1999/xlink">
    <!-- Generator: Sketch 64 (93537) - https://sketch.com -->
    <title>Shape</title>
    <desc>Created with Sketch.</desc>
    <g id="Page-ver.-3" stroke="none" stroke-width="1" fill="none" fill-rule="evenodd">
        <g id="Mappr-Info-Page" transform="translate(-19.000000, -327.000000)" fill="#C2CFE1" fill-rule="nonzero">
            <g id="Slide-bar" transform="translate(-1.000000, 0.000000)">
                <g id="Menu" transform="translate(0.000000, 80.000000)">
                    <g id="question-circle-regular" transform="translate(20.000000, 247.000000)">
                        <path d="M9,0 C4.02978629,0 0,4.0312379 0,9 C0,13.9716653 4.02978629,18 9,18 C13.9702137,18 18,13.9716653 18,9 C18,4.0312379 13.9702137,0 9,0 Z M9,16.2580645 C4.98875806,16.2580645 1.74193548,13.0125847 1.74193548,9 C1.74193548,4.99010081 4.98890323,1.74193548 9,1.74193548 C13.009754,1.74193548 16.2580645,4.98886694 16.2580645,9 C16.2580645,13.0111694 13.0125847,16.2580645 9,16.2580645 Z M12.8919194,6.99677419 C12.8919194,9.4301129 10.2637379,9.46756452 10.2637379,10.3668024 L10.2637379,10.5967742 C10.2637379,10.8372702 10.06875,11.0322581 9.82825403,11.0322581 L8.17170968,11.0322581 C7.93121371,11.0322581 7.73622581,10.8372702 7.73622581,10.5967742 L7.73622581,10.2825363 C7.73622581,8.98533871 8.71969355,8.46678629 9.46288306,8.05010081 C10.1001774,7.69282258 10.4907702,7.44982258 10.4907702,6.97666935 C10.4907702,6.35080645 9.69241935,5.93539113 9.04699597,5.93539113 C8.20545968,5.93539113 7.81697177,6.33375 7.270875,7.02297581 C7.12364516,7.20878226 6.8549879,7.24329435 6.66606048,7.10005645 L5.65631855,6.33440323 C5.47098387,6.1938871 5.42946774,5.93281452 5.56036694,5.74058468 C6.41779839,4.48152823 7.50991935,3.77419355 9.21026613,3.77419355 C10.9910685,3.77419355 12.8919194,5.16425806 12.8919194,6.99677419 L12.8919194,6.99677419 Z M10.5241935,13.0645161 C10.5241935,13.9049637 9.84044758,14.5887097 9,14.5887097 C8.15955242,14.5887097 7.47580645,13.9049637 7.47580645,13.0645161 C7.47580645,12.2240685 8.15955242,11.5403226 9,11.5403226 C9.84044758,11.5403226 10.5241935,12.2240685 10.5241935,13.0645161 Z" id="Shape"></path>
                    </g>
                </g>
            </g>
        </g>
    </g>
</svg>