<?xml version="1.0" encoding="UTF-8"?>
<svg width="18px" height="18px" viewBox="0 0 18 18" version="1.1" xmlns="http://www.w3.org/2000/svg" xmlns:xlink="http://www.w3.org/1999/xlink">
    <g id="Page-1" stroke="none" stroke-width="1" fill="none" fill-rule="evenodd">
        <g id="legend_white" fill="#FFFFFF" fill-rule="nonzero">
            <path d="M16.875,10.125 L11.25,10.125 C10.6287891,10.125 10.125,10.6287891 10.125,11.25 L10.125,16.875 C10.125,17.4962109 10.6287891,18 11.25,18 L16.875,18 C17.4962109,18 18,17.4962109 18,16.875 L18,11.25 C18,10.6287891 17.4962109,10.125 16.875,10.125 Z M16.3125,16.3125 L11.8125,16.3125 L11.8125,11.8125 L16.3125,11.8125 L16.3125,16.3125 Z M4.5,9 C2.01480469,9 0,11.0148047 0,13.5 C0,15.9851953 2.01480469,18 4.5,18 C6.98519531,18 9,15.9851953 9,13.5 C9,11.0148047 6.98519531,9 4.5,9 Z M4.5,16.3125 C2.94925781,16.3125 1.6875,15.0507422 1.6875,13.5 C1.6875,11.9492578 2.94925781,10.6875 4.5,10.6875 C6.05074219,10.6875 7.3125,11.9492578 7.3125,13.5 C7.3125,15.0507422 6.05074219,16.3125 4.5,16.3125 Z M17.8235156,7.07132812 L14.0649609,0.643007812 C13.8146484,0.214453125 13.3758984,0 12.9375,0 C12.4991016,0 12.0603516,0.214453125 11.8100391,0.643007812 L8.05148438,7.07132812 C7.55015625,7.9284375 8.17664063,9 9.17894531,9 L16.6960547,9 C17.6983594,9 18.3248437,7.9284375 17.8235156,7.07132812 Z M9.86519531,7.3125 L12.9375,2.05769531 L16.0098047,7.3125 L9.86519531,7.3125 Z" id="Shape"></path>
        </g>
    </g>
</svg>
