<?xml version="1.0" encoding="UTF-8"?>
<svg width="18px" height="19px" viewBox="0 0 18 19" version="1.1" xmlns="http://www.w3.org/2000/svg" xmlns:xlink="http://www.w3.org/1999/xlink">
    <!-- Generator: Sketch 64 (93537) - https://sketch.com -->
    <title>Shape</title>
    <desc>Created with Sketch.</desc>
    <g id="Page-ver.-3" stroke="none" stroke-width="1" fill="none" fill-rule="evenodd">
        <g id="Mappr-Info-Page" transform="translate(-19.000000, -371.000000)" fill="#C2CFE1" fill-rule="nonzero">
            <g id="Slide-bar" transform="translate(-1.000000, 0.000000)">
                <g id="Menu" transform="translate(0.000000, 80.000000)">
                    <g id="cog-solid" transform="translate(20.000000, 291.000000)">
                        <path d="M17.7504202,11.6357143 L16.1394958,10.7054622 C16.3021008,9.82815126 16.3021008,8.92815126 16.1394958,8.05084034 L17.7504202,7.12058824 C17.9357143,7.01470588 18.0189076,6.79537815 17.9584034,6.59117647 C17.5386555,5.24495798 16.8239496,4.02731092 15.889916,3.01386555 C15.7462185,2.85882353 15.5117647,2.8210084 15.3302521,2.92689076 L13.7193277,3.85714286 C13.042437,3.27478992 12.2634454,2.82478992 11.4201681,2.52983193 L11.4201681,0.673109244 C11.4201681,0.461344538 11.2726891,0.27605042 11.0647059,0.230672269 C9.67689076,-0.0794117647 8.25504202,-0.0642857143 6.93529412,0.230672269 C6.72731092,0.27605042 6.57983193,0.461344538 6.57983193,0.673109244 L6.57983193,2.53361345 C5.74033613,2.83235294 4.96134454,3.28235294 4.28067227,3.86092437 L2.67352941,2.93067227 C2.48823529,2.82478992 2.25756303,2.85882353 2.11386555,3.01764706 C1.17983193,4.02731092 0.46512605,5.24495798 0.0453781513,6.59495798 C-0.018907563,6.79915966 0.0680672269,7.01848739 0.253361345,7.12436975 L1.86428571,8.05462185 C1.70168067,8.93193277 1.70168067,9.83193277 1.86428571,10.7092437 L0.253361345,11.6394958 C0.0680672269,11.7453782 -0.0151260504,11.9647059 0.0453781513,12.1689076 C0.46512605,13.5151261 1.17983193,14.7327731 2.11386555,15.7462185 C2.25756303,15.9012605 2.49201681,15.9390756 2.67352941,15.8331933 L4.28445378,14.9029412 C4.96134454,15.4852941 5.74033613,15.9352941 6.58361345,16.2302521 L6.58361345,18.0907563 C6.58361345,18.302521 6.73109244,18.4878151 6.93907563,18.5331933 C8.32689076,18.8432773 9.7487395,18.8281513 11.0684874,18.5331933 C11.2764706,18.4878151 11.4239496,18.302521 11.4239496,18.0907563 L11.4239496,16.2302521 C12.2634454,15.9315126 13.042437,15.4815126 13.7231092,14.9029412 L15.3340336,15.8331933 C15.5193277,15.9390756 15.75,15.905042 15.8936975,15.7462185 C16.8277311,14.7365546 17.542437,13.5189076 17.9621849,12.1689076 C18.0189076,11.9609244 17.9357143,11.7415966 17.7504202,11.6357143 Z M9,12.4033613 C7.33235294,12.4033613 5.97478992,11.0457983 5.97478992,9.37815126 C5.97478992,7.7105042 7.33235294,6.35294118 9,6.35294118 C10.6676471,6.35294118 12.0252101,7.7105042 12.0252101,9.37815126 C12.0252101,11.0457983 10.6676471,12.4033613 9,12.4033613 Z" id="Shape"></path>
                    </g>
                </g>
            </g>
        </g>
    </g>
</svg>