<?xml version="1.0" encoding="UTF-8"?>
<svg width="18px" height="18px" viewBox="0 0 18 18" version="1.1" xmlns="http://www.w3.org/2000/svg" xmlns:xlink="http://www.w3.org/1999/xlink">
    <!-- Generator: Sketch 64 (93537) - https://sketch.com -->
    <title>snapshots_white</title>
    <desc>Created with Sketch.</desc>
    <g id="Page-1" stroke="none" stroke-width="1" fill="none" fill-rule="evenodd">
        <g id="snapshots_white" fill="#FFFFFF" fill-rule="nonzero">
            <path d="M16.7142857,0 L1.28571429,0 C0.575633893,0 0,0.575633893 0,1.28571429 L0,16.7142857 C0,17.4243661 0.575633893,18 1.28571429,18 L16.7142857,18 C17.4243661,18 18,17.4243661 18,16.7142857 L18,1.28571429 C18,0.575633893 17.4243661,0 16.7142857,0 Z M15.4285714,12.8571429 L2.57142857,12.8571429 L2.57142857,2.57142857 L15.4285714,2.57142857 L15.4285714,12.8571429 Z" id="Shape" opacity="0.799595424"></path>
            <path d="M2.57142857,2.57142857 L2.57142857,12.8571429 L15.4285714,12.8571429 L15.4285714,2.57142857 L2.57142857,2.57142857 Z M5.14285714,3.85714286 C5.85293754,3.85714286 6.42857143,4.43277675 6.42857143,5.14285714 C6.42857143,5.85293754 5.85293754,6.42857143 5.14285714,6.42857143 C4.43277675,6.42857143 3.85714286,5.85293754 3.85714286,5.14285714 C3.85714286,4.43277675 4.43277675,3.85714286 5.14285714,3.85714286 Z M3.85714286,11.5714286 L5.89379464,8.51785714 C6.01303921,8.33911268 6.21370205,8.23176196 6.42857143,8.23176196 C6.64344081,8.23176196 6.84410365,8.33911268 6.96334821,8.51785714 L7.78982143,9.75736607 L9.77142857,7.115625 C9.89283496,6.95374982 10.0833703,6.85848214 10.2857143,6.85848214 C10.4880583,6.85848214 10.6785936,6.95374982 10.8,7.115625 L14.1428571,11.5714286 L3.85714286,11.5714286 Z" id="Shape"></path>
        </g>
    </g>
</svg>