<?xml version="1.0" encoding="UTF-8"?>
<svg width="18px" height="18px" viewBox="0 0 18 18" version="1.1" xmlns="http://www.w3.org/2000/svg" xmlns:xlink="http://www.w3.org/1999/xlink">
    <!-- Generator: Sketch 64 (93537) - https://sketch.com -->
    <title>palette-solid</title>
    <desc>Created with Sketch.</desc>
    <g id="Page-ver.-3" stroke="none" stroke-width="1" fill="none" fill-rule="evenodd">
        <g id="Mappr-Slides" transform="translate(-19.000000, -399.000000)" fill="#FFFFFF" fill-rule="nonzero">
            <g id="Slide-bar" transform="translate(-1.000000, 0.000000)">
                <g id="Menu" transform="translate(0.000000, 80.000000)">
                    <g id="Group-6" transform="translate(1.000000, 308.000000)">
                        <g id="palette-solid" transform="translate(19.000000, 11.000000)">
                            <path d="M7.16842105,0.210526316 C3.68070175,0.89122807 0.870175439,3.69473684 0.18245614,7.17192982 C-1.11578947,13.7333333 4.80350877,18.6245614 9.26315789,17.9333333 C10.7087719,17.7087719 11.4175439,16.0175439 10.754386,14.7157895 C9.94385965,13.122807 11.1017544,11.2631579 12.8912281,11.2631579 L15.6877193,11.2631579 C16.9438596,11.2631579 17.9614035,10.2245614 17.9649123,8.97192982 C17.9473684,3.44210526 12.9157895,-0.90877193 7.16842105,0.210526316 Z M3.36842105,11.2631579 C2.74736842,11.2631579 2.24561404,10.7614035 2.24561404,10.1403509 C2.24561404,9.51929825 2.74736842,9.01754386 3.36842105,9.01754386 C3.98947368,9.01754386 4.49122807,9.51929825 4.49122807,10.1403509 C4.49122807,10.7614035 3.98947368,11.2631579 3.36842105,11.2631579 Z M4.49122807,6.77192982 C3.87017544,6.77192982 3.36842105,6.27017544 3.36842105,5.64912281 C3.36842105,5.02807018 3.87017544,4.52631579 4.49122807,4.52631579 C5.1122807,4.52631579 5.61403509,5.02807018 5.61403509,5.64912281 C5.61403509,6.27017544 5.1122807,6.77192982 4.49122807,6.77192982 Z M8.98245614,4.52631579 C8.36140351,4.52631579 7.85964912,4.0245614 7.85964912,3.40350877 C7.85964912,2.78245614 8.36140351,2.28070175 8.98245614,2.28070175 C9.60350877,2.28070175 10.1052632,2.78245614 10.1052632,3.40350877 C10.1052632,4.0245614 9.60350877,4.52631579 8.98245614,4.52631579 Z M13.4736842,6.77192982 C12.8526316,6.77192982 12.3508772,6.27017544 12.3508772,5.64912281 C12.3508772,5.02807018 12.8526316,4.52631579 13.4736842,4.52631579 C14.0947368,4.52631579 14.5964912,5.02807018 14.5964912,5.64912281 C14.5964912,6.27017544 14.0947368,6.77192982 13.4736842,6.77192982 Z" id="Shape"></path>
                        </g>
                    </g>
                </g>
            </g>
        </g>
    </g>
</svg>
