<?xml version="1.0" encoding="UTF-8"?>
<svg width="14px" height="14px" viewBox="0 0 14 14" version="1.1" xmlns="http://www.w3.org/2000/svg" xmlns:xlink="http://www.w3.org/1999/xlink">
    <!-- Generator: Sketch 64 (93537) - https://sketch.com -->
    <title>Shape</title>
    <desc>Created with Sketch.</desc>
    <g id="Page-ver.-3" stroke="none" stroke-width="1" fill="none" fill-rule="evenodd">
        <g id="Mappr-Info-Page" transform="translate(-26.000000, -863.000000)" fill="#FFFFFF">
            <g id="Slide-bar" transform="translate(-1.000000, 0.000000)">
                <g id="Toggle" transform="translate(27.000000, 862.000000)">
                    <g id="icon/menu/toggle" transform="translate(0.000000, 1.000000)">
                        <path d="M2,0 C0.895431,0 0,0.89543 0,2 L0,12 C0,13.1046 0.89543,14 2,14 L12,14 C13.1046,14 14,13.1046 14,12 L14,2 C14,0.895431 13.1046,0 12,0 L2,0 Z M5,2 C4.44772,2 4,2.44772 4,3 L4,11 C4,11.5523 4.44772,12 5,12 C5.55228,12 6,11.5523 6,11 L6,3 C6,2.44772 5.55228,2 5,2 Z" id="Shape"></path>
                    </g>
                </g>
            </g>
        </g>
    </g>
</svg>
