<svg width="24" height="24" viewBox="0 0 24 24" fill="none" xmlns="http://www.w3.org/2000/svg">
<path d="M15.9641 6.03624C17.3451 4.65524 19.5831 4.65524 20.9641 6.03624V6.03624C22.3451 7.41724 22.3451 9.65524 20.9641 11.0362L15.0851 16.9152C13.7041 18.2962 11.4661 18.2962 10.0851 16.9152V16.9152C8.70407 15.5342 8.70407 13.2962 10.0851 11.9152L10.9641 11.0362" stroke="#616161" stroke-width="1.5" stroke-linecap="round" stroke-linejoin="round"/>
<path d="M8.03624 18.9641C6.65524 20.3451 4.41724 20.3451 3.03624 18.9641V18.9641C1.65524 17.5831 1.65524 15.3451 3.03624 13.9641L8.91524 8.08507C10.2962 6.70407 12.5342 6.70407 13.9152 8.08507V8.08507C15.2962 9.46607 15.2962 11.7041 13.9152 13.0851L13.0002 14.0001" stroke="#616161" stroke-width="1.5" stroke-linecap="round" stroke-linejoin="round"/>
</svg>
