<svg width="24" height="24" viewBox="0 0 24 24" fill="none" xmlns="http://www.w3.org/2000/svg">
<path fill-rule="evenodd" clip-rule="evenodd" d="M7.5 3H16.504C18.987 3 21 5.013 21 7.496V16.505C21 18.987 18.987 21 16.504 21H7.496C5.013 21 3 18.987 3 16.504V7.5C3 5.015 5.015 3 7.5 3V3Z" stroke="#0A66C2" stroke-width="1.5" stroke-linecap="round" stroke-linejoin="round"/>
<path d="M8.12012 11.1V16.5" stroke="#0A66C2" stroke-width="1.5" stroke-linecap="round" stroke-linejoin="round"/>
<path d="M11.7188 16.5V13.35C11.7188 12.107 12.7257 11.1 13.9688 11.1V11.1C15.2118 11.1 16.2188 12.107 16.2188 13.35V16.5" stroke="#0A66C2" stroke-width="1.5" stroke-linecap="round" stroke-linejoin="round"/>
<path d="M8.11814 7.83799C7.99414 7.83799 7.89314 7.93899 7.89414 8.06299C7.89414 8.18699 7.99514 8.28799 8.11914 8.28799C8.24314 8.28799 8.34414 8.18699 8.34414 8.06299C8.34414 7.93799 8.24314 7.83799 8.11814 7.83799" stroke="#0A66C2" stroke-width="1.5" stroke-linecap="round" stroke-linejoin="round"/>
</svg>
