<?xml version="1.0" encoding="UTF-8"?>
<svg width="16px" height="16px" viewBox="0 0 16 16" version="1.1" xmlns="http://www.w3.org/2000/svg" xmlns:xlink="http://www.w3.org/1999/xlink">
    <!-- Generator: Sketch 64 (93537) - https://sketch.com -->
    <title>Path Copy</title>
    <desc>Created with Sketch.</desc>
    <g id="Page-ver.-3" stroke="none" stroke-width="1" fill="none" fill-rule="evenodd">
        <g id="Mappr-Filters-Description-2" transform="translate(-1260.000000, -43.000000)" fill="#4B5561" fill-rule="nonzero">
            <g id="Content" transform="translate(213.000000, 20.000000)">
                <g id="Selected-Node" transform="translate(868.000000, 0.000000)">
                    <g id="facebook-square-brands" transform="translate(179.000000, 23.000000)">
                        <path d="M14.2857143,0 L1.71428571,0 C0.767511857,0 0,0.767511857 0,1.71428571 L0,14.2857143 C0,15.2324881 0.767511857,16 1.71428571,16 L6.61607143,16 L6.61607143,10.5603571 L4.36607143,10.5603571 L4.36607143,8 L6.61607143,8 L6.61607143,6.04857143 C6.61607143,3.82892857 7.9375,2.60285714 9.96142857,2.60285714 C10.9307143,2.60285714 11.9442857,2.77571429 11.9442857,2.77571429 L11.9442857,4.95428571 L10.8275,4.95428571 C9.72714286,4.95428571 9.38392857,5.63714286 9.38392857,6.3375 L9.38392857,8 L11.8403571,8 L11.4475,10.5603571 L9.38392857,10.5603571 L9.38392857,16 L14.2857143,16 C15.2324881,16 16,15.2324881 16,14.2857143 L16,1.71428571 C16,0.767511857 15.2324881,0 14.2857143,0 L14.2857143,0 Z" id="Path-Copy"></path>
                    </g>
                </g>
            </g>
        </g>
    </g>
</svg>