<?xml version="1.0" encoding="UTF-8"?>
<svg width="16px" height="16px" viewBox="0 0 16 16" version="1.1" xmlns="http://www.w3.org/2000/svg" xmlns:xlink="http://www.w3.org/1999/xlink">
    <!-- Generator: Sketch 64 (93537) - https://sketch.com -->
    <title>Combined Shape</title>
    <desc>Created with Sketch.</desc>
    <g id="Page-ver.-3" stroke="none" stroke-width="1" fill="none" fill-rule="evenodd">
        <g id="Mappr-Filters-Description-2" transform="translate(-1237.000000, -43.000000)" fill="#4B5561">
            <g id="Content" transform="translate(213.000000, 20.000000)">
                <g id="Selected-Node" transform="translate(868.000000, 0.000000)">
                    <g id="crunchbase-icon" transform="translate(154.000000, 22.000000)">
                        <path d="M16.5,1 C17.3284271,1 18,1.67157288 18,2.5 L18,15.5 C18,16.3284271 17.3284271,17 16.5,17 L3.5,17 C2.67157288,17 2,16.3284271 2,15.5 L2,2.5 C2,1.67157288 2.67157288,1 3.5,1 L16.5,1 Z M12.1427707,11.3225806 L7.85964912,11.3225806 C8.21052632,13.4830645 9.03811252,15 10.0012099,15 C10.9643073,15 11.7918935,13.4830645 12.1427707,11.3225806 Z M15.53781,11.3225806 L12.9243799,11.3225806 C12.7114338,12.6991935 12.3049002,13.9306452 11.7144586,14.7483871 C13.4422263,14.2354839 14.845735,12.9653226 15.53781,11.3225806 Z M7.08045977,11.3225806 L4.46702964,11.3225806 C5.15910466,12.9653226 6.56019359,14.2354839 8.29038113,14.7483871 C7.6999395,13.9306452 7.29340593,12.6991935 7.08045977,11.3225806 Z M12.2419843,7.4516129 L7.75801573,7.4516129 C7.70719903,7.94758065 7.67816092,8.46290323 7.67816092,9 C7.67816092,9.53709677 7.70719903,10.0524194 7.75801573,10.5483871 L12.2419843,10.5483871 C12.292801,10.0524194 12.3218391,9.53709677 12.3218391,9 C12.3218391,8.46290323 12.292801,7.94758065 12.2419843,7.4516129 Z M15.7943134,7.4516129 L13.0187538,7.4516129 C13.0695705,7.95967742 13.0986086,8.47983871 13.0986086,9 C13.0986086,9.52016129 13.0695705,10.0403226 13.0187538,10.5483871 L15.7918935,10.5483871 C15.9249849,10.0524194 16,9.53709677 16,9 C16,8.46290323 15.9249849,7.94758065 15.7943134,7.4516129 Z M6.98366606,7.4516129 L4.20810647,7.4516129 C4.07743497,7.94758065 4,8.46290323 4,9 C4,9.53709677 4.07743497,10.0524194 4.20810647,10.5483871 L6.98124622,10.5483871 C6.93284936,10.0403226 6.90381125,9.52016129 6.90381125,9 C6.90381125,8.47983871 6.93284936,7.95967742 6.98366606,7.4516129 Z M10.0012099,3 C9.03811252,3 8.21052632,4.51693548 7.85964912,6.67741935 L12.1427707,6.67741935 C11.7918935,4.51693548 10.9643073,3 10.0012099,3 Z M11.7120387,3.2516129 C12.3024803,4.06935484 12.7090139,5.30080645 12.9219601,6.67741935 L15.5353902,6.67741935 C14.8433152,5.03467742 13.4422263,3.76451613 11.7120387,3.2516129 Z M8.28796128,3.2516129 C6.56019359,3.76451613 5.15668482,5.03467742 4.46702964,6.67741935 L7.08045977,6.67741935 C7.29098609,5.30080645 7.69751966,4.06935484 8.28796128,3.2516129 Z" id="Combined-Shape"></path>
                    </g>
                </g>
            </g>
        </g>
    </g>
</svg>